NotoSerifTelugu-Bold.ufo
<glyph name="exclam.telu" format="2">
  <advance width="353"/>
  <unicode hex="0021"/>
  <outline>
    <contour>
      <point x="143" y="234" type="line"/>
      <point x="210" y="234" type="line"/>
      <point x="285" y="656" type="line"/>
      <point x="68" y="656" type="line"/>
    </contour>
    <contour>
      <point x="178" y="-9" type="curve" smooth="yes"/>
      <point x="227" y="-9"/>
      <point x="272" y="15"/>
      <point x="272" y="82" type="curve" smooth="yes"/>
      <point x="272" y="150"/>
      <point x="227" y="173"/>
      <point x="178" y="173" type="curve" smooth="yes"/>
      <point x="126" y="173"/>
      <point x="84" y="150"/>
      <point x="84" y="82" type="curve" smooth="yes"/>
      <point x="84" y="15"/>
      <point x="126" y="-9"/>
    </contour>
  </outline>
</glyph>
<glyph name="quotedbl.telu" format="2">
  <advance width="569"/>
  <unicode hex="0022"/>
  <outline>
    <contour>
      <point x="364" y="499" type="line"/>
      <point x="445" y="499" type="line"/>
      <point x="501" y="773" type="line"/>
      <point x="308" y="773" type="line"/>
    </contour>
    <contour>
      <point x="124" y="499" type="line"/>
      <point x="205" y="499" type="line"/>
      <point x="261" y="773" type="line"/>
      <point x="68" y="773" type="line"/>
    </contour>
  </outline>
</glyph>
<glyph name="numbersign.telu" format="2">
  <advance width="578"/>
  <unicode hex="0023"/>
  <outline>
    <contour>
      <point x="57" y="403" type="line"/>
      <point x="553" y="403" type="line"/>
      <point x="553" y="480" type="line"/>
      <point x="57" y="480" type="line"/>
    </contour>
    <contour>
      <point x="25" y="177" type="line"/>
      <point x="521" y="177" type="line"/>
      <point x="521" y="254" type="line"/>
      <point x="25" y="254" type="line"/>
    </contour>
    <contour>
      <point x="280" y="651" type="line"/>
      <point x="201" y="651" type="line"/>
      <point x="79" y="0" type="line"/>
      <point x="157" y="0" type="line"/>
    </contour>
    <contour>
      <point x="479" y="651" type="line"/>
      <point x="401" y="651" type="line"/>
      <point x="278" y="0" type="line"/>
      <point x="356" y="0" type="line"/>
    </contour>
  </outline>
</glyph>
<glyph name="percent.telu" format="2">
  <advance width="897"/>
  <unicode hex="0025"/>
  <outline>
    <contour>
      <point x="208" y="0" type="line"/>
      <point x="295" y="0" type="line"/>
      <point x="689" y="651" type="line"/>
      <point x="602" y="651" type="line"/>
    </contour>
    <contour>
      <point x="226" y="274" type="curve" smooth="yes"/>
      <point x="347" y="274"/>
      <point x="415" y="352"/>
      <point x="415" y="468" type="curve" smooth="yes"/>
      <point x="415" y="585"/>
      <point x="347" y="661"/>
      <point x="227" y="661" type="curve" smooth="yes"/>
      <point x="98" y="661"/>
      <point x="37" y="585"/>
      <point x="37" y="468" type="curve" smooth="yes"/>
      <point x="37" y="352"/>
      <point x="98" y="274"/>
    </contour>
    <contour>
      <point x="226" y="329" type="curve" smooth="yes"/>
      <point x="184" y="329"/>
      <point x="167" y="382"/>
      <point x="167" y="468" type="curve" smooth="yes"/>
      <point x="167" y="554"/>
      <point x="184" y="606"/>
      <point x="227" y="606" type="curve" smooth="yes"/>
      <point x="269" y="606"/>
      <point x="284" y="554"/>
      <point x="284" y="468" type="curve" smooth="yes"/>
      <point x="284" y="382"/>
      <point x="269" y="329"/>
    </contour>
    <contour>
      <point x="671" y="-10" type="curve" smooth="yes"/>
      <point x="792" y="-10"/>
      <point x="860" y="68"/>
      <point x="860" y="184" type="curve" smooth="yes"/>
      <point x="860" y="301"/>
      <point x="792" y="377"/>
      <point x="672" y="377" type="curve" smooth="yes"/>
      <point x="543" y="377"/>
      <point x="482" y="301"/>
      <point x="482" y="184" type="curve" smooth="yes"/>
      <point x="482" y="68"/>
      <point x="543" y="-10"/>
    </contour>
    <contour>
      <point x="671" y="45" type="curve" smooth="yes"/>
      <point x="629" y="45"/>
      <point x="612" y="98"/>
      <point x="612" y="184" type="curve" smooth="yes"/>
      <point x="612" y="270"/>
      <point x="629" y="322"/>
      <point x="672" y="322" type="curve" smooth="yes"/>
      <point x="714" y="322"/>
      <point x="729" y="270"/>
      <point x="729" y="184" type="curve" smooth="yes"/>
      <point x="729" y="98"/>
      <point x="714" y="45"/>
    </contour>
  </outline>
</glyph>
<glyph name="quotesingle.telu" format="2">
  <advance width="329"/>
  <unicode hex="0027"/>
  <outline>
    <contour>
      <point x="124" y="499" type="line"/>
      <point x="205" y="499" type="line"/>
      <point x="261" y="773" type="line"/>
      <point x="68" y="773" type="line"/>
    </contour>
  </outline>
</glyph>
<glyph name="parenleft.telu" format="2">
  <advance width="419"/>
  <unicode hex="0028"/>
  <outline>
    <contour>
      <point x="381" y="-364" type="curve"/>
      <point x="381" y="-287" type="line"/>
      <point x="265" y="-205"/>
      <point x="221" y="-57"/>
      <point x="221" y="207" type="curve" smooth="yes"/>
      <point x="221" y="471"/>
      <point x="265" y="617"/>
      <point x="381" y="700" type="curve"/>
      <point x="386" y="776" type="line"/>
      <point x="143" y="679"/>
      <point x="51" y="510"/>
      <point x="51" y="207" type="curve" smooth="yes"/>
      <point x="51" y="-96"/>
      <point x="143" y="-267"/>
    </contour>
  </outline>
</glyph>
<glyph name="parenright.telu" format="2">
  <advance width="419"/>
  <unicode hex="0029"/>
  <outline>
    <contour>
      <point x="38" y="776" type="curve"/>
      <point x="38" y="699" type="line"/>
      <point x="154" y="617"/>
      <point x="198" y="469"/>
      <point x="198" y="205" type="curve" smooth="yes"/>
      <point x="198" y="-59"/>
      <point x="154" y="-205"/>
      <point x="38" y="-288" type="curve"/>
      <point x="38" y="-364" type="line"/>
      <point x="276" y="-267"/>
      <point x="368" y="-98"/>
      <point x="368" y="205" type="curve" smooth="yes"/>
      <point x="368" y="508"/>
      <point x="276" y="679"/>
    </contour>
  </outline>
</glyph>
<glyph name="asterisk.telu" format="2">
  <advance width="537"/>
  <unicode hex="002A"/>
  <outline>
    <contour>
      <point x="205" y="372" type="line"/>
      <point x="333" y="372" type="line"/>
      <point x="294" y="537" type="line"/>
      <point x="439" y="419" type="line"/>
      <point x="492" y="534" type="line"/>
      <point x="325" y="573" type="line"/>
      <point x="492" y="611" type="line"/>
      <point x="439" y="727" type="line"/>
      <point x="294" y="609" type="line"/>
      <point x="334" y="773" type="line"/>
      <point x="205" y="773" type="line"/>
      <point x="243" y="609" type="line"/>
      <point x="97" y="728" type="line"/>
      <point x="45" y="612" type="line"/>
      <point x="212" y="573" type="line"/>
      <point x="45" y="533" type="line"/>
      <point x="97" y="418" type="line"/>
      <point x="243" y="537" type="line"/>
    </contour>
  </outline>
</glyph>
<glyph name="plus.telu" format="2">
  <advance width="559"/>
  <unicode hex="002B"/>
  <outline>
    <contour>
      <point x="239" y="112" type="line"/>
      <point x="319" y="112" type="line"/>
      <point x="319" y="287" type="line"/>
      <point x="494" y="287" type="line"/>
      <point x="494" y="366" type="line"/>
      <point x="319" y="366" type="line"/>
      <point x="319" y="541" type="line"/>
      <point x="239" y="541" type="line"/>
      <point x="239" y="366" type="line"/>
      <point x="65" y="366" type="line"/>
      <point x="65" y="287" type="line"/>
      <point x="239" y="287" type="line"/>
    </contour>
  </outline>
</glyph>
<glyph name="hyphen.telu" format="2">
  <advance width="332"/>
  <unicode hex="002D"/>
  <outline>
    <contour>
      <point x="36" y="202" type="line"/>
      <point x="296" y="202" type="line"/>
      <point x="296" y="329" type="line"/>
      <point x="36" y="329" type="line"/>
    </contour>
  </outline>
</glyph>
<glyph name="period.telu" format="2">
  <advance width="294"/>
  <unicode hex="002E"/>
  <outline>
    <contour>
      <point x="147" y="-9" type="curve" smooth="yes"/>
      <point x="196" y="-9"/>
      <point x="241" y="15"/>
      <point x="241" y="82" type="curve" smooth="yes"/>
      <point x="241" y="150"/>
      <point x="196" y="173"/>
      <point x="147" y="173" type="curve" smooth="yes"/>
      <point x="95" y="173"/>
      <point x="53" y="150"/>
      <point x="53" y="82" type="curve" smooth="yes"/>
      <point x="53" y="15"/>
      <point x="95" y="-9"/>
    </contour>
  </outline>
</glyph>
<glyph name="slash.telu" format="2">
  <advance width="381"/>
  <unicode hex="002F"/>
  <outline>
    <contour>
      <point x="27" y="-361" type="line"/>
      <point x="108" y="-361" type="line"/>
      <point x="354" y="773" type="line"/>
      <point x="273" y="773" type="line"/>
    </contour>
  </outline>
</glyph>
<glyph name="zero.telu" format="2">
  <advance width="559"/>
  <unicode hex="0030"/>
  <outline>
    <contour>
      <point x="280" y="-12" type="curve" smooth="yes"/>
      <point x="457" y="-12"/>
      <point x="531" y="125"/>
      <point x="531" y="325" type="curve" smooth="yes"/>
      <point x="531" y="527"/>
      <point x="465" y="661"/>
      <point x="281" y="661" type="curve" smooth="yes"/>
      <point x="94" y="661"/>
      <point x="28" y="527"/>
      <point x="28" y="326" type="curve" smooth="yes"/>
      <point x="28" y="125"/>
      <point x="94" y="-12"/>
    </contour>
    <contour>
      <point x="280" y="48" type="curve" smooth="yes"/>
      <point x="222" y="48"/>
      <point x="218" y="139"/>
      <point x="218" y="325" type="curve" smooth="yes"/>
      <point x="218" y="511"/>
      <point x="222" y="601"/>
      <point x="281" y="601" type="curve" smooth="yes"/>
      <point x="337" y="601"/>
      <point x="340" y="511"/>
      <point x="340" y="325" type="curve" smooth="yes"/>
      <point x="340" y="139"/>
      <point x="337" y="48"/>
    </contour>
  </outline>
</glyph>
<glyph name="one.telu" format="2">
  <advance width="559"/>
  <unicode hex="0031"/>
  <outline>
    <contour>
      <point x="77" y="0" type="line"/>
      <point x="524" y="0" type="line"/>
      <point x="524" y="55" type="line"/>
      <point x="449" y="55" type="line" smooth="yes"/>
      <point x="410" y="55"/>
      <point x="401" y="88"/>
      <point x="401" y="115" type="curve" smooth="yes"/>
      <point x="401" y="652" type="line"/>
      <point x="254" y="652" type="line"/>
      <point x="196" y="607" type="line" smooth="yes"/>
      <point x="132" y="557"/>
      <point x="76" y="536"/>
      <point x="36" y="526" type="curve"/>
      <point x="36" y="471"/>
      <point x="54" y="438"/>
      <point x="95" y="438" type="curve" smooth="yes"/>
      <point x="128" y="438"/>
      <point x="166" y="474"/>
      <point x="217" y="548" type="curve"/>
      <point x="217" y="115" type="line" smooth="yes"/>
      <point x="217" y="75"/>
      <point x="202" y="55"/>
      <point x="170" y="55" type="curve" smooth="yes"/>
      <point x="77" y="55" type="line"/>
    </contour>
  </outline>
</glyph>
<glyph name="two.telu" format="2">
  <advance width="559"/>
  <unicode hex="0032"/>
  <outline>
    <contour>
      <point x="23" y="0" type="line"/>
      <point x="524" y="0" type="line"/>
      <point x="529" y="237" type="line"/>
      <point x="457" y="237" type="line"/>
      <point x="446" y="197" type="line" smooth="yes"/>
      <point x="433" y="149"/>
      <point x="404" y="132"/>
      <point x="364" y="132" type="curve" smooth="yes"/>
      <point x="150" y="132" type="line"/>
      <point x="221" y="183" type="line" smooth="yes"/>
      <point x="424" y="329"/>
      <point x="504" y="412"/>
      <point x="504" y="510" type="curve" smooth="yes"/>
      <point x="504" y="599"/>
      <point x="422" y="661"/>
      <point x="256" y="661" type="curve" smooth="yes"/>
      <point x="97" y="661"/>
      <point x="25" y="592"/>
      <point x="25" y="530" type="curve" smooth="yes"/>
      <point x="25" y="442"/>
      <point x="95" y="428"/>
      <point x="174" y="428" type="curve"/>
      <point x="174" y="551"/>
      <point x="205" y="601"/>
      <point x="256" y="601" type="curve" smooth="yes"/>
      <point x="287" y="601"/>
      <point x="316" y="582"/>
      <point x="316" y="507" type="curve" smooth="yes"/>
      <point x="316" y="421"/>
      <point x="276" y="339"/>
      <point x="153" y="228" type="curve" smooth="yes"/>
      <point x="23" y="111" type="line"/>
    </contour>
  </outline>
</glyph>
<glyph name="three.telu" format="2">
  <advance width="559"/>
  <unicode hex="0033"/>
  <outline>
    <contour>
      <point x="242" y="-12" type="curve" smooth="yes"/>
      <point x="391" y="-12"/>
      <point x="531" y="32"/>
      <point x="531" y="184" type="curve" smooth="yes"/>
      <point x="531" y="283"/>
      <point x="452" y="329"/>
      <point x="358" y="347" type="curve"/>
      <point x="434" y="372"/>
      <point x="506" y="422"/>
      <point x="506" y="513" type="curve" smooth="yes"/>
      <point x="506" y="606"/>
      <point x="415" y="661"/>
      <point x="261" y="661" type="curve" smooth="yes"/>
      <point x="108" y="661"/>
      <point x="28" y="608"/>
      <point x="28" y="548" type="curve" smooth="yes"/>
      <point x="28" y="480"/>
      <point x="85" y="453"/>
      <point x="171" y="453" type="curve"/>
      <point x="171" y="531"/>
      <point x="193" y="601"/>
      <point x="250" y="601" type="curve" smooth="yes"/>
      <point x="288" y="601"/>
      <point x="316" y="571"/>
      <point x="316" y="494" type="curve" smooth="yes"/>
      <point x="316" y="428"/>
      <point x="291" y="365"/>
      <point x="187" y="365" type="curve" smooth="yes"/>
      <point x="130" y="365" type="line"/>
      <point x="130" y="305" type="line"/>
      <point x="200" y="305" type="line" smooth="yes"/>
      <point x="296" y="305"/>
      <point x="340" y="258"/>
      <point x="340" y="178" type="curve" smooth="yes"/>
      <point x="340" y="83"/>
      <point x="296" y="51"/>
      <point x="227" y="51" type="curve" smooth="yes"/>
      <point x="162" y="51"/>
      <point x="116" y="101"/>
      <point x="116" y="187" type="curve"/>
      <point x="61" y="187"/>
      <point x="15" y="158"/>
      <point x="15" y="111" type="curve" smooth="yes"/>
      <point x="15" y="45"/>
      <point x="77" y="-12"/>
    </contour>
  </outline>
</glyph>
<glyph name="four.telu" format="2">
  <advance width="559"/>
  <unicode hex="0034"/>
  <outline>
    <contour>
      <point x="156" y="0" type="line"/>
      <point x="544" y="0" type="line"/>
      <point x="544" y="55" type="line"/>
      <point x="531" y="55" type="line" smooth="yes"/>
      <point x="486" y="55"/>
      <point x="449" y="63"/>
      <point x="449" y="120" type="curve" smooth="yes"/>
      <point x="449" y="164" type="line"/>
      <point x="538" y="164" type="line"/>
      <point x="538" y="229" type="line"/>
      <point x="449" y="229" type="line"/>
      <point x="449" y="651" type="line"/>
      <point x="278" y="651" type="line"/>
      <point x="12" y="231" type="line"/>
      <point x="12" y="164" type="line"/>
      <point x="266" y="164" type="line"/>
      <point x="266" y="120" type="line" smooth="yes"/>
      <point x="266" y="63"/>
      <point x="229" y="55"/>
      <point x="184" y="55" type="curve" smooth="yes"/>
      <point x="156" y="55" type="line"/>
    </contour>
    <contour>
      <point x="92" y="229" type="line"/>
      <point x="209" y="419" type="line" smooth="yes"/>
      <point x="237" y="464"/>
      <point x="263" y="515"/>
      <point x="274" y="548" type="curve"/>
      <point x="269" y="491"/>
      <point x="267" y="436"/>
      <point x="267" y="383" type="curve" smooth="yes"/>
      <point x="267" y="229" type="line"/>
    </contour>
  </outline>
</glyph>
<glyph name="five.telu" format="2">
  <advance width="559"/>
  <unicode hex="0035"/>
  <outline>
    <contour>
      <point x="246" y="-12" type="curve" smooth="yes"/>
      <point x="343" y="-12"/>
      <point x="521" y="6"/>
      <point x="521" y="192" type="curve" smooth="yes"/>
      <point x="521" y="326"/>
      <point x="418" y="393"/>
      <point x="273" y="393" type="curve" smooth="yes"/>
      <point x="207" y="393"/>
      <point x="170" y="387"/>
      <point x="140" y="376" type="curve"/>
      <point x="153" y="521" type="line"/>
      <point x="369" y="521" type="line" smooth="yes"/>
      <point x="392" y="521"/>
      <point x="404" y="509"/>
      <point x="410" y="488" type="curve" smooth="yes"/>
      <point x="420" y="450" type="line"/>
      <point x="491" y="450" type="line"/>
      <point x="486" y="651" type="line"/>
      <point x="91" y="651" type="line"/>
      <point x="60" y="336" type="line"/>
      <point x="106" y="312" type="line"/>
      <point x="141" y="323"/>
      <point x="175" y="329"/>
      <point x="207" y="329" type="curve" smooth="yes"/>
      <point x="289" y="329"/>
      <point x="332" y="286"/>
      <point x="332" y="194" type="curve" smooth="yes"/>
      <point x="332" y="81"/>
      <point x="278" y="48"/>
      <point x="223" y="48" type="curve" smooth="yes"/>
      <point x="141" y="48"/>
      <point x="122" y="124"/>
      <point x="122" y="177" type="curve"/>
      <point x="70" y="177"/>
      <point x="29" y="155"/>
      <point x="29" y="106" type="curve" smooth="yes"/>
      <point x="29" y="34"/>
      <point x="94" y="-12"/>
    </contour>
  </outline>
</glyph>
<glyph name="six.telu" format="2">
  <advance width="559"/>
  <unicode hex="0036"/>
  <outline>
    <contour>
      <point x="293" y="-12" type="curve" smooth="yes"/>
      <point x="457" y="-12"/>
      <point x="536" y="61"/>
      <point x="536" y="203" type="curve" smooth="yes"/>
      <point x="536" y="328"/>
      <point x="457" y="398"/>
      <point x="336" y="398" type="curve" smooth="yes"/>
      <point x="281" y="398"/>
      <point x="239" y="381"/>
      <point x="195" y="358" type="curve"/>
      <point x="198" y="287" type="line"/>
      <point x="222" y="313"/>
      <point x="259" y="334"/>
      <point x="287" y="334" type="curve" smooth="yes"/>
      <point x="329" y="334"/>
      <point x="359" y="302"/>
      <point x="359" y="194" type="curve" smooth="yes"/>
      <point x="359" y="76"/>
      <point x="332" y="48"/>
      <point x="296" y="48" type="curve" smooth="yes"/>
      <point x="246" y="48"/>
      <point x="208" y="110"/>
      <point x="208" y="327" type="curve"/>
      <point x="208" y="345" type="line"/>
      <point x="213" y="503"/>
      <point x="246" y="602"/>
      <point x="312" y="602" type="curve" smooth="yes"/>
      <point x="357" y="602"/>
      <point x="380" y="538"/>
      <point x="380" y="469" type="curve"/>
      <point x="481" y="469"/>
      <point x="516" y="509"/>
      <point x="516" y="555" type="curve" smooth="yes"/>
      <point x="516" y="612"/>
      <point x="460" y="661"/>
      <point x="318" y="661" type="curve" smooth="yes"/>
      <point x="129" y="661"/>
      <point x="33" y="524"/>
      <point x="33" y="313" type="curve" smooth="yes"/>
      <point x="33" y="76"/>
      <point x="134" y="-12"/>
    </contour>
  </outline>
</glyph>
<glyph name="seven.telu" format="2">
  <advance width="559"/>
  <unicode hex="0037"/>
  <outline>
    <contour>
      <point x="138" y="0" type="line"/>
      <point x="250" y="0" type="line"/>
      <point x="518" y="587" type="line"/>
      <point x="518" y="651" type="line"/>
      <point x="43" y="651" type="line"/>
      <point x="38" y="419" type="line"/>
      <point x="110" y="419" type="line"/>
      <point x="118" y="469" type="line" smooth="yes"/>
      <point x="123" y="502"/>
      <point x="140" y="520"/>
      <point x="176" y="520" type="curve"/>
      <point x="416" y="520" type="line"/>
    </contour>
  </outline>
</glyph>
<glyph name="eight.telu" format="2">
  <advance width="559"/>
  <unicode hex="0038"/>
  <outline>
    <contour>
      <point x="273" y="-12" type="curve" smooth="yes"/>
      <point x="454" y="-12"/>
      <point x="541" y="63"/>
      <point x="541" y="170" type="curve" smooth="yes"/>
      <point x="541" y="258"/>
      <point x="499" y="308"/>
      <point x="383" y="362" type="curve"/>
      <point x="468" y="390"/>
      <point x="516" y="432"/>
      <point x="516" y="512" type="curve" smooth="yes"/>
      <point x="516" y="592"/>
      <point x="440" y="661"/>
      <point x="287" y="661" type="curve" smooth="yes"/>
      <point x="118" y="661"/>
      <point x="41" y="585"/>
      <point x="41" y="492" type="curve" smooth="yes"/>
      <point x="41" y="410"/>
      <point x="91" y="360"/>
      <point x="170" y="321" type="curve"/>
      <point x="83" y="294"/>
      <point x="18" y="247"/>
      <point x="18" y="154" type="curve" smooth="yes"/>
      <point x="18" y="68"/>
      <point x="93" y="-12"/>
    </contour>
    <contour>
      <point x="274" y="48" type="curve" smooth="yes"/>
      <point x="225" y="48"/>
      <point x="181" y="77"/>
      <point x="181" y="159" type="curve" smooth="yes"/>
      <point x="181" y="212"/>
      <point x="207" y="255"/>
      <point x="237" y="282" type="curve"/>
      <point x="315" y="245"/>
      <point x="360" y="207"/>
      <point x="360" y="139" type="curve" smooth="yes"/>
      <point x="360" y="84"/>
      <point x="326" y="48"/>
    </contour>
    <contour>
      <point x="310" y="394" type="curve"/>
      <point x="254" y="417"/>
      <point x="217" y="455"/>
      <point x="217" y="519" type="curve" smooth="yes"/>
      <point x="217" y="568"/>
      <point x="243" y="601"/>
      <point x="285" y="601" type="curve" smooth="yes"/>
      <point x="332" y="601"/>
      <point x="357" y="562"/>
      <point x="357" y="513" type="curve" smooth="yes"/>
      <point x="357" y="455"/>
      <point x="335" y="420"/>
    </contour>
  </outline>
</glyph>
<glyph name="nine.telu" format="2">
  <advance width="559"/>
  <unicode hex="0039"/>
  <outline>
    <contour>
      <point x="351" y="352" type="curve" smooth="yes"/>
      <point x="351" y="340" type="line" smooth="yes"/>
      <point x="351" y="149"/>
      <point x="313" y="48"/>
      <point x="235" y="48" type="curve" smooth="yes"/>
      <point x="165" y="48"/>
      <point x="140" y="109"/>
      <point x="120" y="178" type="curve"/>
      <point x="68" y="171"/>
      <point x="49" y="135"/>
      <point x="49" y="104" type="curve" smooth="yes"/>
      <point x="49" y="36"/>
      <point x="100" y="-12"/>
      <point x="227" y="-12" type="curve"/>
      <point x="440" y="-12"/>
      <point x="526" y="129"/>
      <point x="526" y="336" type="curve" smooth="yes"/>
      <point x="526" y="577"/>
      <point x="415" y="661"/>
      <point x="263" y="661" type="curve" smooth="yes"/>
      <point x="117" y="661"/>
      <point x="23" y="580"/>
      <point x="23" y="449" type="curve" smooth="yes"/>
      <point x="23" y="324"/>
      <point x="104" y="257"/>
      <point x="235" y="257" type="curve" smooth="yes"/>
      <point x="296" y="257"/>
      <point x="340" y="277"/>
      <point x="388" y="318" type="curve"/>
      <point x="372" y="394" type="line"/>
      <point x="351" y="352"/>
      <point x="323" y="325"/>
      <point x="276" y="325" type="curve" smooth="yes"/>
      <point x="225" y="325"/>
      <point x="199" y="371"/>
      <point x="199" y="452" type="curve" smooth="yes"/>
      <point x="199" y="552"/>
      <point x="226" y="601"/>
      <point x="274" y="601" type="curve" smooth="yes"/>
      <point x="329" y="601"/>
      <point x="351" y="525"/>
    </contour>
  </outline>
</glyph>
<glyph name="colon.telu" format="2">
  <advance width="314"/>
  <unicode hex="003A"/>
  <outline>
    <contour>
      <point x="157" y="-9" type="curve" smooth="yes"/>
      <point x="206" y="-9"/>
      <point x="251" y="15"/>
      <point x="251" y="82" type="curve" smooth="yes"/>
      <point x="251" y="150"/>
      <point x="206" y="173"/>
      <point x="157" y="173" type="curve" smooth="yes"/>
      <point x="105" y="173"/>
      <point x="63" y="150"/>
      <point x="63" y="82" type="curve" smooth="yes"/>
      <point x="63" y="15"/>
      <point x="105" y="-9"/>
    </contour>
    <contour>
      <point x="157" y="277" type="curve" smooth="yes"/>
      <point x="206" y="277"/>
      <point x="251" y="301"/>
      <point x="251" y="368" type="curve" smooth="yes"/>
      <point x="251" y="436"/>
      <point x="206" y="459"/>
      <point x="157" y="459" type="curve" smooth="yes"/>
      <point x="105" y="459"/>
      <point x="63" y="436"/>
      <point x="63" y="368" type="curve" smooth="yes"/>
      <point x="63" y="301"/>
      <point x="105" y="277"/>
    </contour>
  </outline>
</glyph>
<glyph name="semicolon.telu" format="2">
  <advance width="314"/>
  <unicode hex="003B"/>
  <outline>
    <contour>
      <point x="51" y="-154" type="line"/>
      <point x="199" y="-119"/>
      <point x="251" y="-43"/>
      <point x="251" y="47" type="curve" smooth="yes"/>
      <point x="251" y="119"/>
      <point x="217" y="169"/>
      <point x="153" y="169" type="curve" smooth="yes"/>
      <point x="106" y="169"/>
      <point x="71" y="138"/>
      <point x="71" y="87" type="curve" smooth="yes"/>
      <point x="71" y="-1"/>
      <point x="149" y="11"/>
      <point x="149" y="-28" type="curve" smooth="yes"/>
      <point x="149" y="-60"/>
      <point x="114" y="-74"/>
      <point x="51" y="-95" type="curve"/>
    </contour>
    <contour>
      <point x="157" y="277" type="curve" smooth="yes"/>
      <point x="206" y="277"/>
      <point x="251" y="301"/>
      <point x="251" y="368" type="curve" smooth="yes"/>
      <point x="251" y="436"/>
      <point x="206" y="459"/>
      <point x="157" y="459" type="curve" smooth="yes"/>
      <point x="105" y="459"/>
      <point x="63" y="436"/>
      <point x="63" y="368" type="curve" smooth="yes"/>
      <point x="63" y="301"/>
      <point x="105" y="277"/>
    </contour>
  </outline>
</glyph>
<glyph name="less.telu" format="2">
  <advance width="559"/>
  <unicode hex="003C"/>
  <outline>
    <contour>
      <point x="494" y="69" type="line"/>
      <point x="494" y="156" type="line"/>
      <point x="182" y="326" type="line"/>
      <point x="494" y="498" type="line"/>
      <point x="494" y="585" type="line"/>
      <point x="65" y="349" type="line"/>
      <point x="65" y="304" type="line"/>
    </contour>
  </outline>
</glyph>
<glyph name="equal.telu" format="2">
  <advance width="559"/>
  <unicode hex="003D"/>
  <outline>
    <contour>
      <point x="62" y="383" type="line"/>
      <point x="498" y="383" type="line"/>
      <point x="498" y="461" type="line"/>
      <point x="62" y="461" type="line"/>
    </contour>
    <contour>
      <point x="62" y="191" type="line"/>
      <point x="498" y="191" type="line"/>
      <point x="498" y="269" type="line"/>
      <point x="62" y="269" type="line"/>
    </contour>
  </outline>
</glyph>
<glyph name="greater.telu" format="2">
  <advance width="559"/>
  <unicode hex="003E"/>
  <outline>
    <contour>
      <point x="65" y="69" type="line"/>
      <point x="494" y="304" type="line"/>
      <point x="494" y="349" type="line"/>
      <point x="65" y="585" type="line"/>
      <point x="65" y="498" type="line"/>
      <point x="377" y="326" type="line"/>
      <point x="65" y="156" type="line"/>
    </contour>
  </outline>
</glyph>
<glyph name="question.telu" format="2">
  <advance width="580"/>
  <unicode hex="003F"/>
  <outline>
    <contour>
      <point x="318" y="234" type="line"/>
      <point x="349" y="296" type="line"/>
      <point x="488" y="343"/>
      <point x="551" y="400"/>
      <point x="551" y="492" type="curve" smooth="yes"/>
      <point x="551" y="592"/>
      <point x="454" y="661"/>
      <point x="287" y="661" type="curve" smooth="yes"/>
      <point x="127" y="661"/>
      <point x="55" y="597"/>
      <point x="55" y="541" type="curve" smooth="yes"/>
      <point x="55" y="479"/>
      <point x="109" y="461"/>
      <point x="216" y="461" type="curve"/>
      <point x="216" y="550"/>
      <point x="240" y="593"/>
      <point x="292" y="593" type="curve" smooth="yes"/>
      <point x="327" y="593"/>
      <point x="350" y="565"/>
      <point x="350" y="506" type="curve" smooth="yes"/>
      <point x="350" y="428"/>
      <point x="315" y="365"/>
      <point x="218" y="323" type="curve"/>
      <point x="249" y="234" type="line"/>
    </contour>
    <contour>
      <point x="281" y="-9" type="curve" smooth="yes"/>
      <point x="330" y="-9"/>
      <point x="375" y="15"/>
      <point x="375" y="82" type="curve" smooth="yes"/>
      <point x="375" y="150"/>
      <point x="330" y="173"/>
      <point x="281" y="173" type="curve" smooth="yes"/>
      <point x="229" y="173"/>
      <point x="187" y="150"/>
      <point x="187" y="82" type="curve" smooth="yes"/>
      <point x="187" y="15"/>
      <point x="229" y="-9"/>
    </contour>
  </outline>
</glyph>
<glyph name="bracketleft.telu" format="2">
  <advance width="408"/>
  <unicode hex="005B"/>
  <outline>
    <contour>
      <point x="76" y="-361" type="line"/>
      <point x="368" y="-361" type="line"/>
      <point x="368" y="-300" type="line"/>
      <point x="320" y="-300" type="line" smooth="yes"/>
      <point x="275" y="-300"/>
      <point x="238" y="-291"/>
      <point x="238" y="-228" type="curve" smooth="yes"/>
      <point x="238" y="640" type="line" smooth="yes"/>
      <point x="238" y="703"/>
      <point x="275" y="712"/>
      <point x="320" y="712" type="curve" smooth="yes"/>
      <point x="368" y="712" type="line"/>
      <point x="368" y="773" type="line"/>
      <point x="76" y="773" type="line"/>
    </contour>
  </outline>
</glyph>
<glyph name="backslash.telu" format="2">
  <advance width="381"/>
  <unicode hex="005C"/>
  <outline>
    <contour>
      <point x="354" y="-361" type="line"/>
      <point x="108" y="773" type="line"/>
      <point x="27" y="773" type="line"/>
      <point x="273" y="-361" type="line"/>
    </contour>
  </outline>
</glyph>
<glyph name="bracketright.telu" format="2">
  <advance width="402"/>
  <unicode hex="005D"/>
  <outline>
    <contour>
      <point x="330" y="773" type="line"/>
      <point x="38" y="773" type="line"/>
      <point x="38" y="712" type="line"/>
      <point x="86" y="712" type="line" smooth="yes"/>
      <point x="131" y="712"/>
      <point x="168" y="703"/>
      <point x="168" y="640" type="curve" smooth="yes"/>
      <point x="168" y="-228" type="line" smooth="yes"/>
      <point x="168" y="-291"/>
      <point x="131" y="-300"/>
      <point x="86" y="-300" type="curve" smooth="yes"/>
      <point x="38" y="-300" type="line"/>
      <point x="38" y="-361" type="line"/>
      <point x="330" y="-361" type="line"/>
    </contour>
  </outline>
</glyph>
<glyph name="asciicircum.telu" format="2">
  <advance width="559"/>
  <unicode hex="005E"/>
  <outline>
    <contour>
      <point x="42" y="197" type="line"/>
      <point x="128" y="197" type="line"/>
      <point x="278" y="530" type="line"/>
      <point x="429" y="197" type="line"/>
      <point x="515" y="197" type="line"/>
      <point x="303" y="652" type="line"/>
      <point x="254" y="652" type="line"/>
    </contour>
  </outline>
</glyph>
<glyph name="braceleft.telu" format="2">
  <advance width="480"/>
  <unicode hex="007B"/>
  <outline>
    <contour>
      <point x="345" y="-361" type="curve" smooth="yes"/>
      <point x="440" y="-361" type="line"/>
      <point x="440" y="-289" type="line"/>
      <point x="386" y="-289" type="line" smooth="yes"/>
      <point x="331" y="-289"/>
      <point x="323" y="-256"/>
      <point x="323" y="-197" type="curve" smooth="yes"/>
      <point x="323" y="87" type="line" smooth="yes"/>
      <point x="323" y="143"/>
      <point x="290" y="177"/>
      <point x="214" y="201" type="curve"/>
      <point x="214" y="214" type="line"/>
      <point x="293" y="236"/>
      <point x="323" y="270"/>
      <point x="323" y="326" type="curve" smooth="yes"/>
      <point x="323" y="610" type="line" smooth="yes"/>
      <point x="323" y="668"/>
      <point x="331" y="701"/>
      <point x="386" y="701" type="curve" smooth="yes"/>
      <point x="440" y="701" type="line"/>
      <point x="440" y="773" type="line"/>
      <point x="345" y="773" type="line" smooth="yes"/>
      <point x="220" y="773"/>
      <point x="155" y="719"/>
      <point x="155" y="625" type="curve" smooth="yes"/>
      <point x="155" y="328" type="line" smooth="yes"/>
      <point x="155" y="258"/>
      <point x="104" y="246"/>
      <point x="40" y="244" type="curve"/>
      <point x="40" y="169" type="line"/>
      <point x="104" y="166"/>
      <point x="155" y="156"/>
      <point x="155" y="84" type="curve" smooth="yes"/>
      <point x="155" y="-210" type="line" smooth="yes"/>
      <point x="155" y="-303"/>
      <point x="220" y="-361"/>
    </contour>
  </outline>
</glyph>
<glyph name="bar.telu" format="2">
  <advance width="559"/>
  <unicode hex="007C"/>
  <outline>
    <contour>
      <point x="239" y="-361" type="line"/>
      <point x="320" y="-361" type="line"/>
      <point x="320" y="773" type="line"/>
      <point x="239" y="773" type="line"/>
    </contour>
  </outline>
</glyph>
<glyph name="braceright.telu" format="2">
  <advance width="480"/>
  <unicode hex="007D"/>
  <outline>
    <contour>
      <point x="135" y="773" type="curve" smooth="yes"/>
      <point x="40" y="773" type="line"/>
      <point x="40" y="701" type="line"/>
      <point x="94" y="701" type="line" smooth="yes"/>
      <point x="149" y="701"/>
      <point x="157" y="668"/>
      <point x="157" y="609" type="curve" smooth="yes"/>
      <point x="157" y="325" type="line" smooth="yes"/>
      <point x="157" y="269"/>
      <point x="190" y="235"/>
      <point x="266" y="211" type="curve"/>
      <point x="266" y="198" type="line"/>
      <point x="187" y="176"/>
      <point x="157" y="142"/>
      <point x="157" y="86" type="curve" smooth="yes"/>
      <point x="157" y="-198" type="line" smooth="yes"/>
      <point x="157" y="-256"/>
      <point x="149" y="-289"/>
      <point x="94" y="-289" type="curve" smooth="yes"/>
      <point x="40" y="-289" type="line"/>
      <point x="40" y="-361" type="line"/>
      <point x="135" y="-361" type="line" smooth="yes"/>
      <point x="260" y="-361"/>
      <point x="325" y="-307"/>
      <point x="325" y="-213" type="curve" smooth="yes"/>
      <point x="325" y="84" type="line" smooth="yes"/>
      <point x="325" y="154"/>
      <point x="376" y="166"/>
      <point x="440" y="168" type="curve"/>
      <point x="440" y="243" type="line"/>
      <point x="376" y="246"/>
      <point x="325" y="256"/>
      <point x="325" y="328" type="curve" smooth="yes"/>
      <point x="325" y="622" type="line" smooth="yes"/>
      <point x="325" y="715"/>
      <point x="260" y="773"/>
    </contour>
  </outline>
</glyph>
<glyph name="asciitilde.telu" format="2">
  <advance width="559"/>
  <unicode hex="007E"/>
  <outline>
    <contour>
      <point x="40" y="226" type="curve"/>
      <point x="123" y="226" type="line"/>
      <point x="123" y="312"/>
      <point x="144" y="342"/>
      <point x="177" y="342" type="curve" smooth="yes"/>
      <point x="196" y="342"/>
      <point x="208" y="333"/>
      <point x="251" y="292" type="curve" smooth="yes"/>
      <point x="304" y="241"/>
      <point x="332" y="226"/>
      <point x="390" y="226" type="curve" smooth="yes"/>
      <point x="488" y="226"/>
      <point x="515" y="292"/>
      <point x="518" y="425" type="curve"/>
      <point x="433" y="425" type="line"/>
      <point x="433" y="340"/>
      <point x="419" y="309"/>
      <point x="387" y="309" type="curve" smooth="yes"/>
      <point x="365" y="309"/>
      <point x="347" y="324"/>
      <point x="309" y="357" type="curve" smooth="yes"/>
      <point x="251" y="407"/>
      <point x="228" y="425"/>
      <point x="177" y="425" type="curve" smooth="yes"/>
      <point x="81" y="425"/>
      <point x="40" y="348"/>
    </contour>
  </outline>
</glyph>
<glyph name="multiply.telu" format="2">
  <advance width="559"/>
  <unicode hex="00D7"/>
  <outline>
    <contour>
      <point x="146" y="136" type="line"/>
      <point x="279" y="271" type="line"/>
      <point x="414" y="136" type="line"/>
      <point x="470" y="192" type="line"/>
      <point x="335" y="327" type="line"/>
      <point x="470" y="462" type="line"/>
      <point x="412" y="519" type="line"/>
      <point x="279" y="385" type="line"/>
      <point x="146" y="518" type="line"/>
      <point x="88" y="462" type="line"/>
      <point x="222" y="328" type="line"/>
      <point x="88" y="193" type="line"/>
    </contour>
  </outline>
</glyph>
<glyph name="divide.telu" format="2">
  <advance width="559"/>
  <unicode hex="00F7"/>
  <outline>
    <contour>
      <point x="65" y="286" type="line"/>
      <point x="494" y="286" type="line"/>
      <point x="494" y="366" type="line"/>
      <point x="65" y="366" type="line"/>
    </contour>
    <contour>
      <point x="280" y="72" type="curve" smooth="yes"/>
      <point x="313" y="72"/>
      <point x="339" y="89"/>
      <point x="339" y="137" type="curve" smooth="yes"/>
      <point x="339" y="186"/>
      <point x="313" y="202"/>
      <point x="280" y="202" type="curve" smooth="yes"/>
      <point x="246" y="202"/>
      <point x="221" y="186"/>
      <point x="221" y="137" type="curve" smooth="yes"/>
      <point x="221" y="89"/>
      <point x="246" y="72"/>
    </contour>
    <contour>
      <point x="280" y="450" type="curve" smooth="yes"/>
      <point x="313" y="450"/>
      <point x="339" y="468"/>
      <point x="339" y="516" type="curve" smooth="yes"/>
      <point x="339" y="565"/>
      <point x="313" y="581"/>
      <point x="280" y="581" type="curve" smooth="yes"/>
      <point x="246" y="581"/>
      <point x="221" y="565"/>
      <point x="221" y="516" type="curve" smooth="yes"/>
      <point x="221" y="468"/>
      <point x="246" y="450"/>
    </contour>
  </outline>
</glyph>
<glyph name="uni0951" format="2">
  <unicode hex="0951"/>
  <outline>
    <contour>
      <point x="-326" y="598" type="line"/>
      <point x="-246" y="598" type="line"/>
      <point x="-246" y="809" type="line"/>
      <point x="-326" y="809" type="line"/>
    </contour>
  </outline>
</glyph>
<glyph name="uni0952" format="2">
  <unicode hex="0952"/>
  <outline>
    <contour>
      <point x="-34" y="-183" type="line"/>
      <point x="-34" y="-109" type="line"/>
      <point x="-537" y="-109" type="line"/>
      <point x="-537" y="-183" type="line"/>
    </contour>
  </outline>
</glyph>
<glyph name="dandatelu" format="2">
  <advance width="352"/>
  <unicode hex="0964"/>
  <outline>
    <contour>
      <point x="173" y="-139" type="line"/>
      <point x="270" y="-139" type="line"/>
      <point x="270" y="651" type="line"/>
      <point x="173" y="651" type="line"/>
    </contour>
  </outline>
</glyph>
<glyph name="dbldandatelu" format="2">
  <advance width="552"/>
  <unicode hex="0965"/>
  <outline>
    <contour>
      <point x="173" y="-139" type="line"/>
      <point x="270" y="-139" type="line"/>
      <point x="270" y="651" type="line"/>
      <point x="173" y="651" type="line"/>
    </contour>
    <contour>
      <point x="373" y="-139" type="line"/>
      <point x="470" y="-139" type="line"/>
      <point x="470" y="651" type="line"/>
      <point x="373" y="651" type="line"/>
    </contour>
  </outline>
</glyph>
<glyph name="uni0C00" format="2">
  <unicode hex="0C00"/>
  <outline>
    <contour>
      <point x="-286" y="587" type="curve" smooth="yes"/>
      <point x="-182" y="587"/>
      <point x="-110" y="643"/>
      <point x="-110" y="752" type="curve" smooth="yes"/>
      <point x="-110" y="775"/>
      <point x="-113" y="798"/>
      <point x="-118" y="814" type="curve"/>
      <point x="-184" y="803" type="line"/>
      <point x="-181" y="793"/>
      <point x="-180" y="780"/>
      <point x="-180" y="771" type="curve" smooth="yes"/>
      <point x="-180" y="713"/>
      <point x="-216" y="681"/>
      <point x="-286" y="681" type="curve" smooth="yes"/>
      <point x="-358" y="681"/>
      <point x="-393" y="713"/>
      <point x="-393" y="770" type="curve" smooth="yes"/>
      <point x="-393" y="781"/>
      <point x="-392" y="792"/>
      <point x="-389" y="803" type="curve"/>
      <point x="-455" y="814" type="line"/>
      <point x="-460" y="798"/>
      <point x="-463" y="777"/>
      <point x="-463" y="751" type="curve" smooth="yes"/>
      <point x="-463" y="643"/>
      <point x="-391" y="587"/>
    </contour>
    <contour>
      <point x="-287" y="703" type="curve" smooth="yes"/>
      <point x="-245" y="703"/>
      <point x="-223" y="725"/>
      <point x="-223" y="758" type="curve" smooth="yes"/>
      <point x="-223" y="788"/>
      <point x="-246" y="810"/>
      <point x="-287" y="810" type="curve" smooth="yes"/>
      <point x="-329" y="810"/>
      <point x="-350" y="788"/>
      <point x="-350" y="758" type="curve" smooth="yes"/>
      <point x="-350" y="725"/>
      <point x="-329" y="703"/>
    </contour>
  </outline>
</glyph>
<glyph name="candrabindutelu" format="2">
  <advance width="313"/>
  <unicode hex="0C01"/>
  <outline>
    <contour>
      <point x="29" y="213" type="curve" smooth="yes"/>
      <point x="29" y="73"/>
      <point x="119" y="-12"/>
      <point x="269" y="-12" type="curve" smooth="yes"/>
      <point x="284" y="-12" type="line"/>
      <point x="284" y="191" type="line"/>
      <point x="173" y="191"/>
      <point x="127" y="216"/>
      <point x="127" y="278" type="curve" smooth="yes"/>
      <point x="127" y="347"/>
      <point x="180" y="381"/>
      <point x="279" y="381" type="curve"/>
      <point x="289" y="441" type="line"/>
      <point x="269" y="441" type="line" smooth="yes"/>
      <point x="125" y="441"/>
      <point x="29" y="353"/>
    </contour>
  </outline>
</glyph>
<glyph name="anusvaratelu" format="2">
  <advance width="513"/>
  <unicode hex="0C02"/>
  <outline>
    <contour>
      <point x="29" y="213" type="curve" smooth="yes"/>
      <point x="29" y="79"/>
      <point x="108" y="-12"/>
      <point x="256" y="-12" type="curve" smooth="yes"/>
      <point x="402" y="-12"/>
      <point x="484" y="76"/>
      <point x="484" y="213" type="curve" smooth="yes"/>
      <point x="484" y="343"/>
      <point x="401" y="441"/>
      <point x="257" y="441" type="curve" smooth="yes"/>
      <point x="113" y="441"/>
      <point x="29" y="341"/>
    </contour>
    <contour>
      <point x="127" y="278" type="curve" smooth="yes"/>
      <point x="127" y="343"/>
      <point x="176" y="383"/>
      <point x="257" y="383" type="curve" smooth="yes"/>
      <point x="340" y="383"/>
      <point x="386" y="343"/>
      <point x="386" y="278" type="curve" smooth="yes"/>
      <point x="386" y="223"/>
      <point x="343" y="188"/>
      <point x="256" y="188" type="curve" smooth="yes"/>
      <point x="169" y="188"/>
      <point x="127" y="225"/>
    </contour>
  </outline>
</glyph>
<glyph name="visargatelu" format="2">
  <advance width="304"/>
  <unicode hex="0C03"/>
  <outline>
    <contour>
      <point x="152" y="260" type="curve" smooth="yes"/>
      <point x="230" y="260"/>
      <point x="280" y="303"/>
      <point x="280" y="386" type="curve" smooth="yes"/>
      <point x="280" y="464"/>
      <point x="232" y="511"/>
      <point x="152" y="511" type="curve" smooth="yes"/>
      <point x="74" y="511"/>
      <point x="24" y="464"/>
      <point x="24" y="386" type="curve" smooth="yes"/>
      <point x="24" y="304"/>
      <point x="74" y="260"/>
    </contour>
    <contour>
      <point x="150" y="378" type="curve" smooth="yes"/>
      <point x="110" y="378"/>
      <point x="92" y="391"/>
      <point x="92" y="419" type="curve" smooth="yes"/>
      <point x="92" y="448"/>
      <point x="112" y="463"/>
      <point x="151" y="463" type="curve" smooth="yes"/>
      <point x="193" y="463"/>
      <point x="212" y="447"/>
      <point x="212" y="419" type="curve" smooth="yes"/>
      <point x="212" y="390"/>
      <point x="191" y="378"/>
    </contour>
    <contour>
      <point x="152" y="-12" type="curve" smooth="yes"/>
      <point x="230" y="-12"/>
      <point x="280" y="31"/>
      <point x="280" y="114" type="curve" smooth="yes"/>
      <point x="280" y="192"/>
      <point x="232" y="239"/>
      <point x="152" y="239" type="curve" smooth="yes"/>
      <point x="74" y="239"/>
      <point x="24" y="192"/>
      <point x="24" y="114" type="curve" smooth="yes"/>
      <point x="24" y="32"/>
      <point x="74" y="-12"/>
    </contour>
    <contour>
      <point x="150" y="106" type="curve" smooth="yes"/>
      <point x="110" y="106"/>
      <point x="92" y="119"/>
      <point x="92" y="147" type="curve" smooth="yes"/>
      <point x="92" y="176"/>
      <point x="112" y="191"/>
      <point x="151" y="191" type="curve" smooth="yes"/>
      <point x="193" y="191"/>
      <point x="212" y="175"/>
      <point x="212" y="147" type="curve" smooth="yes"/>
      <point x="212" y="118"/>
      <point x="191" y="106"/>
    </contour>
  </outline>
</glyph>
<glyph name="uni0C04" format="2">
  <unicode hex="0C04"/>
  <outline>
    <contour>
      <point x="-421" y="712" type="curve" smooth="yes"/>
      <point x="-421" y="636"/>
      <point x="-375" y="583"/>
      <point x="-287" y="583" type="curve" smooth="yes"/>
      <point x="-198" y="583"/>
      <point x="-152" y="636"/>
      <point x="-152" y="713" type="curve" smooth="yes"/>
      <point x="-152" y="781"/>
      <point x="-201" y="836"/>
      <point x="-286" y="836" type="curve" smooth="yes"/>
      <point x="-373" y="836"/>
      <point x="-421" y="781"/>
    </contour>
    <contour>
      <point x="-347" y="726" type="curve" smooth="yes"/>
      <point x="-347" y="759"/>
      <point x="-325" y="784"/>
      <point x="-287" y="784" type="curve" smooth="yes"/>
      <point x="-248" y="784"/>
      <point x="-226" y="759"/>
      <point x="-226" y="726" type="curve" smooth="yes"/>
      <point x="-226" y="691"/>
      <point x="-246" y="671"/>
      <point x="-287" y="671" type="curve" smooth="yes"/>
      <point x="-327" y="671"/>
      <point x="-347" y="691"/>
    </contour>
  </outline>
</glyph>
<glyph name="atelu" format="2">
  <advance width="796"/>
  <unicode hex="0C05"/>
  <outline>
    <contour>
      <point x="392" y="-12" type="curve" smooth="yes"/>
      <point x="666" y="-12"/>
      <point x="767" y="89"/>
      <point x="767" y="293" type="curve" smooth="yes"/>
      <point x="767" y="407"/>
      <point x="703" y="511"/>
      <point x="580" y="511" type="curve" smooth="yes"/>
      <point x="483" y="511"/>
      <point x="446" y="458"/>
      <point x="446" y="402" type="curve" smooth="yes"/>
      <point x="446" y="335"/>
      <point x="503" y="283"/>
      <point x="565" y="261" type="curve"/>
      <point x="549" y="300" type="line"/>
      <point x="317" y="300" type="line"/>
      <point x="317" y="236" type="line"/>
      <point x="604" y="236" type="line"/>
      <point x="621" y="273" type="line"/>
      <point x="579" y="298"/>
      <point x="554" y="319"/>
      <point x="554" y="357" type="curve" smooth="yes"/>
      <point x="554" y="398"/>
      <point x="583" y="414"/>
      <point x="614" y="414" type="curve" smooth="yes"/>
      <point x="652" y="414"/>
      <point x="693" y="385"/>
      <point x="693" y="321" type="curve" smooth="yes"/>
      <point x="693" y="223"/>
      <point x="633" y="185"/>
      <point x="392" y="185" type="curve" smooth="yes"/>
      <point x="187" y="185"/>
      <point x="103" y="226"/>
      <point x="103" y="333" type="curve" smooth="yes"/>
      <point x="103" y="384"/>
      <point x="127" y="421"/>
      <point x="162" y="436" type="curve"/>
      <point x="135" y="440" type="line"/>
      <point x="124" y="419"/>
      <point x="114" y="397"/>
      <point x="114" y="371" type="curve" smooth="yes"/>
      <point x="114" y="304"/>
      <point x="159" y="261"/>
      <point x="239" y="261" type="curve" smooth="yes"/>
      <point x="312" y="261"/>
      <point x="371" y="304"/>
      <point x="371" y="387" type="curve" smooth="yes"/>
      <point x="371" y="459"/>
      <point x="324" y="511"/>
      <point x="233" y="511" type="curve" smooth="yes"/>
      <point x="119" y="511"/>
      <point x="29" y="425"/>
      <point x="29" y="281" type="curve" smooth="yes"/>
      <point x="29" y="75"/>
      <point x="164" y="-12"/>
    </contour>
    <contour>
      <point x="284" y="376" type="curve" smooth="yes"/>
      <point x="284" y="329"/>
      <point x="258" y="319"/>
      <point x="231" y="319" type="curve" smooth="yes"/>
      <point x="201" y="319"/>
      <point x="178" y="337"/>
      <point x="178" y="376" type="curve" smooth="yes"/>
      <point x="178" y="409"/>
      <point x="199" y="430"/>
      <point x="231" y="430" type="curve" smooth="yes"/>
      <point x="269" y="430"/>
      <point x="284" y="406"/>
    </contour>
  </outline>
</glyph>
<glyph name="aatelu" format="2">
  <advance width="772"/>
  <unicode hex="0C06"/>
  <outline>
    <contour>
      <point x="407" y="-12" type="curve" smooth="yes"/>
      <point x="610" y="-12"/>
      <point x="720" y="54"/>
      <point x="720" y="179" type="curve" smooth="yes"/>
      <point x="720" y="236"/>
      <point x="686" y="274"/>
      <point x="640" y="296" type="curve"/>
      <point x="558" y="316"/>
      <point x="530" y="346"/>
      <point x="530" y="381" type="curve" smooth="yes"/>
      <point x="530" y="409"/>
      <point x="552" y="430"/>
      <point x="597" y="430" type="curve" smooth="yes"/>
      <point x="649" y="430"/>
      <point x="671" y="401"/>
      <point x="671" y="368" type="curve" smooth="yes"/>
      <point x="671" y="327"/>
      <point x="641" y="300"/>
      <point x="577" y="300" type="curve" smooth="yes"/>
      <point x="317" y="300" type="line"/>
      <point x="317" y="236" type="line"/>
      <point x="533" y="236" type="line" smooth="yes"/>
      <point x="639" y="236"/>
      <point x="749" y="271"/>
      <point x="749" y="384" type="curve" smooth="yes"/>
      <point x="749" y="451"/>
      <point x="700" y="511"/>
      <point x="597" y="511" type="curve" smooth="yes"/>
      <point x="497" y="511"/>
      <point x="453" y="460"/>
      <point x="453" y="401" type="curve" smooth="yes"/>
      <point x="453" y="331"/>
      <point x="511" y="297"/>
      <point x="582" y="271" type="curve"/>
      <point x="605" y="261"/>
      <point x="614" y="248"/>
      <point x="614" y="231" type="curve" smooth="yes"/>
      <point x="614" y="201"/>
      <point x="571" y="185"/>
      <point x="406" y="185" type="curve" smooth="yes"/>
      <point x="187" y="185"/>
      <point x="103" y="226"/>
      <point x="103" y="333" type="curve" smooth="yes"/>
      <point x="103" y="384"/>
      <point x="127" y="421"/>
      <point x="162" y="436" type="curve"/>
      <point x="135" y="440" type="line"/>
      <point x="124" y="419"/>
      <point x="114" y="397"/>
      <point x="114" y="371" type="curve" smooth="yes"/>
      <point x="114" y="304"/>
      <point x="159" y="261"/>
      <point x="239" y="261" type="curve" smooth="yes"/>
      <point x="312" y="261"/>
      <point x="371" y="304"/>
      <point x="371" y="387" type="curve" smooth="yes"/>
      <point x="371" y="459"/>
      <point x="324" y="511"/>
      <point x="233" y="511" type="curve" smooth="yes"/>
      <point x="119" y="511"/>
      <point x="29" y="425"/>
      <point x="29" y="281" type="curve" smooth="yes"/>
      <point x="29" y="75"/>
      <point x="164" y="-12"/>
    </contour>
    <contour>
      <point x="284" y="376" type="curve" smooth="yes"/>
      <point x="284" y="329"/>
      <point x="258" y="319"/>
      <point x="231" y="319" type="curve" smooth="yes"/>
      <point x="201" y="319"/>
      <point x="178" y="337"/>
      <point x="178" y="376" type="curve" smooth="yes"/>
      <point x="178" y="409"/>
      <point x="199" y="430"/>
      <point x="231" y="430" type="curve" smooth="yes"/>
      <point x="269" y="430"/>
      <point x="284" y="406"/>
    </contour>
  </outline>
</glyph>
<glyph name="iitelu" format="2">
  <advance width="983"/>
  <unicode hex="0C08"/>
  <outline>
    <contour>
      <point x="61" y="248" type="curve" smooth="yes"/>
      <point x="61" y="93"/>
      <point x="154" y="-12"/>
      <point x="331" y="-12" type="curve" smooth="yes"/>
      <point x="507" y="-12"/>
      <point x="603" y="92"/>
      <point x="603" y="249" type="curve" smooth="yes"/>
      <point x="603" y="395"/>
      <point x="510" y="511"/>
      <point x="335" y="511" type="curve" smooth="yes"/>
      <point x="157" y="511"/>
      <point x="61" y="393"/>
    </contour>
    <contour>
      <point x="167" y="317" type="curve" smooth="yes"/>
      <point x="167" y="396"/>
      <point x="226" y="454"/>
      <point x="335" y="454" type="curve" smooth="yes"/>
      <point x="446" y="454"/>
      <point x="497" y="393"/>
      <point x="497" y="317" type="curve" smooth="yes"/>
      <point x="497" y="245"/>
      <point x="446" y="202"/>
      <point x="331" y="202" type="curve" smooth="yes"/>
      <point x="217" y="202"/>
      <point x="167" y="247"/>
    </contour>
    <contour>
      <point x="771" y="336" type="curve" smooth="yes"/>
      <point x="18" y="336" type="line"/>
      <point x="18" y="279" type="line"/>
      <point x="725" y="279" type="line"/>
      <point x="723" y="293" type="line"/>
      <point x="691" y="270"/>
      <point x="667" y="237"/>
      <point x="667" y="178" type="curve" smooth="yes"/>
      <point x="667" y="100"/>
      <point x="713" y="42"/>
      <point x="812" y="42" type="curve" smooth="yes"/>
      <point x="907" y="42"/>
      <point x="962" y="90"/>
      <point x="962" y="184" type="curve" smooth="yes"/>
      <point x="962" y="301"/>
      <point x="876" y="336"/>
    </contour>
    <contour>
      <point x="879" y="228" type="curve" smooth="yes"/>
      <point x="879" y="195"/>
      <point x="853" y="182"/>
      <point x="813" y="182" type="curve" smooth="yes"/>
      <point x="776" y="182"/>
      <point x="750" y="196"/>
      <point x="750" y="228" type="curve" smooth="yes"/>
      <point x="750" y="261"/>
      <point x="772" y="279"/>
      <point x="814" y="279" type="curve" smooth="yes"/>
      <point x="857" y="279"/>
      <point x="879" y="259"/>
    </contour>
    <contour>
      <point x="816" y="507" type="curve" smooth="yes"/>
      <point x="729" y="507"/>
      <point x="685" y="441"/>
      <point x="660" y="384" type="curve"/>
      <point x="715" y="361" type="line"/>
      <point x="743" y="400"/>
      <point x="771" y="419"/>
      <point x="806" y="419" type="curve" smooth="yes"/>
      <point x="832" y="419"/>
      <point x="854" y="407"/>
      <point x="854" y="380" type="curve" smooth="yes"/>
      <point x="854" y="352"/>
      <point x="832" y="335"/>
      <point x="808" y="324" type="curve"/>
      <point x="862" y="292" type="line"/>
      <point x="900" y="314"/>
      <point x="934" y="351"/>
      <point x="934" y="399" type="curve" smooth="yes"/>
      <point x="934" y="470"/>
      <point x="883" y="507"/>
    </contour>
    <component base="hattelu" xOffset="208"/>
  </outline>
</glyph>
<glyph name="utelu" format="2">
  <advance width="836"/>
  <unicode hex="0C09"/>
  <outline>
    <contour>
      <point x="568" y="382" type="curve" smooth="yes"/>
      <point x="481" y="382"/>
      <point x="429" y="338"/>
      <point x="429" y="282" type="curve" smooth="yes"/>
      <point x="429" y="224"/>
      <point x="474" y="185"/>
      <point x="554" y="185" type="curve" smooth="yes"/>
      <point x="630" y="185"/>
      <point x="659" y="231"/>
      <point x="672" y="289" type="curve"/>
      <point x="656" y="260" type="line"/>
      <point x="652" y="198"/>
      <point x="626" y="157"/>
      <point x="539" y="157" type="curve" smooth="yes"/>
      <point x="449" y="157"/>
      <point x="410" y="204"/>
      <point x="394" y="265" type="curve"/>
      <point x="332" y="265" type="line"/>
      <point x="316" y="234"/>
      <point x="295" y="204"/>
      <point x="235" y="204" type="curve" smooth="yes"/>
      <point x="177" y="204"/>
      <point x="150" y="234"/>
      <point x="150" y="286" type="curve" smooth="yes"/>
      <point x="150" y="369"/>
      <point x="214" y="454"/>
      <point x="387" y="454" type="curve" smooth="yes"/>
      <point x="481" y="454"/>
      <point x="540" y="431"/>
      <point x="612" y="386" type="curve"/>
      <point x="655" y="441" type="line"/>
      <point x="578" y="491"/>
      <point x="490" y="511"/>
      <point x="387" y="511" type="curve" smooth="yes"/>
      <point x="179" y="511"/>
      <point x="44" y="395"/>
      <point x="44" y="205" type="curve" smooth="yes"/>
      <point x="44" y="73"/>
      <point x="98" y="-12"/>
      <point x="210" y="-12" type="curve" smooth="yes"/>
      <point x="295" y="-12"/>
      <point x="351" y="40"/>
      <point x="380" y="153" type="curve"/>
      <point x="345" y="156" type="line"/>
      <point x="374" y="55"/>
      <point x="439" y="-13"/>
      <point x="550" y="-13" type="curve" smooth="yes"/>
      <point x="663" y="-13"/>
      <point x="722" y="73"/>
      <point x="722" y="194" type="curve" smooth="yes"/>
      <point x="722" y="333"/>
      <point x="655" y="382"/>
    </contour>
    <contour>
      <point x="568" y="243" type="curve" smooth="yes"/>
      <point x="537" y="243"/>
      <point x="515" y="254"/>
      <point x="515" y="286" type="curve" smooth="yes"/>
      <point x="515" y="314"/>
      <point x="539" y="331"/>
      <point x="569" y="331" type="curve" smooth="yes"/>
      <point x="605" y="331"/>
      <point x="623" y="310"/>
      <point x="623" y="285" type="curve" smooth="yes"/>
      <point x="623" y="255"/>
      <point x="600" y="243"/>
    </contour>
    <contour>
      <point x="468" y="644" type="line"/>
      <point x="310" y="644" type="line"/>
      <point x="347" y="483" type="line"/>
      <point x="432" y="483" type="line"/>
    </contour>
    <contour>
      <point x="18" y="384" type="line"/>
      <point x="18" y="327" type="line"/>
      <point x="504" y="327" type="line"/>
      <point x="566" y="346" type="line"/>
      <point x="639" y="327" type="line"/>
      <point x="819" y="327" type="line"/>
      <point x="819" y="384" type="line"/>
    </contour>
  </outline>
</glyph>
<glyph name="uutelu" format="2">
  <advance width="1096"/>
  <unicode hex="0C0A"/>
  <outline>
    <contour>
      <point x="568" y="382" type="curve" smooth="yes"/>
      <point x="481" y="382"/>
      <point x="429" y="339"/>
      <point x="429" y="283" type="curve" smooth="yes"/>
      <point x="429" y="224"/>
      <point x="474" y="185"/>
      <point x="554" y="185" type="curve" smooth="yes"/>
      <point x="630" y="185"/>
      <point x="659" y="230"/>
      <point x="672" y="289" type="curve"/>
      <point x="656" y="260" type="line"/>
      <point x="652" y="198"/>
      <point x="626" y="157"/>
      <point x="539" y="157" type="curve" smooth="yes"/>
      <point x="449" y="157"/>
      <point x="410" y="204"/>
      <point x="394" y="265" type="curve"/>
      <point x="332" y="265" type="line"/>
      <point x="316" y="234"/>
      <point x="295" y="204"/>
      <point x="235" y="204" type="curve" smooth="yes"/>
      <point x="177" y="204"/>
      <point x="150" y="234"/>
      <point x="150" y="286" type="curve" smooth="yes"/>
      <point x="150" y="369"/>
      <point x="214" y="454"/>
      <point x="387" y="454" type="curve" smooth="yes"/>
      <point x="481" y="454"/>
      <point x="540" y="431"/>
      <point x="612" y="386" type="curve"/>
      <point x="655" y="441" type="line"/>
      <point x="578" y="491"/>
      <point x="490" y="511"/>
      <point x="387" y="511" type="curve" smooth="yes"/>
      <point x="179" y="511"/>
      <point x="44" y="395"/>
      <point x="44" y="205" type="curve" smooth="yes"/>
      <point x="44" y="73"/>
      <point x="98" y="-12"/>
      <point x="210" y="-12" type="curve" smooth="yes"/>
      <point x="295" y="-12"/>
      <point x="351" y="40"/>
      <point x="380" y="153" type="curve"/>
      <point x="345" y="156" type="line"/>
      <point x="374" y="55"/>
      <point x="439" y="-13"/>
      <point x="550" y="-13" type="curve" smooth="yes"/>
      <point x="663" y="-13"/>
      <point x="722" y="73"/>
      <point x="722" y="193" type="curve" smooth="yes"/>
      <point x="722" y="333"/>
      <point x="655" y="382"/>
    </contour>
    <contour>
      <point x="568" y="243" type="curve" smooth="yes"/>
      <point x="539" y="243"/>
      <point x="515" y="254"/>
      <point x="515" y="286" type="curve" smooth="yes"/>
      <point x="515" y="314"/>
      <point x="539" y="331"/>
      <point x="568" y="331" type="curve" smooth="yes"/>
      <point x="605" y="331"/>
      <point x="623" y="310"/>
      <point x="623" y="285" type="curve" smooth="yes"/>
      <point x="623" y="255"/>
      <point x="599" y="243"/>
    </contour>
    <contour>
      <point x="365" y="644" type="line"/>
      <point x="227" y="644" type="line"/>
      <point x="254" y="483" type="line"/>
      <point x="339" y="483" type="line"/>
    </contour>
    <contour>
      <point x="551" y="644" type="line"/>
      <point x="413" y="644" type="line"/>
      <point x="440" y="483" type="line"/>
      <point x="525" y="483" type="line"/>
    </contour>
    <contour>
      <point x="888" y="384" type="curve" smooth="yes"/>
      <point x="18" y="384" type="line"/>
      <point x="18" y="327" type="line"/>
      <point x="488" y="327" type="line"/>
      <point x="576" y="339" type="line"/>
      <point x="659" y="327" type="line"/>
      <point x="842" y="327" type="line"/>
      <point x="840" y="341" type="line"/>
      <point x="808" y="318"/>
      <point x="784" y="285"/>
      <point x="784" y="226" type="curve" smooth="yes"/>
      <point x="784" y="148"/>
      <point x="830" y="90"/>
      <point x="929" y="90" type="curve" smooth="yes"/>
      <point x="1024" y="90"/>
      <point x="1079" y="138"/>
      <point x="1079" y="232" type="curve" smooth="yes"/>
      <point x="1079" y="349"/>
      <point x="993" y="384"/>
    </contour>
    <contour>
      <point x="993" y="276" type="curve" smooth="yes"/>
      <point x="993" y="243"/>
      <point x="967" y="230"/>
      <point x="930" y="230" type="curve" smooth="yes"/>
      <point x="896" y="230"/>
      <point x="870" y="244"/>
      <point x="870" y="276" type="curve" smooth="yes"/>
      <point x="870" y="309"/>
      <point x="892" y="327"/>
      <point x="931" y="327" type="curve" smooth="yes"/>
      <point x="971" y="327"/>
      <point x="993" y="307"/>
    </contour>
    <contour>
      <point x="933" y="555" type="curve" smooth="yes"/>
      <point x="846" y="555"/>
      <point x="802" y="489"/>
      <point x="777" y="432" type="curve"/>
      <point x="834" y="408" type="line"/>
      <point x="862" y="447"/>
      <point x="888" y="465"/>
      <point x="923" y="465" type="curve" smooth="yes"/>
      <point x="949" y="465"/>
      <point x="970" y="454"/>
      <point x="970" y="427" type="curve" smooth="yes"/>
      <point x="970" y="399"/>
      <point x="949" y="383"/>
      <point x="925" y="372" type="curve"/>
      <point x="979" y="340" type="line"/>
      <point x="1017" y="362"/>
      <point x="1051" y="399"/>
      <point x="1051" y="447" type="curve" smooth="yes"/>
      <point x="1051" y="518"/>
      <point x="1000" y="555"/>
    </contour>
  </outline>
</glyph>
<glyph name="lvocalictelu" format="2">
  <advance width="809"/>
  <unicode hex="0C0C"/>
  <outline>
    <contour>
      <point x="508" y="-143" type="curve" smooth="yes"/>
      <point x="684" y="-143"/>
      <point x="775" y="29"/>
      <point x="775" y="199" type="curve" smooth="yes"/>
      <point x="775" y="361"/>
      <point x="708" y="457"/>
      <point x="620" y="512" type="curve"/>
      <point x="560" y="436" type="line"/>
      <point x="641" y="393"/>
      <point x="705" y="338"/>
      <point x="705" y="220" type="curve" smooth="yes"/>
      <point x="705" y="103"/>
      <point x="632" y="39"/>
      <point x="531" y="39" type="curve" smooth="yes"/>
      <point x="463" y="39"/>
      <point x="432" y="63"/>
      <point x="432" y="105" type="curve" smooth="yes"/>
      <point x="432" y="135"/>
      <point x="441" y="163"/>
      <point x="486" y="225" type="curve" smooth="yes"/>
      <point x="531" y="288"/>
      <point x="555" y="333"/>
      <point x="555" y="392" type="curve" smooth="yes"/>
      <point x="555" y="460"/>
      <point x="513" y="511"/>
      <point x="433" y="511" type="curve" smooth="yes"/>
      <point x="339" y="511"/>
      <point x="281" y="436"/>
      <point x="258" y="351" type="curve"/>
      <point x="304" y="352" type="line"/>
      <point x="285" y="465"/>
      <point x="225" y="511"/>
      <point x="153" y="511" type="curve" smooth="yes"/>
      <point x="79" y="511"/>
      <point x="22" y="470"/>
      <point x="22" y="384" type="curve" smooth="yes"/>
      <point x="22" y="341"/>
      <point x="33" y="310"/>
      <point x="47" y="274" type="curve"/>
      <point x="113" y="290" type="line"/>
      <point x="106" y="304"/>
      <point x="99" y="322"/>
      <point x="99" y="342" type="curve" smooth="yes"/>
      <point x="99" y="377"/>
      <point x="125" y="391"/>
      <point x="157" y="391" type="curve" smooth="yes"/>
      <point x="200" y="391"/>
      <point x="232" y="370"/>
      <point x="254" y="310" type="curve"/>
      <point x="308" y="310" type="line"/>
      <point x="324" y="357"/>
      <point x="356" y="391"/>
      <point x="401" y="391" type="curve" smooth="yes"/>
      <point x="436" y="391"/>
      <point x="456" y="376"/>
      <point x="456" y="338" type="curve" smooth="yes"/>
      <point x="456" y="312"/>
      <point x="445" y="284"/>
      <point x="413" y="238" type="curve" smooth="yes"/>
      <point x="349" y="147"/>
      <point x="321" y="103"/>
      <point x="321" y="27" type="curve" smooth="yes"/>
      <point x="321" y="-77"/>
      <point x="385" y="-143"/>
    </contour>
  </outline>
</glyph>
<glyph name="etelu" format="2">
  <advance width="695"/>
  <unicode hex="0C0E"/>
  <outline>
    <contour>
      <point x="338" y="161" type="curve" smooth="yes"/>
      <point x="338" y="265"/>
      <point x="275" y="326"/>
      <point x="180" y="326" type="curve" smooth="yes"/>
      <point x="86" y="326"/>
      <point x="23" y="263"/>
      <point x="23" y="161" type="curve" smooth="yes"/>
      <point x="23" y="49"/>
      <point x="92" y="-12"/>
      <point x="181" y="-12" type="curve" smooth="yes"/>
      <point x="262" y="-12"/>
      <point x="338" y="43"/>
    </contour>
    <contour>
      <point x="111" y="221" type="curve" smooth="yes"/>
      <point x="111" y="252"/>
      <point x="136" y="271"/>
      <point x="182" y="271" type="curve" smooth="yes"/>
      <point x="230" y="271"/>
      <point x="255" y="251"/>
      <point x="255" y="220" type="curve" smooth="yes"/>
      <point x="255" y="188"/>
      <point x="229" y="176"/>
      <point x="181" y="176" type="curve" smooth="yes"/>
      <point x="132" y="176"/>
      <point x="111" y="192"/>
    </contour>
    <contour>
      <point x="285" y="288" type="curve"/>
      <point x="306" y="139" type="line"/>
      <point x="360" y="46"/>
      <point x="400" y="-12"/>
      <point x="495" y="-12" type="curve" smooth="yes"/>
      <point x="609" y="-12"/>
      <point x="664" y="84"/>
      <point x="664" y="246" type="curve" smooth="yes"/>
      <point x="664" y="508"/>
      <point x="498" y="707"/>
      <point x="252" y="716" type="curve"/>
      <point x="245" y="601" type="line"/>
      <point x="466" y="590"/>
      <point x="587" y="462"/>
      <point x="587" y="316" type="curve" smooth="yes"/>
      <point x="587" y="235"/>
      <point x="549" y="204"/>
      <point x="469" y="204" type="curve" smooth="yes"/>
      <point x="409" y="204"/>
      <point x="351" y="228"/>
    </contour>
  </outline>
</glyph>
<glyph name="eetelu" format="2">
  <advance width="695"/>
  <unicode hex="0C0F"/>
  <outline>
    <contour>
      <point x="338" y="161" type="curve" smooth="yes"/>
      <point x="338" y="265"/>
      <point x="275" y="326"/>
      <point x="180" y="326" type="curve" smooth="yes"/>
      <point x="86" y="326"/>
      <point x="23" y="263"/>
      <point x="23" y="161" type="curve" smooth="yes"/>
      <point x="23" y="49"/>
      <point x="92" y="-12"/>
      <point x="181" y="-12" type="curve" smooth="yes"/>
      <point x="262" y="-12"/>
      <point x="338" y="43"/>
    </contour>
    <contour>
      <point x="111" y="221" type="curve" smooth="yes"/>
      <point x="111" y="252"/>
      <point x="136" y="271"/>
      <point x="182" y="271" type="curve" smooth="yes"/>
      <point x="230" y="271"/>
      <point x="255" y="251"/>
      <point x="255" y="220" type="curve" smooth="yes"/>
      <point x="255" y="188"/>
      <point x="229" y="176"/>
      <point x="181" y="176" type="curve" smooth="yes"/>
      <point x="132" y="176"/>
      <point x="111" y="192"/>
    </contour>
    <contour>
      <point x="285" y="288" type="curve"/>
      <point x="306" y="139" type="line"/>
      <point x="360" y="46"/>
      <point x="400" y="-12"/>
      <point x="495" y="-12" type="curve" smooth="yes"/>
      <point x="609" y="-12"/>
      <point x="664" y="84"/>
      <point x="664" y="246" type="curve" smooth="yes"/>
      <point x="664" y="497"/>
      <point x="511" y="691"/>
      <point x="288" y="713" type="curve"/>
      <point x="275" y="598" type="line"/>
      <point x="475" y="581"/>
      <point x="587" y="457"/>
      <point x="587" y="316" type="curve" smooth="yes"/>
      <point x="587" y="235"/>
      <point x="549" y="204"/>
      <point x="469" y="204" type="curve" smooth="yes"/>
      <point x="409" y="204"/>
      <point x="351" y="228"/>
    </contour>
    <contour>
      <point x="115" y="701" type="curve" smooth="yes"/>
      <point x="115" y="622"/>
      <point x="158" y="560"/>
      <point x="212" y="499" type="curve"/>
      <point x="269" y="521" type="line"/>
      <point x="239" y="584"/>
      <point x="223" y="628"/>
      <point x="223" y="683" type="curve" smooth="yes"/>
      <point x="223" y="738"/>
      <point x="251" y="760"/>
      <point x="282" y="760" type="curve" smooth="yes"/>
      <point x="299" y="760"/>
      <point x="312" y="758"/>
      <point x="326" y="753" type="curve"/>
      <point x="347" y="819" type="line"/>
      <point x="324" y="830"/>
      <point x="291" y="839"/>
      <point x="253" y="839" type="curve" smooth="yes"/>
      <point x="161" y="839"/>
      <point x="115" y="780"/>
    </contour>
  </outline>
</glyph>
<glyph name="aitelu" format="2">
  <advance width="709"/>
  <unicode hex="0C10"/>
  <outline>
    <contour>
      <point x="345" y="161" type="curve" smooth="yes"/>
      <point x="345" y="265"/>
      <point x="282" y="326"/>
      <point x="187" y="326" type="curve" smooth="yes"/>
      <point x="93" y="326"/>
      <point x="30" y="263"/>
      <point x="30" y="161" type="curve" smooth="yes"/>
      <point x="30" y="49"/>
      <point x="99" y="-12"/>
      <point x="188" y="-12" type="curve" smooth="yes"/>
      <point x="269" y="-12"/>
      <point x="345" y="43"/>
    </contour>
    <contour>
      <point x="118" y="221" type="curve" smooth="yes"/>
      <point x="118" y="252"/>
      <point x="143" y="271"/>
      <point x="189" y="271" type="curve" smooth="yes"/>
      <point x="237" y="271"/>
      <point x="262" y="251"/>
      <point x="262" y="220" type="curve" smooth="yes"/>
      <point x="262" y="186"/>
      <point x="236" y="174"/>
      <point x="188" y="174" type="curve" smooth="yes"/>
      <point x="139" y="174"/>
      <point x="118" y="190"/>
    </contour>
    <contour>
      <point x="509" y="-12" type="curve" smooth="yes"/>
      <point x="621" y="-12"/>
      <point x="676" y="85"/>
      <point x="676" y="254" type="curve" smooth="yes"/>
      <point x="676" y="431"/>
      <point x="606" y="511"/>
      <point x="497" y="511" type="curve" smooth="yes"/>
      <point x="422" y="511"/>
      <point x="371" y="473"/>
      <point x="333" y="412" type="curve"/>
      <point x="352" y="411" type="line"/>
      <point x="314" y="469"/>
      <point x="269" y="511"/>
      <point x="183" y="511" type="curve" smooth="yes"/>
      <point x="78" y="511"/>
      <point x="33" y="455"/>
      <point x="33" y="381" type="curve" smooth="yes"/>
      <point x="33" y="357"/>
      <point x="37" y="337"/>
      <point x="42" y="319" type="curve"/>
      <point x="111" y="331" type="line"/>
      <point x="110" y="335"/>
      <point x="109" y="339"/>
      <point x="109" y="344" type="curve" smooth="yes"/>
      <point x="109" y="373"/>
      <point x="131" y="391"/>
      <point x="196" y="391" type="curve" smooth="yes"/>
      <point x="252" y="391"/>
      <point x="290" y="363"/>
      <point x="309" y="324" type="curve"/>
      <point x="363" y="324" type="line"/>
      <point x="385" y="357"/>
      <point x="422" y="389"/>
      <point x="490" y="389" type="curve" smooth="yes"/>
      <point x="558" y="389"/>
      <point x="606" y="355"/>
      <point x="606" y="293" type="curve" smooth="yes"/>
      <point x="606" y="233"/>
      <point x="569" y="204"/>
      <point x="494" y="204" type="curve" smooth="yes"/>
      <point x="411" y="204"/>
      <point x="358" y="228"/>
      <point x="292" y="288" type="curve"/>
      <point x="313" y="139" type="line"/>
      <point x="367" y="46"/>
      <point x="407" y="-12"/>
    </contour>
  </outline>
</glyph>
<glyph name="otelu" format="2">
  <advance width="734"/>
  <unicode hex="0C12"/>
  <outline>
    <contour>
      <point x="550" y="-12" type="curve" smooth="yes"/>
      <point x="635" y="-12"/>
      <point x="708" y="44"/>
      <point x="708" y="184" type="curve" smooth="yes"/>
      <point x="708" y="316"/>
      <point x="647" y="379"/>
      <point x="559" y="406" type="curve"/>
      <point x="541" y="320" type="line"/>
      <point x="605" y="312"/>
      <point x="628" y="289"/>
      <point x="628" y="257" type="curve" smooth="yes"/>
      <point x="628" y="222"/>
      <point x="600" y="204"/>
      <point x="539" y="204" type="curve" smooth="yes"/>
      <point x="469" y="204"/>
      <point x="428" y="225"/>
      <point x="408" y="279" type="curve"/>
      <point x="354" y="279" type="line"/>
      <point x="335" y="230"/>
      <point x="296" y="204"/>
      <point x="223" y="204" type="curve" smooth="yes"/>
      <point x="170" y="204"/>
      <point x="152" y="215"/>
      <point x="152" y="234" type="curve" smooth="yes"/>
      <point x="152" y="255"/>
      <point x="173" y="264"/>
      <point x="248" y="286" type="curve" smooth="yes"/>
      <point x="359" y="319"/>
      <point x="380" y="356"/>
      <point x="380" y="404" type="curve" smooth="yes"/>
      <point x="380" y="462"/>
      <point x="338" y="511"/>
      <point x="221" y="511" type="curve" smooth="yes"/>
      <point x="102" y="511"/>
      <point x="27" y="468"/>
      <point x="27" y="382" type="curve" smooth="yes"/>
      <point x="27" y="360"/>
      <point x="31" y="340"/>
      <point x="37" y="318" type="curve"/>
      <point x="182" y="339" type="line"/>
      <point x="173" y="360"/>
      <point x="169" y="375"/>
      <point x="169" y="395" type="curve" smooth="yes"/>
      <point x="169" y="427"/>
      <point x="185" y="454"/>
      <point x="237" y="454" type="curve" smooth="yes"/>
      <point x="280" y="454"/>
      <point x="300" y="439"/>
      <point x="300" y="407" type="curve" smooth="yes"/>
      <point x="300" y="374"/>
      <point x="281" y="356"/>
      <point x="193" y="331" type="curve" smooth="yes"/>
      <point x="89" y="301"/>
      <point x="38" y="255"/>
      <point x="38" y="155" type="curve" smooth="yes"/>
      <point x="38" y="35"/>
      <point x="125" y="-12"/>
      <point x="196" y="-12" type="curve" smooth="yes"/>
      <point x="307" y="-12"/>
      <point x="366" y="46"/>
      <point x="397" y="149" type="curve"/>
      <point x="362" y="152" type="line"/>
      <point x="398" y="30"/>
      <point x="469" y="-12"/>
    </contour>
  </outline>
</glyph>
<glyph name="ootelu" format="2">
  <advance width="734"/>
  <unicode hex="0C13"/>
  <outline>
    <contour>
      <point x="203" y="696" type="curve" smooth="yes"/>
      <point x="105" y="696"/>
      <point x="59" y="640"/>
      <point x="59" y="576" type="curve" smooth="yes"/>
      <point x="59" y="535"/>
      <point x="81" y="499"/>
      <point x="102" y="481" type="curve"/>
      <point x="169" y="500" type="line"/>
      <point x="148" y="513"/>
      <point x="135" y="530"/>
      <point x="135" y="553" type="curve" smooth="yes"/>
      <point x="135" y="585"/>
      <point x="159" y="604"/>
      <point x="205" y="604" type="curve" smooth="yes"/>
      <point x="259" y="604"/>
      <point x="291" y="577"/>
      <point x="303" y="522" type="curve"/>
      <point x="364" y="526" type="line"/>
      <point x="359" y="626"/>
      <point x="309" y="696"/>
    </contour>
    <component base="otelu"/>
  </outline>
</glyph>
<glyph name="autelu" format="2">
  <advance width="734"/>
  <unicode hex="0C14"/>
  <outline>
    <contour>
      <point x="69" y="583" type="line"/>
      <point x="221" y="583" type="line" smooth="yes"/>
      <point x="270" y="583"/>
      <point x="280" y="569"/>
      <point x="280" y="545" type="curve" smooth="yes"/>
      <point x="280" y="519"/>
      <point x="264" y="511"/>
      <point x="228" y="511" type="curve" smooth="yes"/>
      <point x="128" y="511" type="line"/>
      <point x="128" y="454" type="line"/>
      <point x="199" y="454" type="line" smooth="yes"/>
      <point x="299" y="454"/>
      <point x="364" y="477"/>
      <point x="364" y="545" type="curve" smooth="yes"/>
      <point x="364" y="627"/>
      <point x="278" y="639"/>
      <point x="184" y="639" type="curve" smooth="yes"/>
      <point x="86" y="639" type="line"/>
    </contour>
    <contour>
      <point x="465" y="714" type="curve" smooth="yes"/>
      <point x="57" y="714" type="line"/>
      <point x="41" y="583" type="line"/>
      <point x="477" y="583" type="line"/>
      <point x="453" y="610" type="line"/>
      <point x="448" y="598"/>
      <point x="441" y="580"/>
      <point x="441" y="556" type="curve" smooth="yes"/>
      <point x="441" y="477"/>
      <point x="488" y="431"/>
      <point x="572" y="431" type="curve" smooth="yes"/>
      <point x="659" y="431"/>
      <point x="713" y="473"/>
      <point x="713" y="562" type="curve" smooth="yes"/>
      <point x="713" y="615"/>
      <point x="690" y="650"/>
      <point x="653" y="676" type="curve" smooth="yes"/>
      <point x="618" y="701"/>
      <point x="568" y="714"/>
    </contour>
    <contour>
      <point x="570" y="489" type="curve" smooth="yes"/>
      <point x="543" y="489"/>
      <point x="517" y="503"/>
      <point x="517" y="544" type="curve" smooth="yes"/>
      <point x="517" y="577"/>
      <point x="539" y="594"/>
      <point x="572" y="594" type="curve" smooth="yes"/>
      <point x="606" y="594"/>
      <point x="628" y="575"/>
      <point x="628" y="544" type="curve" smooth="yes"/>
      <point x="628" y="502"/>
      <point x="602" y="489"/>
    </contour>
    <component base="otelu"/>
  </outline>
</glyph>
<glyph name="khatelu" format="2">
  <advance width="751"/>
  <unicode hex="0C16"/>
  <outline>
    <contour>
      <point x="547" y="-12" type="curve" smooth="yes"/>
      <point x="671" y="-12"/>
      <point x="722" y="86"/>
      <point x="722" y="219" type="curve" smooth="yes"/>
      <point x="722" y="393"/>
      <point x="621" y="502"/>
      <point x="463" y="515" type="curve"/>
      <point x="457" y="386" type="line"/>
      <point x="587" y="377"/>
      <point x="652" y="346"/>
      <point x="652" y="275" type="curve" smooth="yes"/>
      <point x="652" y="228"/>
      <point x="617" y="203"/>
      <point x="541" y="203" type="curve" smooth="yes"/>
      <point x="476" y="203"/>
      <point x="433" y="217"/>
      <point x="387" y="234" type="curve"/>
      <point x="308" y="264"/>
      <point x="265" y="279"/>
      <point x="179" y="279" type="curve" smooth="yes"/>
      <point x="79" y="279"/>
      <point x="22" y="229"/>
      <point x="22" y="143" type="curve" smooth="yes"/>
      <point x="22" y="47"/>
      <point x="88" y="-12"/>
      <point x="189" y="-12" type="curve" smooth="yes"/>
      <point x="351" y="-12"/>
      <point x="436" y="131"/>
      <point x="436" y="267" type="curve" smooth="yes"/>
      <point x="436" y="414"/>
      <point x="350" y="511"/>
      <point x="207" y="511" type="curve" smooth="yes"/>
      <point x="97" y="511"/>
      <point x="41" y="455"/>
      <point x="41" y="386" type="curve" smooth="yes"/>
      <point x="41" y="309"/>
      <point x="95" y="265"/>
      <point x="182" y="265" type="curve" smooth="yes"/>
      <point x="265" y="265"/>
      <point x="315" y="304"/>
      <point x="315" y="375" type="curve" smooth="yes"/>
      <point x="315" y="403"/>
      <point x="308" y="433"/>
      <point x="294" y="450" type="curve"/>
      <point x="257" y="433" type="line"/>
      <point x="330" y="414"/>
      <point x="364" y="364"/>
      <point x="364" y="300" type="curve" smooth="yes"/>
      <point x="364" y="212"/>
      <point x="318" y="147"/>
      <point x="196" y="147" type="curve" smooth="yes"/>
      <point x="145" y="147"/>
      <point x="121" y="160"/>
      <point x="121" y="185" type="curve" smooth="yes"/>
      <point x="121" y="212"/>
      <point x="145" y="222"/>
      <point x="181" y="222" type="curve" smooth="yes"/>
      <point x="254" y="222"/>
      <point x="299" y="171"/>
      <point x="341" y="119" type="curve"/>
      <point x="394" y="47"/>
      <point x="456" y="-12"/>
    </contour>
    <contour>
      <point x="130" y="380" type="curve" smooth="yes"/>
      <point x="130" y="410"/>
      <point x="147" y="434"/>
      <point x="185" y="434" type="curve" smooth="yes"/>
      <point x="218" y="434"/>
      <point x="236" y="412"/>
      <point x="236" y="378" type="curve" smooth="yes"/>
      <point x="236" y="337"/>
      <point x="213" y="323"/>
      <point x="183" y="323" type="curve" smooth="yes"/>
      <point x="156" y="323"/>
      <point x="130" y="337"/>
    </contour>
    <contour>
      <point x="283" y="-130" type="line"/>
      <point x="475" y="-130" type="line"/>
      <point x="438" y="13" type="line"/>
      <point x="320" y="13" type="line"/>
    </contour>
  </outline>
</glyph>
<glyph name="ngatelu" format="2">
  <advance width="734"/>
  <unicode hex="0C19"/>
  <outline>
    <contour>
      <point x="544" y="-12" type="curve" smooth="yes"/>
      <point x="643" y="-12"/>
      <point x="708" y="41"/>
      <point x="708" y="189" type="curve" smooth="yes"/>
      <point x="708" y="224"/>
      <point x="702" y="266"/>
      <point x="692" y="292" type="curve"/>
      <point x="624" y="280" type="line"/>
      <point x="626" y="274"/>
      <point x="628" y="267"/>
      <point x="628" y="258" type="curve" smooth="yes"/>
      <point x="628" y="224"/>
      <point x="600" y="204"/>
      <point x="539" y="204" type="curve" smooth="yes"/>
      <point x="469" y="204"/>
      <point x="428" y="225"/>
      <point x="408" y="270" type="curve"/>
      <point x="354" y="270" type="line"/>
      <point x="330" y="228"/>
      <point x="296" y="204"/>
      <point x="220" y="204" type="curve" smooth="yes"/>
      <point x="170" y="204"/>
      <point x="152" y="215"/>
      <point x="152" y="234" type="curve" smooth="yes"/>
      <point x="152" y="255"/>
      <point x="173" y="264"/>
      <point x="248" y="286" type="curve" smooth="yes"/>
      <point x="350" y="316"/>
      <point x="378" y="356"/>
      <point x="378" y="404" type="curve" smooth="yes"/>
      <point x="378" y="462"/>
      <point x="338" y="511"/>
      <point x="221" y="511" type="curve" smooth="yes"/>
      <point x="102" y="511"/>
      <point x="27" y="468"/>
      <point x="27" y="382" type="curve" smooth="yes"/>
      <point x="27" y="360"/>
      <point x="31" y="340"/>
      <point x="37" y="318" type="curve"/>
      <point x="182" y="339" type="line"/>
      <point x="173" y="360"/>
      <point x="169" y="375"/>
      <point x="169" y="395" type="curve" smooth="yes"/>
      <point x="169" y="427"/>
      <point x="185" y="454"/>
      <point x="237" y="454" type="curve" smooth="yes"/>
      <point x="280" y="454"/>
      <point x="300" y="439"/>
      <point x="300" y="407" type="curve" smooth="yes"/>
      <point x="300" y="374"/>
      <point x="281" y="360"/>
      <point x="193" y="331" type="curve" smooth="yes"/>
      <point x="89" y="297"/>
      <point x="38" y="255"/>
      <point x="38" y="155" type="curve" smooth="yes"/>
      <point x="38" y="35"/>
      <point x="125" y="-12"/>
      <point x="196" y="-12" type="curve" smooth="yes"/>
      <point x="307" y="-12"/>
      <point x="366" y="46"/>
      <point x="397" y="149" type="curve"/>
      <point x="362" y="152" type="line"/>
      <point x="398" y="30"/>
      <point x="469" y="-12"/>
    </contour>
    <contour>
      <point x="272" y="307" type="line"/>
      <point x="655" y="307" type="line"/>
      <point x="655" y="365" type="line"/>
      <point x="292" y="365" type="line"/>
    </contour>
    <contour>
      <point x="575" y="507" type="line"/>
      <point x="427" y="507" type="line"/>
      <point x="464" y="351" type="line"/>
      <point x="539" y="351" type="line"/>
    </contour>
  </outline>
</glyph>
<glyph name="jatelu" format="2">
  <advance width="735"/>
  <unicode hex="0C1C"/>
  <outline>
    <contour>
      <point x="544" y="-12" type="curve" smooth="yes"/>
      <point x="643" y="-12"/>
      <point x="708" y="41"/>
      <point x="708" y="189" type="curve" smooth="yes"/>
      <point x="708" y="219"/>
      <point x="702" y="266"/>
      <point x="692" y="292" type="curve"/>
      <point x="624" y="280" type="line"/>
      <point x="626" y="274"/>
      <point x="628" y="267"/>
      <point x="628" y="258" type="curve" smooth="yes"/>
      <point x="628" y="224"/>
      <point x="600" y="204"/>
      <point x="539" y="204" type="curve" smooth="yes"/>
      <point x="469" y="204"/>
      <point x="428" y="225"/>
      <point x="408" y="270" type="curve"/>
      <point x="354" y="270" type="line"/>
      <point x="330" y="228"/>
      <point x="296" y="204"/>
      <point x="222" y="204" type="curve" smooth="yes"/>
      <point x="170" y="204"/>
      <point x="152" y="215"/>
      <point x="152" y="234" type="curve" smooth="yes"/>
      <point x="152" y="255"/>
      <point x="173" y="264"/>
      <point x="248" y="286" type="curve" smooth="yes"/>
      <point x="359" y="319"/>
      <point x="378" y="359"/>
      <point x="378" y="404" type="curve" smooth="yes"/>
      <point x="378" y="462"/>
      <point x="340" y="511"/>
      <point x="221" y="511" type="curve" smooth="yes"/>
      <point x="102" y="511"/>
      <point x="27" y="468"/>
      <point x="27" y="382" type="curve" smooth="yes"/>
      <point x="27" y="360"/>
      <point x="31" y="340"/>
      <point x="37" y="318" type="curve"/>
      <point x="182" y="339" type="line"/>
      <point x="173" y="360"/>
      <point x="169" y="375"/>
      <point x="169" y="395" type="curve" smooth="yes"/>
      <point x="169" y="427"/>
      <point x="185" y="454"/>
      <point x="237" y="454" type="curve" smooth="yes"/>
      <point x="280" y="454"/>
      <point x="300" y="440"/>
      <point x="300" y="407" type="curve" smooth="yes"/>
      <point x="300" y="374"/>
      <point x="281" y="356"/>
      <point x="193" y="331" type="curve" smooth="yes"/>
      <point x="89" y="301"/>
      <point x="38" y="256"/>
      <point x="38" y="155" type="curve" smooth="yes"/>
      <point x="38" y="35"/>
      <point x="125" y="-12"/>
      <point x="196" y="-12" type="curve" smooth="yes"/>
      <point x="307" y="-12"/>
      <point x="366" y="46"/>
      <point x="397" y="149" type="curve"/>
      <point x="362" y="152" type="line"/>
      <point x="398" y="30"/>
      <point x="469" y="-12"/>
    </contour>
    <contour>
      <point x="351" y="473" type="curve"/>
      <point x="344" y="420" type="line"/>
      <point x="388" y="324"/>
      <point x="451" y="267"/>
      <point x="533" y="267" type="curve" smooth="yes"/>
      <point x="610" y="267"/>
      <point x="648" y="318"/>
      <point x="648" y="388" type="curve" smooth="yes"/>
      <point x="648" y="452"/>
      <point x="614" y="519"/>
      <point x="476" y="525" type="curve"/>
      <point x="475" y="440" type="line"/>
      <point x="559" y="439"/>
      <point x="582" y="429"/>
      <point x="582" y="410" type="curve" smooth="yes"/>
      <point x="582" y="391"/>
      <point x="566" y="385"/>
      <point x="528" y="385" type="curve" smooth="yes"/>
      <point x="460" y="385"/>
      <point x="404" y="417"/>
    </contour>
  </outline>
</glyph>
<glyph name="nyatelu" format="2">
  <advance width="925"/>
  <unicode hex="0C1E"/>
  <outline>
    <contour>
      <point x="326" y="-12" type="curve" smooth="yes"/>
      <point x="422" y="-12"/>
      <point x="496" y="21"/>
      <point x="544" y="78" type="curve"/>
      <point x="570" y="97" type="line"/>
      <point x="618" y="158"/>
      <point x="640" y="236"/>
      <point x="640" y="315" type="curve" smooth="yes"/>
      <point x="640" y="452"/>
      <point x="572" y="511"/>
      <point x="481" y="511" type="curve" smooth="yes"/>
      <point x="407" y="511"/>
      <point x="353" y="473"/>
      <point x="315" y="410" type="curve"/>
      <point x="341" y="411" type="line"/>
      <point x="303" y="469"/>
      <point x="258" y="511"/>
      <point x="172" y="511" type="curve" smooth="yes"/>
      <point x="67" y="511"/>
      <point x="22" y="455"/>
      <point x="22" y="381" type="curve" smooth="yes"/>
      <point x="22" y="345"/>
      <point x="31" y="317"/>
      <point x="41" y="293" type="curve"/>
      <point x="107" y="311" type="line"/>
      <point x="102" y="321"/>
      <point x="98" y="332"/>
      <point x="98" y="344" type="curve" smooth="yes"/>
      <point x="98" y="373"/>
      <point x="120" y="391"/>
      <point x="178" y="391" type="curve" smooth="yes"/>
      <point x="246" y="391"/>
      <point x="275" y="364"/>
      <point x="296" y="340" type="curve"/>
      <point x="354" y="340" type="line"/>
      <point x="385" y="369"/>
      <point x="422" y="389"/>
      <point x="479" y="389" type="curve" smooth="yes"/>
      <point x="534" y="389"/>
      <point x="573" y="369"/>
      <point x="573" y="319" type="curve" smooth="yes"/>
      <point x="573" y="239"/>
      <point x="495" y="194"/>
      <point x="322" y="194" type="curve" smooth="yes"/>
      <point x="217" y="194"/>
      <point x="197" y="214"/>
      <point x="197" y="235" type="curve" smooth="yes"/>
      <point x="197" y="258"/>
      <point x="222" y="268"/>
      <point x="271" y="268" type="curve" smooth="yes"/>
      <point x="436" y="268"/>
      <point x="521" y="148"/>
      <point x="521" y="5" type="curve" smooth="yes"/>
      <point x="521" y="-8"/>
      <point x="520" y="-25"/>
      <point x="517" y="-39" type="curve"/>
      <point x="615" y="-50" type="line"/>
      <point x="617" y="-40"/>
      <point x="618" y="-12"/>
      <point x="618" y="-2" type="curve" smooth="yes"/>
      <point x="618" y="159"/>
      <point x="483" y="325"/>
      <point x="277" y="325" type="curve" smooth="yes"/>
      <point x="155" y="325"/>
      <point x="83" y="271"/>
      <point x="83" y="169" type="curve" smooth="yes"/>
      <point x="83" y="51"/>
      <point x="165" y="-12"/>
    </contour>
    <contour>
      <point x="609" y="307" type="line"/>
      <point x="908" y="307" type="line"/>
      <point x="908" y="365" type="line"/>
      <point x="619" y="365" type="line"/>
    </contour>
    <contour>
      <point x="829" y="507" type="line"/>
      <point x="681" y="507" type="line"/>
      <point x="718" y="355" type="line"/>
      <point x="793" y="355" type="line"/>
    </contour>
  </outline>
</glyph>
<glyph name="nnatelu" format="2">
  <advance width="828"/>
  <unicode hex="0C23"/>
  <outline>
    <contour>
      <point x="590" y="511" type="curve" smooth="yes"/>
      <point x="487" y="511"/>
      <point x="432" y="450"/>
      <point x="400" y="391" type="curve"/>
      <point x="407" y="391" type="line"/>
      <point x="378" y="446"/>
      <point x="312" y="511"/>
      <point x="198" y="511" type="curve" smooth="yes"/>
      <point x="125" y="511"/>
      <point x="34" y="485"/>
      <point x="34" y="391" type="curve" smooth="yes"/>
      <point x="34" y="329"/>
      <point x="83" y="281"/>
      <point x="180" y="277" type="curve"/>
      <point x="180" y="314" type="line"/>
      <point x="94" y="299"/>
      <point x="26" y="250"/>
      <point x="26" y="150" type="curve" smooth="yes"/>
      <point x="26" y="39"/>
      <point x="97" y="-12"/>
      <point x="184" y="-12" type="curve" smooth="yes"/>
      <point x="318" y="-12"/>
      <point x="371" y="100"/>
      <point x="394" y="208" type="curve"/>
      <point x="340" y="235" type="line"/>
      <point x="306" y="207"/>
      <point x="267" y="197"/>
      <point x="212" y="197" type="curve" smooth="yes"/>
      <point x="160" y="197"/>
      <point x="138" y="211"/>
      <point x="138" y="233" type="curve" smooth="yes"/>
      <point x="138" y="252"/>
      <point x="154" y="264"/>
      <point x="188" y="264" type="curve" smooth="yes"/>
      <point x="271" y="264" type="line"/>
      <point x="271" y="324" type="line"/>
      <point x="198" y="324" type="line" smooth="yes"/>
      <point x="160" y="324"/>
      <point x="144" y="338"/>
      <point x="144" y="361" type="curve" smooth="yes"/>
      <point x="144" y="390"/>
      <point x="172" y="407"/>
      <point x="222" y="407" type="curve" smooth="yes"/>
      <point x="296" y="407"/>
      <point x="342" y="375"/>
      <point x="379" y="320" type="curve"/>
      <point x="423" y="320" type="line"/>
      <point x="463" y="371"/>
      <point x="509" y="400"/>
      <point x="575" y="400" type="curve" smooth="yes"/>
      <point x="671" y="400"/>
      <point x="725" y="339"/>
      <point x="725" y="231" type="curve" smooth="yes"/>
      <point x="725" y="178"/>
      <point x="718" y="151"/>
      <point x="677" y="93" type="curve"/>
      <point x="690" y="86" type="line"/>
      <point x="700" y="106"/>
      <point x="709" y="144"/>
      <point x="709" y="164" type="curve" smooth="yes"/>
      <point x="709" y="255"/>
      <point x="665" y="303"/>
      <point x="575" y="303" type="curve" smooth="yes"/>
      <point x="492" y="303"/>
      <point x="428" y="248"/>
      <point x="428" y="150" type="curve" smooth="yes"/>
      <point x="428" y="47"/>
      <point x="486" y="-12"/>
      <point x="590" y="-12" type="curve" smooth="yes"/>
      <point x="738" y="-12"/>
      <point x="795" y="108"/>
      <point x="795" y="250" type="curve" smooth="yes"/>
      <point x="795" y="442"/>
      <point x="702" y="511"/>
    </contour>
    <contour>
      <point x="575" y="155" type="curve" smooth="yes"/>
      <point x="537" y="155"/>
      <point x="516" y="166"/>
      <point x="516" y="199" type="curve" smooth="yes"/>
      <point x="516" y="231"/>
      <point x="542" y="248"/>
      <point x="576" y="248" type="curve" smooth="yes"/>
      <point x="618" y="248"/>
      <point x="636" y="226"/>
      <point x="636" y="196" type="curve" smooth="yes"/>
      <point x="636" y="165"/>
      <point x="614" y="155"/>
    </contour>
  </outline>
</glyph>
<glyph name="tatelu" format="2">
  <advance width="772"/>
  <unicode hex="0C24"/>
  <outline>
    <contour>
      <point x="389" y="-13" type="curve" smooth="yes"/>
      <point x="683" y="-13"/>
      <point x="742" y="124"/>
      <point x="742" y="255" type="curve" smooth="yes"/>
      <point x="742" y="366"/>
      <point x="688" y="432"/>
      <point x="598" y="449" type="curve"/>
      <point x="572" y="450" type="line"/>
      <point x="566" y="451"/>
      <point x="560" y="451"/>
      <point x="553" y="451" type="curve" smooth="yes"/>
      <point x="458" y="451"/>
      <point x="402" y="410"/>
      <point x="402" y="339" type="curve" smooth="yes"/>
      <point x="402" y="269"/>
      <point x="447" y="233"/>
      <point x="533" y="233" type="curve" smooth="yes"/>
      <point x="622" y="233"/>
      <point x="657" y="276"/>
      <point x="657" y="341" type="curve" smooth="yes"/>
      <point x="657" y="361"/>
      <point x="653" y="383"/>
      <point x="644" y="405" type="curve"/>
      <point x="642" y="425" type="line"/>
      <point x="615" y="471"/>
      <point x="549" y="510"/>
      <point x="461" y="511" type="curve"/>
      <point x="394" y="454" type="line"/>
      <point x="442" y="454" type="line" smooth="yes"/>
      <point x="509" y="454"/>
      <point x="535" y="444"/>
      <point x="557" y="428" type="curve"/>
      <point x="555" y="415" type="line"/>
      <point x="576" y="398"/>
      <point x="592" y="372"/>
      <point x="592" y="342" type="curve" smooth="yes"/>
      <point x="592" y="312"/>
      <point x="579" y="291"/>
      <point x="542" y="291" type="curve" smooth="yes"/>
      <point x="509" y="291"/>
      <point x="493" y="311"/>
      <point x="493" y="339" type="curve" smooth="yes"/>
      <point x="493" y="377"/>
      <point x="521" y="398"/>
      <point x="558" y="398" type="curve" smooth="yes"/>
      <point x="570" y="398"/>
      <point x="581" y="397"/>
      <point x="592" y="396" type="curve"/>
      <point x="617" y="392" type="line"/>
      <point x="651" y="380"/>
      <point x="670" y="349"/>
      <point x="670" y="312" type="curve" smooth="yes"/>
      <point x="670" y="225"/>
      <point x="607" y="182"/>
      <point x="384" y="182" type="curve" smooth="yes"/>
      <point x="157" y="182"/>
      <point x="102" y="234"/>
      <point x="102" y="312" type="curve" smooth="yes"/>
      <point x="102" y="349"/>
      <point x="120" y="378"/>
      <point x="147" y="396" type="curve"/>
      <point x="135" y="407" type="line"/>
      <point x="122" y="381"/>
      <point x="115" y="364"/>
      <point x="115" y="343" type="curve" smooth="yes"/>
      <point x="115" y="260"/>
      <point x="174" y="233"/>
      <point x="239" y="233" type="curve" smooth="yes"/>
      <point x="316" y="233"/>
      <point x="369" y="276"/>
      <point x="369" y="354" type="curve" smooth="yes"/>
      <point x="369" y="423"/>
      <point x="325" y="478"/>
      <point x="234" y="478" type="curve" smooth="yes"/>
      <point x="90" y="478"/>
      <point x="30" y="368"/>
      <point x="30" y="266" type="curve" smooth="yes"/>
      <point x="30" y="53"/>
      <point x="189" y="-13"/>
    </contour>
    <contour>
      <point x="282" y="345" type="curve" smooth="yes"/>
      <point x="282" y="301"/>
      <point x="257" y="291"/>
      <point x="230" y="291" type="curve" smooth="yes"/>
      <point x="199" y="291"/>
      <point x="177" y="309"/>
      <point x="177" y="345" type="curve" smooth="yes"/>
      <point x="177" y="381"/>
      <point x="198" y="400"/>
      <point x="232" y="400" type="curve" smooth="yes"/>
      <point x="267" y="400"/>
      <point x="282" y="378"/>
    </contour>
    <component base="hattelu" xOffset="305"/>
  </outline>
</glyph>
<glyph name="natelu" format="2">
  <advance width="687"/>
  <unicode hex="0C28"/>
  <outline>
    <contour>
      <point x="493" y="-12" type="curve" smooth="yes"/>
      <point x="607" y="-12"/>
      <point x="658" y="88"/>
      <point x="658" y="224" type="curve" smooth="yes"/>
      <point x="658" y="420"/>
      <point x="515" y="514"/>
      <point x="364" y="515" type="curve"/>
      <point x="243" y="454" type="line"/>
      <point x="291" y="454" type="line" smooth="yes"/>
      <point x="506" y="454"/>
      <point x="577" y="363"/>
      <point x="577" y="279" type="curve" smooth="yes"/>
      <point x="577" y="231"/>
      <point x="548" y="204"/>
      <point x="495" y="204" type="curve" smooth="yes"/>
      <point x="438" y="204"/>
      <point x="394" y="228"/>
      <point x="338" y="268" type="curve" smooth="yes"/>
      <point x="296" y="298"/>
      <point x="253" y="326"/>
      <point x="193" y="326" type="curve" smooth="yes"/>
      <point x="91" y="326"/>
      <point x="27" y="259"/>
      <point x="27" y="154" type="curve" smooth="yes"/>
      <point x="27" y="100"/>
      <point x="36" y="54"/>
      <point x="59" y="-9" type="curve"/>
      <point x="220" y="-3" type="line"/>
      <point x="176" y="80"/>
      <point x="153" y="137"/>
      <point x="153" y="207" type="curve" smooth="yes"/>
      <point x="153" y="241"/>
      <point x="165" y="268"/>
      <point x="189" y="268" type="curve" smooth="yes"/>
      <point x="215" y="268"/>
      <point x="231" y="246"/>
      <point x="278" y="158" type="curve" smooth="yes"/>
      <point x="346" y="31"/>
      <point x="392" y="-12"/>
    </contour>
    <component base="hattelu" xOffset="138"/>
  </outline>
</glyph>
<glyph name="batelu" format="2">
  <advance width="743"/>
  <unicode hex="0C2C"/>
  <outline>
    <contour>
      <point x="545" y="-12" type="curve" smooth="yes"/>
      <point x="663" y="-12"/>
      <point x="714" y="86"/>
      <point x="714" y="219" type="curve" smooth="yes"/>
      <point x="714" y="393"/>
      <point x="613" y="502"/>
      <point x="455" y="515" type="curve"/>
      <point x="449" y="386" type="line"/>
      <point x="579" y="377"/>
      <point x="644" y="346"/>
      <point x="644" y="275" type="curve" smooth="yes"/>
      <point x="644" y="229"/>
      <point x="609" y="204"/>
      <point x="539" y="204" type="curve" smooth="yes"/>
      <point x="481" y="204"/>
      <point x="435" y="222"/>
      <point x="408" y="279" type="curve"/>
      <point x="354" y="279" type="line"/>
      <point x="335" y="230"/>
      <point x="296" y="204"/>
      <point x="222" y="204" type="curve" smooth="yes"/>
      <point x="170" y="204"/>
      <point x="152" y="215"/>
      <point x="152" y="234" type="curve" smooth="yes"/>
      <point x="152" y="255"/>
      <point x="173" y="264"/>
      <point x="248" y="286" type="curve" smooth="yes"/>
      <point x="359" y="319"/>
      <point x="380" y="356"/>
      <point x="380" y="404" type="curve" smooth="yes"/>
      <point x="380" y="462"/>
      <point x="340" y="511"/>
      <point x="221" y="511" type="curve" smooth="yes"/>
      <point x="102" y="511"/>
      <point x="27" y="468"/>
      <point x="27" y="382" type="curve" smooth="yes"/>
      <point x="27" y="360"/>
      <point x="31" y="340"/>
      <point x="37" y="318" type="curve"/>
      <point x="182" y="339" type="line"/>
      <point x="173" y="360"/>
      <point x="169" y="375"/>
      <point x="169" y="395" type="curve" smooth="yes"/>
      <point x="169" y="427"/>
      <point x="185" y="454"/>
      <point x="237" y="454" type="curve" smooth="yes"/>
      <point x="278" y="454"/>
      <point x="300" y="440"/>
      <point x="300" y="407" type="curve" smooth="yes"/>
      <point x="300" y="374"/>
      <point x="281" y="356"/>
      <point x="193" y="331" type="curve" smooth="yes"/>
      <point x="89" y="301"/>
      <point x="38" y="255"/>
      <point x="38" y="155" type="curve" smooth="yes"/>
      <point x="38" y="35"/>
      <point x="125" y="-12"/>
      <point x="196" y="-12" type="curve" smooth="yes"/>
      <point x="307" y="-12"/>
      <point x="366" y="46"/>
      <point x="397" y="149" type="curve"/>
      <point x="365" y="156" type="line"/>
      <point x="396" y="45"/>
      <point x="455" y="-12"/>
    </contour>
  </outline>
</glyph>
<glyph name="yatelu" format="2">
  <advance width="1215"/>
  <unicode hex="0C2F"/>
  <outline>
    <contour>
      <point x="29" y="248" type="curve" smooth="yes"/>
      <point x="29" y="93"/>
      <point x="122" y="-12"/>
      <point x="299" y="-12" type="curve" smooth="yes"/>
      <point x="475" y="-12"/>
      <point x="571" y="92"/>
      <point x="571" y="249" type="curve" smooth="yes"/>
      <point x="571" y="397"/>
      <point x="478" y="514"/>
      <point x="303" y="514" type="curve" smooth="yes"/>
      <point x="125" y="514"/>
      <point x="29" y="395"/>
    </contour>
    <contour>
      <point x="137" y="317" type="curve" smooth="yes"/>
      <point x="137" y="396"/>
      <point x="196" y="454"/>
      <point x="303" y="454" type="curve" smooth="yes"/>
      <point x="412" y="454"/>
      <point x="463" y="393"/>
      <point x="463" y="317" type="curve" smooth="yes"/>
      <point x="463" y="248"/>
      <point x="412" y="205"/>
      <point x="299" y="205" type="curve" smooth="yes"/>
      <point x="187" y="205"/>
      <point x="137" y="250"/>
    </contour>
    <contour>
      <point x="705" y="-12" type="curve" smooth="yes"/>
      <point x="816" y="-12"/>
      <point x="863" y="86"/>
      <point x="863" y="221" type="curve" smooth="yes"/>
      <point x="863" y="424"/>
      <point x="731" y="500"/>
      <point x="615" y="516" type="curve"/>
      <point x="563" y="454" type="line"/>
      <point x="715" y="438"/>
      <point x="782" y="377"/>
      <point x="782" y="292" type="curve" smooth="yes"/>
      <point x="782" y="232"/>
      <point x="744" y="204"/>
      <point x="689" y="204" type="curve" smooth="yes"/>
      <point x="627" y="204"/>
      <point x="585" y="223"/>
      <point x="526" y="265" type="curve"/>
      <point x="483" y="231" type="line"/>
      <point x="542" y="60"/>
      <point x="604" y="-12"/>
    </contour>
    <contour>
      <point x="1020" y="-12" type="curve" smooth="yes"/>
      <point x="1135" y="-12"/>
      <point x="1186" y="86"/>
      <point x="1186" y="221" type="curve" smooth="yes"/>
      <point x="1186" y="393"/>
      <point x="1084" y="509"/>
      <point x="908" y="515" type="curve"/>
      <point x="902" y="386" type="line"/>
      <point x="1045" y="382"/>
      <point x="1116" y="346"/>
      <point x="1116" y="274" type="curve" smooth="yes"/>
      <point x="1116" y="231"/>
      <point x="1081" y="204"/>
      <point x="1007" y="204" type="curve" smooth="yes"/>
      <point x="936" y="204"/>
      <point x="894" y="223"/>
      <point x="835" y="265" type="curve"/>
      <point x="800" y="246" type="line"/>
      <point x="855" y="72"/>
      <point x="915" y="-12"/>
    </contour>
    <component base="hattelu" xOffset="484"/>
  </outline>
</glyph>
<glyph name="rratelu" format="2">
  <advance width="810"/>
  <unicode hex="0C31"/>
  <outline>
    <contour>
      <point x="590" y="511" type="curve" smooth="yes"/>
      <point x="504" y="511"/>
      <point x="465" y="461"/>
      <point x="465" y="407" type="curve" smooth="yes"/>
      <point x="465" y="336"/>
      <point x="535" y="301"/>
      <point x="596" y="279" type="curve"/>
      <point x="547" y="320" type="line"/>
      <point x="348" y="320" type="line"/>
      <point x="348" y="259" type="line"/>
      <point x="617" y="259" type="line"/>
      <point x="632" y="293" type="line"/>
      <point x="589" y="312"/>
      <point x="571" y="339"/>
      <point x="571" y="365" type="curve" smooth="yes"/>
      <point x="571" y="391"/>
      <point x="588" y="416"/>
      <point x="626" y="416" type="curve" smooth="yes"/>
      <point x="679" y="416"/>
      <point x="704" y="366"/>
      <point x="704" y="311" type="curve" smooth="yes"/>
      <point x="704" y="233"/>
      <point x="659" y="198"/>
      <point x="580" y="198" type="curve" smooth="yes"/>
      <point x="497" y="198"/>
      <point x="459" y="220"/>
      <point x="436" y="248" type="curve"/>
      <point x="374" y="248" type="line"/>
      <point x="339" y="212"/>
      <point x="310" y="198"/>
      <point x="237" y="198" type="curve" smooth="yes"/>
      <point x="171" y="198"/>
      <point x="106" y="223"/>
      <point x="106" y="310" type="curve" smooth="yes"/>
      <point x="106" y="361"/>
      <point x="132" y="406"/>
      <point x="182" y="436" type="curve"/>
      <point x="150" y="440" type="line"/>
      <point x="139" y="419"/>
      <point x="129" y="397"/>
      <point x="129" y="371" type="curve" smooth="yes"/>
      <point x="129" y="304"/>
      <point x="174" y="261"/>
      <point x="252" y="261" type="curve" smooth="yes"/>
      <point x="327" y="261"/>
      <point x="386" y="304"/>
      <point x="386" y="387" type="curve" smooth="yes"/>
      <point x="386" y="460"/>
      <point x="339" y="511"/>
      <point x="247" y="511" type="curve" smooth="yes"/>
      <point x="140" y="511"/>
      <point x="33" y="426"/>
      <point x="33" y="239" type="curve" smooth="yes"/>
      <point x="33" y="68"/>
      <point x="106" y="-12"/>
      <point x="225" y="-12" type="curve" smooth="yes"/>
      <point x="333" y="-12"/>
      <point x="392" y="52"/>
      <point x="421" y="149" type="curve"/>
      <point x="389" y="149" type="line"/>
      <point x="416" y="54"/>
      <point x="479" y="-12"/>
      <point x="583" y="-12" type="curve" smooth="yes"/>
      <point x="704" y="-12"/>
      <point x="777" y="68"/>
      <point x="777" y="239" type="curve" smooth="yes"/>
      <point x="777" y="426"/>
      <point x="694" y="511"/>
    </contour>
    <contour>
      <point x="246" y="430" type="curve" smooth="yes"/>
      <point x="284" y="430"/>
      <point x="299" y="406"/>
      <point x="299" y="376" type="curve" smooth="yes"/>
      <point x="299" y="329"/>
      <point x="273" y="319"/>
      <point x="246" y="319" type="curve" smooth="yes"/>
      <point x="216" y="319"/>
      <point x="193" y="337"/>
      <point x="193" y="374" type="curve" smooth="yes"/>
      <point x="193" y="411"/>
      <point x="216" y="430"/>
    </contour>
  </outline>
</glyph>
<glyph name="latelu" format="2">
  <advance width="684"/>
  <unicode hex="0C32"/>
  <outline>
    <contour>
      <point x="342" y="-12" type="curve" smooth="yes"/>
      <point x="568" y="-12"/>
      <point x="655" y="89"/>
      <point x="655" y="271" type="curve" smooth="yes"/>
      <point x="655" y="397"/>
      <point x="575" y="505"/>
      <point x="440" y="515" type="curve"/>
      <point x="435" y="383" type="line"/>
      <point x="529" y="379"/>
      <point x="585" y="360"/>
      <point x="585" y="295" type="curve" smooth="yes"/>
      <point x="585" y="226"/>
      <point x="500" y="200"/>
      <point x="342" y="200" type="curve" smooth="yes"/>
      <point x="183" y="200"/>
      <point x="101" y="241"/>
      <point x="101" y="334" type="curve" smooth="yes"/>
      <point x="101" y="383"/>
      <point x="126" y="419"/>
      <point x="161" y="435" type="curve"/>
      <point x="137" y="440" type="line"/>
      <point x="125" y="419"/>
      <point x="117" y="397"/>
      <point x="117" y="371" type="curve" smooth="yes"/>
      <point x="117" y="304"/>
      <point x="161" y="261"/>
      <point x="242" y="261" type="curve" smooth="yes"/>
      <point x="318" y="261"/>
      <point x="373" y="305"/>
      <point x="373" y="386" type="curve" smooth="yes"/>
      <point x="373" y="459"/>
      <point x="325" y="511"/>
      <point x="235" y="511" type="curve" smooth="yes"/>
      <point x="117" y="511"/>
      <point x="29" y="421"/>
      <point x="29" y="275" type="curve" smooth="yes"/>
      <point x="29" y="78"/>
      <point x="163" y="-12"/>
    </contour>
    <contour>
      <point x="286" y="376" type="curve" smooth="yes"/>
      <point x="286" y="329"/>
      <point x="261" y="319"/>
      <point x="234" y="319" type="curve" smooth="yes"/>
      <point x="203" y="319"/>
      <point x="181" y="337"/>
      <point x="181" y="376" type="curve" smooth="yes"/>
      <point x="181" y="409"/>
      <point x="202" y="430"/>
      <point x="236" y="430" type="curve" smooth="yes"/>
      <point x="271" y="430"/>
      <point x="286" y="406"/>
    </contour>
  </outline>
</glyph>
<glyph name="lllatelu" format="2">
  <advance width="810"/>
  <unicode hex="0C34"/>
  <outline>
    <contour>
      <point x="246" y="430" type="curve" smooth="yes"/>
      <point x="284" y="430"/>
      <point x="299" y="406"/>
      <point x="299" y="376" type="curve" smooth="yes"/>
      <point x="299" y="329"/>
      <point x="273" y="319"/>
      <point x="246" y="319" type="curve" smooth="yes"/>
      <point x="216" y="319"/>
      <point x="193" y="337"/>
      <point x="193" y="374" type="curve" smooth="yes"/>
      <point x="193" y="411"/>
      <point x="216" y="430"/>
    </contour>
    <contour>
      <point x="389" y="149" type="line"/>
      <point x="418" y="52"/>
      <point x="477" y="-12"/>
      <point x="585" y="-12" type="curve" smooth="yes"/>
      <point x="704" y="-12"/>
      <point x="777" y="68"/>
      <point x="777" y="239" type="curve" smooth="yes"/>
      <point x="777" y="432"/>
      <point x="674" y="511"/>
      <point x="569" y="511" type="curve" smooth="yes"/>
      <point x="475" y="511"/>
      <point x="424" y="458"/>
      <point x="424" y="385" type="curve" smooth="yes"/>
      <point x="424" y="304"/>
      <point x="483" y="261"/>
      <point x="560" y="261" type="curve" smooth="yes"/>
      <point x="636" y="261"/>
      <point x="681" y="304"/>
      <point x="681" y="371" type="curve" smooth="yes"/>
      <point x="681" y="397"/>
      <point x="671" y="419"/>
      <point x="660" y="440" type="curve"/>
      <point x="628" y="436" type="line"/>
      <point x="678" y="406"/>
      <point x="704" y="361"/>
      <point x="704" y="312" type="curve" smooth="yes"/>
      <point x="704" y="229"/>
      <point x="639" y="204"/>
      <point x="573" y="204" type="curve" smooth="yes"/>
      <point x="494" y="204"/>
      <point x="454" y="232"/>
      <point x="432" y="279" type="curve"/>
      <point x="378" y="279" type="line"/>
      <point x="356" y="232"/>
      <point x="316" y="204"/>
      <point x="237" y="204" type="curve" smooth="yes"/>
      <point x="171" y="204"/>
      <point x="106" y="229"/>
      <point x="106" y="312" type="curve" smooth="yes"/>
      <point x="106" y="361"/>
      <point x="132" y="406"/>
      <point x="182" y="436" type="curve"/>
      <point x="150" y="440" type="line"/>
      <point x="139" y="419"/>
      <point x="129" y="397"/>
      <point x="129" y="371" type="curve" smooth="yes"/>
      <point x="129" y="304"/>
      <point x="174" y="261"/>
      <point x="252" y="261" type="curve" smooth="yes"/>
      <point x="327" y="261"/>
      <point x="386" y="304"/>
      <point x="386" y="387" type="curve" smooth="yes"/>
      <point x="386" y="460"/>
      <point x="339" y="511"/>
      <point x="247" y="511" type="curve" smooth="yes"/>
      <point x="140" y="511"/>
      <point x="33" y="426"/>
      <point x="33" y="239" type="curve" smooth="yes"/>
      <point x="33" y="68"/>
      <point x="106" y="-12"/>
      <point x="225" y="-12" type="curve" smooth="yes"/>
      <point x="333" y="-12"/>
      <point x="392" y="52"/>
      <point x="421" y="149" type="curve"/>
    </contour>
    <contour>
      <point x="564" y="430" type="curve" smooth="yes"/>
      <point x="596" y="430"/>
      <point x="617" y="409"/>
      <point x="617" y="376" type="curve" smooth="yes"/>
      <point x="617" y="337"/>
      <point x="594" y="319"/>
      <point x="564" y="319" type="curve" smooth="yes"/>
      <point x="537" y="319"/>
      <point x="511" y="329"/>
      <point x="511" y="376" type="curve" smooth="yes"/>
      <point x="511" y="406"/>
      <point x="528" y="430"/>
    </contour>
  </outline>
</glyph>
<glyph name="avagrahatelu" format="2">
  <advance width="601"/>
  <unicode hex="0C3D"/>
  <outline>
    <contour>
      <point x="152" y="234" type="curve" smooth="yes"/>
      <point x="152" y="255"/>
      <point x="173" y="264"/>
      <point x="248" y="286" type="curve" smooth="yes"/>
      <point x="359" y="319"/>
      <point x="380" y="356"/>
      <point x="380" y="404" type="curve" smooth="yes"/>
      <point x="380" y="462"/>
      <point x="338" y="511"/>
      <point x="221" y="511" type="curve" smooth="yes"/>
      <point x="102" y="511"/>
      <point x="27" y="468"/>
      <point x="27" y="382" type="curve" smooth="yes"/>
      <point x="27" y="360"/>
      <point x="31" y="340"/>
      <point x="37" y="318" type="curve"/>
      <point x="182" y="339" type="line"/>
      <point x="173" y="360"/>
      <point x="169" y="375"/>
      <point x="169" y="395" type="curve" smooth="yes"/>
      <point x="169" y="427"/>
      <point x="185" y="454"/>
      <point x="237" y="454" type="curve" smooth="yes"/>
      <point x="280" y="454"/>
      <point x="300" y="439"/>
      <point x="300" y="407" type="curve" smooth="yes"/>
      <point x="300" y="374"/>
      <point x="281" y="356"/>
      <point x="193" y="331" type="curve" smooth="yes"/>
      <point x="89" y="301"/>
      <point x="38" y="255"/>
      <point x="38" y="157" type="curve" smooth="yes"/>
      <point x="38" y="41"/>
      <point x="129" y="0"/>
      <point x="239" y="0" type="curve" smooth="yes"/>
      <point x="561" y="0" type="line"/>
      <point x="581" y="209" type="line"/>
      <point x="203" y="209" type="line" smooth="yes"/>
      <point x="166" y="209"/>
      <point x="152" y="215"/>
    </contour>
  </outline>
</glyph>
<glyph name="aavowelsigntelu" format="2">
  <advance width="249"/>
  <unicode hex="0C3E"/>
  <outline>
    <contour>
      <point x="-22" y="563" type="curve" smooth="yes"/>
      <point x="-511" y="563" type="line"/>
      <point x="-529" y="428" type="line"/>
      <point x="-10" y="428" type="line"/>
      <point x="-36" y="455" type="line"/>
      <point x="-40" y="449"/>
      <point x="-48" y="427"/>
      <point x="-48" y="400" type="curve" smooth="yes"/>
      <point x="-48" y="320"/>
      <point x="-2" y="272"/>
      <point x="85" y="272" type="curve" smooth="yes"/>
      <point x="174" y="272"/>
      <point x="228" y="316"/>
      <point x="228" y="405" type="curve" smooth="yes"/>
      <point x="228" y="462"/>
      <point x="205" y="499"/>
      <point x="168" y="525" type="curve" smooth="yes"/>
      <point x="132" y="551"/>
      <point x="81" y="563"/>
    </contour>
    <contour>
      <point x="143" y="387" type="curve" smooth="yes"/>
      <point x="143" y="345"/>
      <point x="117" y="330"/>
      <point x="83" y="330" type="curve" smooth="yes"/>
      <point x="54" y="330"/>
      <point x="28" y="346"/>
      <point x="28" y="387" type="curve" smooth="yes"/>
      <point x="28" y="422"/>
      <point x="50" y="439"/>
      <point x="85" y="439" type="curve" smooth="yes"/>
      <point x="121" y="439"/>
      <point x="143" y="420"/>
    </contour>
  </outline>
</glyph>
<glyph name="ivowelsigntelu" format="2">
  <unicode hex="0C3F"/>
  <outline>
    <contour>
      <point x="-214" y="568" type="curve"/>
      <point x="-226" y="619" type="line"/>
      <point x="-245" y="612"/>
      <point x="-271" y="606"/>
      <point x="-302" y="606" type="curve" smooth="yes"/>
      <point x="-344" y="606"/>
      <point x="-360" y="616"/>
      <point x="-360" y="642" type="curve" smooth="yes"/>
      <point x="-360" y="670"/>
      <point x="-333" y="681"/>
      <point x="-294" y="681" type="curve" smooth="yes"/>
      <point x="-225" y="681"/>
      <point x="-187" y="652"/>
      <point x="-187" y="592" type="curve" smooth="yes"/>
      <point x="-187" y="546"/>
      <point x="-218" y="511"/>
      <point x="-291" y="511" type="curve" smooth="yes"/>
      <point x="-349" y="511"/>
      <point x="-385" y="523"/>
      <point x="-423" y="553" type="curve"/>
      <point x="-459" y="498" type="line"/>
      <point x="-405" y="463"/>
      <point x="-363" y="454"/>
      <point x="-292" y="454" type="curve" smooth="yes"/>
      <point x="-148" y="454"/>
      <point x="-108" y="535"/>
      <point x="-108" y="614" type="curve" smooth="yes"/>
      <point x="-108" y="698"/>
      <point x="-169" y="774"/>
      <point x="-292" y="774" type="curve" smooth="yes"/>
      <point x="-389" y="774"/>
      <point x="-445" y="726"/>
      <point x="-445" y="659" type="curve" smooth="yes"/>
      <point x="-445" y="598"/>
      <point x="-407" y="552"/>
      <point x="-300" y="552" type="curve" smooth="yes"/>
      <point x="-268" y="552"/>
      <point x="-237" y="556"/>
    </contour>
  </outline>
</glyph>
<glyph name="iivowelsigntelu" format="2">
  <unicode hex="0C40"/>
  <outline>
    <contour>
      <point x="-214" y="563" type="curve"/>
      <point x="-226" y="615" type="line"/>
      <point x="-245" y="608"/>
      <point x="-271" y="602"/>
      <point x="-309" y="602" type="curve" smooth="yes"/>
      <point x="-345" y="602"/>
      <point x="-362" y="610"/>
      <point x="-362" y="632" type="curve" smooth="yes"/>
      <point x="-362" y="656"/>
      <point x="-336" y="664"/>
      <point x="-298" y="664" type="curve" smooth="yes"/>
      <point x="-225" y="664"/>
      <point x="-187" y="639"/>
      <point x="-187" y="584" type="curve" smooth="yes"/>
      <point x="-187" y="546"/>
      <point x="-215" y="511"/>
      <point x="-291" y="511" type="curve" smooth="yes"/>
      <point x="-349" y="511"/>
      <point x="-385" y="523"/>
      <point x="-423" y="553" type="curve"/>
      <point x="-459" y="498" type="line"/>
      <point x="-405" y="463"/>
      <point x="-363" y="454"/>
      <point x="-289" y="454" type="curve" smooth="yes"/>
      <point x="-143" y="454"/>
      <point x="-108" y="535"/>
      <point x="-108" y="599" type="curve" smooth="yes"/>
      <point x="-108" y="680"/>
      <point x="-165" y="743"/>
      <point x="-287" y="743" type="curve" smooth="yes"/>
      <point x="-379" y="743"/>
      <point x="-444" y="703"/>
      <point x="-444" y="643" type="curve" smooth="yes"/>
      <point x="-444" y="590"/>
      <point x="-407" y="548"/>
      <point x="-300" y="548" type="curve" smooth="yes"/>
      <point x="-268" y="548"/>
      <point x="-237" y="552"/>
    </contour>
    <contour>
      <point x="-287" y="869" type="curve" smooth="yes"/>
      <point x="-393" y="869"/>
      <point x="-436" y="817"/>
      <point x="-436" y="758" type="curve" smooth="yes"/>
      <point x="-436" y="719"/>
      <point x="-413" y="684"/>
      <point x="-392" y="666" type="curve"/>
      <point x="-330" y="691" type="line"/>
      <point x="-353" y="705"/>
      <point x="-367" y="722"/>
      <point x="-367" y="741" type="curve" smooth="yes"/>
      <point x="-367" y="775"/>
      <point x="-341" y="789"/>
      <point x="-289" y="789" type="curve" smooth="yes"/>
      <point x="-230" y="789"/>
      <point x="-201" y="766"/>
      <point x="-188" y="729" type="curve"/>
      <point x="-125" y="732" type="line"/>
      <point x="-134" y="802"/>
      <point x="-176" y="869"/>
    </contour>
  </outline>
</glyph>
<glyph name="uvowelsigntelu" format="2">
  <advance width="323"/>
  <unicode hex="0C41"/>
  <outline>
    <contour>
      <point x="128" y="-12" type="curve" smooth="yes"/>
      <point x="243" y="-12"/>
      <point x="294" y="86"/>
      <point x="294" y="221" type="curve" smooth="yes"/>
      <point x="294" y="393"/>
      <point x="192" y="509"/>
      <point x="16" y="515" type="curve"/>
      <point x="10" y="386" type="line"/>
      <point x="153" y="382"/>
      <point x="224" y="346"/>
      <point x="224" y="274" type="curve" smooth="yes"/>
      <point x="224" y="231"/>
      <point x="189" y="204"/>
      <point x="115" y="204" type="curve" smooth="yes"/>
      <point x="44" y="204"/>
      <point x="2" y="223"/>
      <point x="-57" y="265" type="curve"/>
      <point x="-92" y="246" type="line"/>
      <point x="-37" y="72"/>
      <point x="23" y="-12"/>
    </contour>
  </outline>
</glyph>
<glyph name="uuvowelsigntelu" format="2">
  <advance width="658"/>
  <unicode hex="0C42"/>
  <outline>
    <contour>
      <point x="135" y="-12" type="curve" smooth="yes"/>
      <point x="251" y="-12"/>
      <point x="304" y="86"/>
      <point x="304" y="217" type="curve" smooth="yes"/>
      <point x="304" y="322"/>
      <point x="261" y="393"/>
      <point x="198" y="415" type="curve"/>
      <point x="108" y="425" type="line"/>
      <point x="84" y="383" type="line"/>
      <point x="179" y="376"/>
      <point x="227" y="338"/>
      <point x="227" y="278" type="curve" smooth="yes"/>
      <point x="227" y="232"/>
      <point x="198" y="204"/>
      <point x="122" y="204" type="curve" smooth="yes"/>
      <point x="44" y="204"/>
      <point x="2" y="223"/>
      <point x="-57" y="265" type="curve"/>
      <point x="-92" y="246" type="line"/>
      <point x="-37" y="72"/>
      <point x="28" y="-12"/>
    </contour>
    <contour>
      <point x="391" y="511" type="curve" smooth="yes"/>
      <point x="39" y="511" type="line"/>
      <point x="21" y="382" type="line"/>
      <point x="214" y="382" type="line"/>
      <point x="229" y="386" type="line"/>
      <point x="259" y="383"/>
      <point x="285" y="382"/>
      <point x="308" y="382" type="curve" smooth="yes"/>
      <point x="403" y="382" type="line"/>
      <point x="377" y="403" type="line"/>
      <point x="373" y="397"/>
      <point x="365" y="381"/>
      <point x="365" y="348" type="curve" smooth="yes"/>
      <point x="365" y="268"/>
      <point x="411" y="220"/>
      <point x="498" y="220" type="curve" smooth="yes"/>
      <point x="587" y="220"/>
      <point x="641" y="264"/>
      <point x="641" y="353" type="curve" smooth="yes"/>
      <point x="641" y="410"/>
      <point x="618" y="447"/>
      <point x="581" y="473" type="curve" smooth="yes"/>
      <point x="545" y="499"/>
      <point x="494" y="511"/>
    </contour>
    <contour>
      <point x="556" y="335" type="curve" smooth="yes"/>
      <point x="556" y="293"/>
      <point x="530" y="278"/>
      <point x="496" y="278" type="curve" smooth="yes"/>
      <point x="467" y="278"/>
      <point x="441" y="294"/>
      <point x="441" y="335" type="curve" smooth="yes"/>
      <point x="441" y="370"/>
      <point x="463" y="387"/>
      <point x="498" y="387" type="curve" smooth="yes"/>
      <point x="534" y="387"/>
      <point x="556" y="368"/>
    </contour>
  </outline>
</glyph>
<glyph name="rvocalicvowelsigntelu" format="2">
  <advance width="360"/>
  <unicode hex="0C43"/>
  <outline>
    <contour>
      <point x="37" y="513" type="curve"/>
      <point x="-21" y="422" type="line"/>
      <point x="167" y="331"/>
      <point x="286" y="149"/>
      <point x="286" y="-43" type="curve" smooth="yes"/>
      <point x="286" y="-177"/>
      <point x="220" y="-271"/>
      <point x="84" y="-271" type="curve" smooth="yes"/>
      <point x="-5" y="-271"/>
      <point x="-68" y="-247"/>
      <point x="-68" y="-169" type="curve" smooth="yes"/>
      <point x="-68" y="-128"/>
      <point x="-48" y="-102"/>
      <point x="-18" y="-73" type="curve"/>
      <point x="-24" y="-58" type="line"/>
      <point x="-46" y="-83"/>
      <point x="-57" y="-106"/>
      <point x="-57" y="-138" type="curve" smooth="yes"/>
      <point x="-57" y="-197"/>
      <point x="-11" y="-237"/>
      <point x="61" y="-237" type="curve" smooth="yes"/>
      <point x="150" y="-237"/>
      <point x="191" y="-195"/>
      <point x="191" y="-128" type="curve" smooth="yes"/>
      <point x="191" y="-66"/>
      <point x="149" y="-15"/>
      <point x="56" y="-15" type="curve" smooth="yes"/>
      <point x="-54" y="-15"/>
      <point x="-126" y="-88"/>
      <point x="-126" y="-199" type="curve" smooth="yes"/>
      <point x="-126" y="-343"/>
      <point x="-31" y="-397"/>
      <point x="87" y="-397" type="curve" smooth="yes"/>
      <point x="266" y="-397"/>
      <point x="354" y="-266"/>
      <point x="354" y="-38" type="curve" smooth="yes"/>
      <point x="354" y="227"/>
      <point x="214" y="422"/>
    </contour>
    <contour>
      <point x="56" y="-81" type="curve" smooth="yes"/>
      <point x="89" y="-81"/>
      <point x="107" y="-102"/>
      <point x="107" y="-130" type="curve" smooth="yes"/>
      <point x="107" y="-163"/>
      <point x="89" y="-181"/>
      <point x="57" y="-181" type="curve" smooth="yes"/>
      <point x="23" y="-181"/>
      <point x="5" y="-159"/>
      <point x="5" y="-133" type="curve" smooth="yes"/>
      <point x="5" y="-101"/>
      <point x="26" y="-81"/>
    </contour>
  </outline>
</glyph>
<glyph name="rrvocalicvowelsigntelu" format="2">
  <advance width="628"/>
  <unicode hex="0C44"/>
  <outline>
    <contour>
      <point x="36" y="474" type="curve"/>
      <point x="-18" y="424" type="line"/>
      <point x="150" y="339"/>
      <point x="286" y="176"/>
      <point x="286" y="-43" type="curve" smooth="yes"/>
      <point x="286" y="-177"/>
      <point x="220" y="-271"/>
      <point x="84" y="-271" type="curve" smooth="yes"/>
      <point x="-5" y="-271"/>
      <point x="-68" y="-247"/>
      <point x="-68" y="-169" type="curve" smooth="yes"/>
      <point x="-68" y="-128"/>
      <point x="-48" y="-102"/>
      <point x="-18" y="-73" type="curve"/>
      <point x="-24" y="-58" type="line"/>
      <point x="-46" y="-83"/>
      <point x="-57" y="-106"/>
      <point x="-57" y="-140" type="curve" smooth="yes"/>
      <point x="-57" y="-197"/>
      <point x="-11" y="-237"/>
      <point x="61" y="-237" type="curve" smooth="yes"/>
      <point x="150" y="-237"/>
      <point x="191" y="-195"/>
      <point x="191" y="-130" type="curve" smooth="yes"/>
      <point x="191" y="-66"/>
      <point x="149" y="-15"/>
      <point x="56" y="-15" type="curve" smooth="yes"/>
      <point x="-54" y="-15"/>
      <point x="-126" y="-88"/>
      <point x="-126" y="-199" type="curve" smooth="yes"/>
      <point x="-126" y="-343"/>
      <point x="-31" y="-397"/>
      <point x="85" y="-397" type="curve" smooth="yes"/>
      <point x="266" y="-397"/>
      <point x="354" y="-266"/>
      <point x="354" y="-38" type="curve" smooth="yes"/>
      <point x="354" y="204"/>
      <point x="234" y="364"/>
    </contour>
    <contour>
      <point x="56" y="-81" type="curve" smooth="yes"/>
      <point x="89" y="-81"/>
      <point x="107" y="-102"/>
      <point x="107" y="-130" type="curve" smooth="yes"/>
      <point x="107" y="-163"/>
      <point x="89" y="-181"/>
      <point x="57" y="-181" type="curve" smooth="yes"/>
      <point x="23" y="-181"/>
      <point x="5" y="-159"/>
      <point x="5" y="-133" type="curve" smooth="yes"/>
      <point x="5" y="-101"/>
      <point x="26" y="-81"/>
    </contour>
    <contour>
      <point x="361" y="511" type="curve" smooth="yes"/>
      <point x="19" y="511" type="line"/>
      <point x="-18" y="424" type="line"/>
      <point x="136" y="394" type="line"/>
      <point x="152" y="388" type="line"/>
      <point x="187" y="383"/>
      <point x="238" y="382"/>
      <point x="261" y="382" type="curve" smooth="yes"/>
      <point x="373" y="382" type="line"/>
      <point x="347" y="403" type="line"/>
      <point x="343" y="397"/>
      <point x="335" y="381"/>
      <point x="335" y="348" type="curve" smooth="yes"/>
      <point x="335" y="268"/>
      <point x="381" y="220"/>
      <point x="468" y="220" type="curve" smooth="yes"/>
      <point x="557" y="220"/>
      <point x="611" y="264"/>
      <point x="611" y="353" type="curve" smooth="yes"/>
      <point x="611" y="410"/>
      <point x="588" y="447"/>
      <point x="551" y="473" type="curve" smooth="yes"/>
      <point x="515" y="499"/>
      <point x="464" y="511"/>
    </contour>
    <contour>
      <point x="526" y="335" type="curve" smooth="yes"/>
      <point x="526" y="293"/>
      <point x="500" y="278"/>
      <point x="466" y="278" type="curve" smooth="yes"/>
      <point x="437" y="278"/>
      <point x="411" y="294"/>
      <point x="411" y="335" type="curve" smooth="yes"/>
      <point x="411" y="370"/>
      <point x="433" y="387"/>
      <point x="468" y="387" type="curve" smooth="yes"/>
      <point x="504" y="387"/>
      <point x="526" y="368"/>
    </contour>
  </outline>
</glyph>
<glyph name="evowelsigntelu" format="2">
  <unicode hex="0C46"/>
  <outline>
    <contour>
      <point x="-543" y="583" type="line"/>
      <point x="-182" y="583" type="line" smooth="yes"/>
      <point x="-128" y="583"/>
      <point x="-118" y="569"/>
      <point x="-118" y="545" type="curve" smooth="yes"/>
      <point x="-118" y="519"/>
      <point x="-139" y="511"/>
      <point x="-189" y="511" type="curve" smooth="yes"/>
      <point x="-287" y="511" type="line"/>
      <point x="-287" y="454" type="line"/>
      <point x="-197" y="454" type="line" smooth="yes"/>
      <point x="-97" y="454"/>
      <point x="-31" y="477"/>
      <point x="-31" y="578" type="curve" smooth="yes"/>
      <point x="-31" y="621"/>
      <point x="-48" y="663"/>
      <point x="-89" y="688" type="curve" smooth="yes"/>
      <point x="-121" y="708"/>
      <point x="-155" y="719"/>
      <point x="-253" y="719" type="curve" smooth="yes"/>
      <point x="-526" y="719" type="line"/>
    </contour>
  </outline>
</glyph>
<glyph name="eevowelsigntelu" format="2">
  <unicode hex="0C47"/>
  <outline>
    <contour>
      <point x="-543" y="583" type="line"/>
      <point x="-182" y="583" type="line" smooth="yes"/>
      <point x="-128" y="583"/>
      <point x="-118" y="569"/>
      <point x="-118" y="545" type="curve" smooth="yes"/>
      <point x="-118" y="519"/>
      <point x="-139" y="511"/>
      <point x="-189" y="511" type="curve" smooth="yes"/>
      <point x="-287" y="511" type="line"/>
      <point x="-287" y="454" type="line"/>
      <point x="-197" y="454" type="line" smooth="yes"/>
      <point x="-97" y="454"/>
      <point x="-31" y="477"/>
      <point x="-31" y="578" type="curve" smooth="yes"/>
      <point x="-31" y="620"/>
      <point x="-48" y="663"/>
      <point x="-89" y="687" type="curve" smooth="yes"/>
      <point x="-121" y="706"/>
      <point x="-152" y="716"/>
      <point x="-248" y="716" type="curve" smooth="yes"/>
      <point x="-526" y="716" type="line"/>
    </contour>
    <contour>
      <point x="-159" y="865" type="curve" smooth="yes"/>
      <point x="-255" y="865"/>
      <point x="-298" y="813"/>
      <point x="-298" y="754" type="curve" smooth="yes"/>
      <point x="-298" y="715"/>
      <point x="-275" y="681"/>
      <point x="-254" y="663" type="curve"/>
      <point x="-191" y="679" type="line"/>
      <point x="-214" y="693"/>
      <point x="-228" y="709"/>
      <point x="-228" y="728" type="curve" smooth="yes"/>
      <point x="-228" y="762"/>
      <point x="-202" y="776"/>
      <point x="-160" y="776" type="curve" smooth="yes"/>
      <point x="-111" y="776"/>
      <point x="-79" y="752"/>
      <point x="-67" y="701" type="curve"/>
      <point x="-5" y="705" type="line"/>
      <point x="-12" y="798"/>
      <point x="-56" y="865"/>
    </contour>
  </outline>
</glyph>
<glyph name="ovowelsigntelu" format="2">
  <advance width="216"/>
  <unicode hex="0C4A"/>
  <outline>
    <contour>
      <point x="89" y="442" type="curve" smooth="yes"/>
      <point x="176" y="442"/>
      <point x="230" y="484"/>
      <point x="230" y="573" type="curve" smooth="yes"/>
      <point x="230" y="626"/>
      <point x="207" y="663"/>
      <point x="170" y="689" type="curve" smooth="yes"/>
      <point x="134" y="715"/>
      <point x="83" y="726"/>
      <point x="1" y="726" type="curve" smooth="yes"/>
      <point x="-24" y="726" type="line" smooth="yes"/>
      <point x="-130" y="726"/>
      <point x="-190" y="678"/>
      <point x="-207" y="590" type="curve"/>
      <point x="-175" y="589" type="line"/>
      <point x="-184" y="667"/>
      <point x="-240" y="730"/>
      <point x="-332" y="730" type="curve" smooth="yes"/>
      <point x="-338" y="730" type="line" smooth="yes"/>
      <point x="-433" y="730"/>
      <point x="-490" y="670"/>
      <point x="-490" y="598" type="curve" smooth="yes"/>
      <point x="-490" y="507"/>
      <point x="-418" y="454"/>
      <point x="-310" y="454" type="curve" smooth="yes"/>
      <point x="-277" y="454" type="line"/>
      <point x="-277" y="511" type="line"/>
      <point x="-324" y="511" type="line" smooth="yes"/>
      <point x="-361" y="511"/>
      <point x="-397" y="520"/>
      <point x="-397" y="554" type="curve" smooth="yes"/>
      <point x="-397" y="580"/>
      <point x="-378" y="598"/>
      <point x="-332" y="598" type="curve" smooth="yes"/>
      <point x="-311" y="598" type="line" smooth="yes"/>
      <point x="-260" y="598"/>
      <point x="-229" y="571"/>
      <point x="-215" y="526" type="curve"/>
      <point x="-164" y="526" type="line"/>
      <point x="-154" y="573"/>
      <point x="-126" y="594"/>
      <point x="-77" y="594" type="curve" smooth="yes"/>
      <point x="-14" y="594" type="line"/>
      <point x="-28" y="621" type="line"/>
      <point x="-33" y="609"/>
      <point x="-40" y="591"/>
      <point x="-40" y="567" type="curve" smooth="yes"/>
      <point x="-40" y="488"/>
      <point x="7" y="442"/>
    </contour>
    <contour>
      <point x="87" y="500" type="curve" smooth="yes"/>
      <point x="60" y="500"/>
      <point x="34" y="514"/>
      <point x="34" y="555" type="curve" smooth="yes"/>
      <point x="34" y="588"/>
      <point x="56" y="605"/>
      <point x="89" y="605" type="curve" smooth="yes"/>
      <point x="123" y="605"/>
      <point x="145" y="586"/>
      <point x="145" y="555" type="curve" smooth="yes"/>
      <point x="145" y="513"/>
      <point x="119" y="500"/>
    </contour>
  </outline>
</glyph>
<glyph name="oovowelsigntelu" format="2">
  <advance width="216"/>
  <unicode hex="0C4B"/>
  <outline>
    <contour>
      <point x="89" y="442" type="curve" smooth="yes"/>
      <point x="176" y="442"/>
      <point x="230" y="484"/>
      <point x="230" y="572" type="curve" smooth="yes"/>
      <point x="230" y="625"/>
      <point x="207" y="662"/>
      <point x="170" y="687" type="curve" smooth="yes"/>
      <point x="133" y="712"/>
      <point x="87" y="722"/>
      <point x="15" y="722" type="curve" smooth="yes"/>
      <point x="-24" y="722" type="line" smooth="yes"/>
      <point x="-130" y="722"/>
      <point x="-190" y="678"/>
      <point x="-207" y="590" type="curve"/>
      <point x="-175" y="589" type="line"/>
      <point x="-184" y="667"/>
      <point x="-240" y="730"/>
      <point x="-332" y="730" type="curve" smooth="yes"/>
      <point x="-338" y="730" type="line" smooth="yes"/>
      <point x="-433" y="730"/>
      <point x="-490" y="670"/>
      <point x="-490" y="598" type="curve" smooth="yes"/>
      <point x="-490" y="507"/>
      <point x="-418" y="454"/>
      <point x="-310" y="454" type="curve" smooth="yes"/>
      <point x="-277" y="454" type="line"/>
      <point x="-277" y="511" type="line"/>
      <point x="-324" y="511" type="line" smooth="yes"/>
      <point x="-361" y="511"/>
      <point x="-397" y="520"/>
      <point x="-397" y="554" type="curve" smooth="yes"/>
      <point x="-397" y="580"/>
      <point x="-378" y="598"/>
      <point x="-332" y="598" type="curve" smooth="yes"/>
      <point x="-310" y="598" type="line" smooth="yes"/>
      <point x="-259" y="598"/>
      <point x="-229" y="571"/>
      <point x="-215" y="526" type="curve"/>
      <point x="-164" y="526" type="line"/>
      <point x="-154" y="573"/>
      <point x="-126" y="594"/>
      <point x="-77" y="594" type="curve" smooth="yes"/>
      <point x="-14" y="594" type="line"/>
      <point x="-28" y="621" type="line"/>
      <point x="-33" y="609"/>
      <point x="-40" y="591"/>
      <point x="-40" y="567" type="curve" smooth="yes"/>
      <point x="-40" y="488"/>
      <point x="7" y="442"/>
    </contour>
    <contour>
      <point x="87" y="500" type="curve" smooth="yes"/>
      <point x="60" y="500"/>
      <point x="34" y="514"/>
      <point x="34" y="555" type="curve" smooth="yes"/>
      <point x="34" y="588"/>
      <point x="56" y="605"/>
      <point x="89" y="605" type="curve" smooth="yes"/>
      <point x="123" y="605"/>
      <point x="145" y="586"/>
      <point x="145" y="555" type="curve" smooth="yes"/>
      <point x="145" y="513"/>
      <point x="119" y="500"/>
    </contour>
    <contour>
      <point x="105" y="864" type="curve" smooth="yes"/>
      <point x="10" y="864"/>
      <point x="-33" y="812"/>
      <point x="-33" y="753" type="curve" smooth="yes"/>
      <point x="-33" y="714"/>
      <point x="-10" y="680"/>
      <point x="11" y="662" type="curve"/>
      <point x="74" y="678" type="line"/>
      <point x="51" y="692"/>
      <point x="37" y="708"/>
      <point x="37" y="727" type="curve" smooth="yes"/>
      <point x="37" y="761"/>
      <point x="63" y="775"/>
      <point x="104" y="775" type="curve" smooth="yes"/>
      <point x="153" y="775"/>
      <point x="185" y="751"/>
      <point x="197" y="700" type="curve"/>
      <point x="259" y="704" type="line"/>
      <point x="252" y="797"/>
      <point x="208" y="864"/>
    </contour>
  </outline>
</glyph>
<glyph name="auvowelsigntelu" format="2">
  <advance width="239"/>
  <unicode hex="0C4C"/>
  <outline>
    <contour>
      <point x="-398" y="583" type="line"/>
      <point x="-250" y="583" type="line" smooth="yes"/>
      <point x="-201" y="583"/>
      <point x="-191" y="569"/>
      <point x="-191" y="545" type="curve" smooth="yes"/>
      <point x="-191" y="519"/>
      <point x="-207" y="511"/>
      <point x="-246" y="511" type="curve" smooth="yes"/>
      <point x="-339" y="511" type="line"/>
      <point x="-339" y="454" type="line"/>
      <point x="-271" y="454" type="line" smooth="yes"/>
      <point x="-171" y="454"/>
      <point x="-106" y="477"/>
      <point x="-106" y="545" type="curve" smooth="yes"/>
      <point x="-106" y="623"/>
      <point x="-192" y="639"/>
      <point x="-286" y="639" type="curve" smooth="yes"/>
      <point x="-381" y="639" type="line"/>
    </contour>
    <contour>
      <point x="5" y="714" type="curve" smooth="yes"/>
      <point x="-447" y="714" type="line"/>
      <point x="-463" y="583" type="line"/>
      <point x="17" y="583" type="line"/>
      <point x="-7" y="610" type="line"/>
      <point x="-12" y="598"/>
      <point x="-19" y="580"/>
      <point x="-19" y="556" type="curve" smooth="yes"/>
      <point x="-19" y="477"/>
      <point x="28" y="431"/>
      <point x="112" y="431" type="curve" smooth="yes"/>
      <point x="199" y="431"/>
      <point x="253" y="473"/>
      <point x="253" y="562" type="curve" smooth="yes"/>
      <point x="253" y="615"/>
      <point x="230" y="650"/>
      <point x="193" y="676" type="curve" smooth="yes"/>
      <point x="158" y="701"/>
      <point x="108" y="714"/>
    </contour>
    <contour>
      <point x="110" y="489" type="curve" smooth="yes"/>
      <point x="83" y="489"/>
      <point x="57" y="503"/>
      <point x="57" y="544" type="curve" smooth="yes"/>
      <point x="57" y="577"/>
      <point x="79" y="594"/>
      <point x="112" y="594" type="curve" smooth="yes"/>
      <point x="146" y="594"/>
      <point x="168" y="575"/>
      <point x="168" y="544" type="curve" smooth="yes"/>
      <point x="168" y="502"/>
      <point x="142" y="489"/>
    </contour>
  </outline>
</glyph>
<glyph name="viramatelu" format="2">
  <unicode hex="0C4D"/>
  <outline>
    <contour>
      <point x="54" y="839" type="line"/>
      <point x="-195" y="839" type="line" smooth="yes"/>
      <point x="-280" y="839"/>
      <point x="-319" y="830"/>
      <point x="-355" y="806" type="curve" smooth="yes"/>
      <point x="-384" y="787"/>
      <point x="-406" y="753"/>
      <point x="-406" y="713" type="curve" smooth="yes"/>
      <point x="-406" y="645"/>
      <point x="-365" y="614"/>
      <point x="-313" y="596" type="curve"/>
      <point x="-315" y="624" type="line"/>
      <point x="-365" y="614"/>
      <point x="-396" y="584"/>
      <point x="-396" y="544" type="curve" smooth="yes"/>
      <point x="-396" y="489"/>
      <point x="-359" y="454"/>
      <point x="-244" y="454" type="curve" smooth="yes"/>
      <point x="-205" y="454" type="line"/>
      <point x="-200" y="511" type="line"/>
      <point x="-259" y="511" type="line" smooth="yes"/>
      <point x="-290" y="511"/>
      <point x="-315" y="520"/>
      <point x="-315" y="547" type="curve" smooth="yes"/>
      <point x="-315" y="574"/>
      <point x="-291" y="580"/>
      <point x="-259" y="580" type="curve" smooth="yes"/>
      <point x="-116" y="580" type="line"/>
      <point x="-111" y="641" type="line"/>
      <point x="-259" y="641" type="line" smooth="yes"/>
      <point x="-296" y="641"/>
      <point x="-317" y="651"/>
      <point x="-317" y="676" type="curve" smooth="yes"/>
      <point x="-317" y="700"/>
      <point x="-299" y="710"/>
      <point x="-255" y="710" type="curve" smooth="yes"/>
      <point x="37" y="710" type="line"/>
    </contour>
  </outline>
</glyph>
<glyph name="lengthmarktelu" format="2">
  <unicode hex="0C55"/>
  <outline>
    <contour>
      <point x="-162" y="688" type="curve" smooth="yes"/>
      <point x="-268" y="688"/>
      <point x="-311" y="636"/>
      <point x="-311" y="577" type="curve" smooth="yes"/>
      <point x="-311" y="538"/>
      <point x="-288" y="503"/>
      <point x="-267" y="485" type="curve"/>
      <point x="-204" y="501" type="line"/>
      <point x="-227" y="515"/>
      <point x="-241" y="532"/>
      <point x="-241" y="551" type="curve" smooth="yes"/>
      <point x="-241" y="585"/>
      <point x="-215" y="599"/>
      <point x="-164" y="599" type="curve" smooth="yes"/>
      <point x="-105" y="599"/>
      <point x="-75" y="577"/>
      <point x="-61" y="536" type="curve"/>
      <point x="2" y="538" type="line"/>
      <point x="-4" y="620"/>
      <point x="-48" y="688"/>
    </contour>
  </outline>
</glyph>
<glyph name="ailengthmarktelu" format="2">
  <unicode hex="0C56"/>
  <outline>
    <contour>
      <point x="-318" y="-333" type="curve" smooth="yes"/>
      <point x="-20" y="-333" type="line"/>
      <point x="-2" y="-201" type="line"/>
      <point x="-331" y="-201" type="line"/>
      <point x="-303" y="-229" type="line"/>
      <point x="-299" y="-223"/>
      <point x="-291" y="-201"/>
      <point x="-291" y="-176" type="curve" smooth="yes"/>
      <point x="-291" y="-97"/>
      <point x="-335" y="-48"/>
      <point x="-426" y="-48" type="curve" smooth="yes"/>
      <point x="-512" y="-48"/>
      <point x="-569" y="-96"/>
      <point x="-569" y="-180" type="curve" smooth="yes"/>
      <point x="-569" y="-235"/>
      <point x="-545" y="-271"/>
      <point x="-508" y="-297" type="curve" smooth="yes"/>
      <point x="-472" y="-323"/>
      <point x="-419" y="-333"/>
    </contour>
    <contour>
      <point x="-484" y="-162" type="curve" smooth="yes"/>
      <point x="-484" y="-121"/>
      <point x="-457" y="-106"/>
      <point x="-426" y="-106" type="curve" smooth="yes"/>
      <point x="-396" y="-106"/>
      <point x="-373" y="-122"/>
      <point x="-373" y="-162" type="curve" smooth="yes"/>
      <point x="-373" y="-195"/>
      <point x="-391" y="-212"/>
      <point x="-428" y="-212" type="curve" smooth="yes"/>
      <point x="-462" y="-212"/>
      <point x="-484" y="-193"/>
    </contour>
  </outline>
</glyph>
<glyph name="tsatelu" format="2">
  <advance width="760"/>
  <unicode hex="0C58"/>
  <outline>
    <contour>
      <point x="566" y="-12" type="curve" smooth="yes"/>
      <point x="685" y="-12"/>
      <point x="731" y="86"/>
      <point x="731" y="210" type="curve" smooth="yes"/>
      <point x="731" y="398"/>
      <point x="626" y="455"/>
      <point x="511" y="467" type="curve"/>
      <point x="460" y="407" type="line"/>
      <point x="577" y="407"/>
      <point x="650" y="359"/>
      <point x="650" y="281" type="curve" smooth="yes"/>
      <point x="650" y="228"/>
      <point x="612" y="204"/>
      <point x="559" y="204" type="curve" smooth="yes"/>
      <point x="505" y="204"/>
      <point x="462" y="220"/>
      <point x="435" y="279" type="curve"/>
      <point x="381" y="279" type="line"/>
      <point x="363" y="236"/>
      <point x="327" y="204"/>
      <point x="263" y="204" type="curve" smooth="yes"/>
      <point x="212" y="204"/>
      <point x="190" y="222"/>
      <point x="190" y="256" type="curve" smooth="yes"/>
      <point x="190" y="288"/>
      <point x="218" y="310"/>
      <point x="268" y="334" type="curve"/>
      <point x="268" y="385" type="line"/>
      <point x="26" y="407" type="line"/>
      <point x="17" y="308" type="line"/>
      <point x="193" y="311" type="line"/>
      <point x="212" y="353" type="line"/>
      <point x="135" y="321"/>
      <point x="75" y="261"/>
      <point x="75" y="164" type="curve" smooth="yes"/>
      <point x="75" y="41"/>
      <point x="154" y="-12"/>
      <point x="240" y="-12" type="curve" smooth="yes"/>
      <point x="340" y="-12"/>
      <point x="394" y="42"/>
      <point x="424" y="153" type="curve"/>
      <point x="392" y="156" type="line"/>
      <point x="417" y="49"/>
      <point x="481" y="-12"/>
    </contour>
    <contour>
      <point x="422" y="584" type="curve"/>
      <point x="256" y="574" type="line"/>
      <point x="290" y="503"/>
      <point x="350" y="442"/>
      <point x="415" y="407" type="curve"/>
      <point x="477" y="407" type="line"/>
      <point x="545" y="443"/>
      <point x="626" y="512"/>
      <point x="729" y="610" type="curve"/>
      <point x="665" y="671" type="line"/>
      <point x="597" y="595"/>
      <point x="519" y="523"/>
      <point x="453" y="464" type="curve"/>
      <point x="437" y="512"/>
      <point x="429" y="547"/>
    </contour>
    <contour>
      <point x="403" y="606" type="line" smooth="yes"/>
      <point x="479" y="606"/>
      <point x="535" y="613"/>
      <point x="571" y="637" type="curve" smooth="yes"/>
      <point x="608" y="661"/>
      <point x="631" y="696"/>
      <point x="631" y="749" type="curve" smooth="yes"/>
      <point x="631" y="825"/>
      <point x="574" y="869"/>
      <point x="488" y="869" type="curve" smooth="yes"/>
      <point x="397" y="869"/>
      <point x="353" y="820"/>
      <point x="353" y="752" type="curve" smooth="yes"/>
      <point x="353" y="729"/>
      <point x="361" y="709"/>
      <point x="365" y="704" type="curve"/>
      <point x="393" y="729" type="line"/>
      <point x="92" y="729" type="line"/>
      <point x="74" y="606" type="line"/>
    </contour>
    <contour>
      <point x="546" y="764" type="curve" smooth="yes"/>
      <point x="546" y="737"/>
      <point x="524" y="719"/>
      <point x="490" y="719" type="curve" smooth="yes"/>
      <point x="453" y="719"/>
      <point x="435" y="735"/>
      <point x="435" y="764" type="curve" smooth="yes"/>
      <point x="435" y="798"/>
      <point x="458" y="813"/>
      <point x="488" y="813" type="curve" smooth="yes"/>
      <point x="519" y="813"/>
      <point x="546" y="799"/>
    </contour>
  </outline>
</glyph>
<glyph name="rrratelu" format="2">
  <advance width="697"/>
  <unicode hex="0C5A"/>
  <outline>
    <contour>
      <point x="505" y="-12" type="curve" smooth="yes"/>
      <point x="613" y="-12"/>
      <point x="668" y="68"/>
      <point x="668" y="204" type="curve" smooth="yes"/>
      <point x="668" y="399"/>
      <point x="538" y="511"/>
      <point x="354" y="511" type="curve" smooth="yes"/>
      <point x="168" y="511"/>
      <point x="29" y="395"/>
      <point x="29" y="205" type="curve" smooth="yes"/>
      <point x="29" y="71"/>
      <point x="83" y="-12"/>
      <point x="194" y="-12" type="curve" smooth="yes"/>
      <point x="280" y="-12"/>
      <point x="336" y="40"/>
      <point x="365" y="153" type="curve"/>
      <point x="330" y="156" type="line"/>
      <point x="356" y="46"/>
      <point x="419" y="-12"/>
    </contour>
    <contour>
      <point x="480" y="204" type="curve" smooth="yes"/>
      <point x="417" y="204"/>
      <point x="397" y="232"/>
      <point x="376" y="269" type="curve"/>
      <point x="322" y="269" type="line"/>
      <point x="300" y="231"/>
      <point x="280" y="204"/>
      <point x="220" y="204" type="curve" smooth="yes"/>
      <point x="162" y="204"/>
      <point x="135" y="234"/>
      <point x="135" y="286" type="curve" smooth="yes"/>
      <point x="135" y="375"/>
      <point x="202" y="453"/>
      <point x="353" y="453" type="curve" smooth="yes"/>
      <point x="503" y="453"/>
      <point x="562" y="375"/>
      <point x="562" y="286" type="curve" smooth="yes"/>
      <point x="562" y="236"/>
      <point x="536" y="204"/>
    </contour>
    <contour>
      <point x="71" y="295" type="line"/>
      <point x="580" y="295" type="line"/>
      <point x="580" y="352" type="line"/>
      <point x="70" y="352" type="line"/>
    </contour>
  </outline>
</glyph>
<glyph name="llvocalictelu" format="2">
  <advance width="1130"/>
  <unicode hex="0C61"/>
  <outline>
    <contour>
      <point x="508" y="-143" type="curve" smooth="yes"/>
      <point x="684" y="-143"/>
      <point x="775" y="29"/>
      <point x="775" y="199" type="curve" smooth="yes"/>
      <point x="775" y="337"/>
      <point x="720" y="407"/>
      <point x="632" y="462" type="curve"/>
      <point x="560" y="436" type="line"/>
      <point x="641" y="393"/>
      <point x="705" y="338"/>
      <point x="705" y="220" type="curve" smooth="yes"/>
      <point x="705" y="103"/>
      <point x="632" y="39"/>
      <point x="531" y="39" type="curve" smooth="yes"/>
      <point x="463" y="39"/>
      <point x="432" y="63"/>
      <point x="432" y="105" type="curve" smooth="yes"/>
      <point x="432" y="135"/>
      <point x="441" y="163"/>
      <point x="486" y="225" type="curve" smooth="yes"/>
      <point x="531" y="288"/>
      <point x="555" y="333"/>
      <point x="555" y="392" type="curve" smooth="yes"/>
      <point x="555" y="460"/>
      <point x="513" y="511"/>
      <point x="433" y="511" type="curve" smooth="yes"/>
      <point x="339" y="511"/>
      <point x="281" y="436"/>
      <point x="258" y="351" type="curve"/>
      <point x="304" y="352" type="line"/>
      <point x="285" y="465"/>
      <point x="225" y="511"/>
      <point x="153" y="511" type="curve" smooth="yes"/>
      <point x="79" y="511"/>
      <point x="22" y="470"/>
      <point x="22" y="384" type="curve" smooth="yes"/>
      <point x="22" y="341"/>
      <point x="33" y="310"/>
      <point x="47" y="274" type="curve"/>
      <point x="113" y="290" type="line"/>
      <point x="106" y="304"/>
      <point x="99" y="322"/>
      <point x="99" y="342" type="curve" smooth="yes"/>
      <point x="99" y="377"/>
      <point x="125" y="391"/>
      <point x="157" y="391" type="curve" smooth="yes"/>
      <point x="200" y="391"/>
      <point x="232" y="370"/>
      <point x="254" y="310" type="curve"/>
      <point x="308" y="310" type="line"/>
      <point x="324" y="357"/>
      <point x="356" y="391"/>
      <point x="401" y="391" type="curve" smooth="yes"/>
      <point x="436" y="391"/>
      <point x="456" y="376"/>
      <point x="456" y="338" type="curve" smooth="yes"/>
      <point x="456" y="312"/>
      <point x="445" y="284"/>
      <point x="413" y="238" type="curve" smooth="yes"/>
      <point x="349" y="147"/>
      <point x="321" y="103"/>
      <point x="321" y="27" type="curve" smooth="yes"/>
      <point x="321" y="-77"/>
      <point x="385" y="-143"/>
    </contour>
    <contour>
      <point x="863" y="511" type="curve" smooth="yes"/>
      <point x="597" y="511" type="line"/>
      <point x="560" y="436" type="line"/>
      <point x="682" y="382" type="line"/>
      <point x="697" y="386" type="line"/>
      <point x="727" y="383"/>
      <point x="763" y="382"/>
      <point x="786" y="382" type="curve" smooth="yes"/>
      <point x="875" y="382" type="line"/>
      <point x="846" y="403" type="line"/>
      <point x="842" y="397"/>
      <point x="834" y="379"/>
      <point x="834" y="346" type="curve" smooth="yes"/>
      <point x="834" y="268"/>
      <point x="880" y="220"/>
      <point x="970" y="220" type="curve" smooth="yes"/>
      <point x="1059" y="220"/>
      <point x="1113" y="264"/>
      <point x="1113" y="353" type="curve" smooth="yes"/>
      <point x="1113" y="410"/>
      <point x="1090" y="447"/>
      <point x="1053" y="473" type="curve" smooth="yes"/>
      <point x="1017" y="499"/>
      <point x="966" y="511"/>
    </contour>
    <contour>
      <point x="1028" y="335" type="curve" smooth="yes"/>
      <point x="1028" y="293"/>
      <point x="1002" y="278"/>
      <point x="968" y="278" type="curve" smooth="yes"/>
      <point x="939" y="278"/>
      <point x="913" y="294"/>
      <point x="913" y="335" type="curve" smooth="yes"/>
      <point x="913" y="370"/>
      <point x="935" y="387"/>
      <point x="970" y="387" type="curve" smooth="yes"/>
      <point x="1006" y="387"/>
      <point x="1028" y="368"/>
    </contour>
  </outline>
</glyph>
<glyph name="lvocalicvowelsigntelu" format="2">
  <unicode hex="0C62"/>
  <outline>
    <contour>
      <point x="-183" y="-474" type="curve" smooth="yes"/>
      <point x="-62" y="-474"/>
      <point x="0" y="-365"/>
      <point x="0" y="-255" type="curve" smooth="yes"/>
      <point x="0" y="-152"/>
      <point x="-46" y="-91"/>
      <point x="-96" y="-56" type="curve"/>
      <point x="-142" y="-113" type="line"/>
      <point x="-87" y="-140"/>
      <point x="-54" y="-174"/>
      <point x="-54" y="-241" type="curve" smooth="yes"/>
      <point x="-54" y="-312"/>
      <point x="-106" y="-352"/>
      <point x="-167" y="-352" type="curve" smooth="yes"/>
      <point x="-211" y="-352"/>
      <point x="-232" y="-341"/>
      <point x="-232" y="-314" type="curve" smooth="yes"/>
      <point x="-232" y="-295"/>
      <point x="-225" y="-279"/>
      <point x="-194" y="-240" type="curve" smooth="yes"/>
      <point x="-163" y="-200"/>
      <point x="-151" y="-170"/>
      <point x="-151" y="-136" type="curve" smooth="yes"/>
      <point x="-151" y="-89"/>
      <point x="-180" y="-57"/>
      <point x="-231" y="-57" type="curve" smooth="yes"/>
      <point x="-296" y="-57"/>
      <point x="-338" y="-108"/>
      <point x="-355" y="-167" type="curve"/>
      <point x="-323" y="-166" type="line"/>
      <point x="-335" y="-93"/>
      <point x="-377" y="-57"/>
      <point x="-427" y="-57" type="curve" smooth="yes"/>
      <point x="-478" y="-57"/>
      <point x="-517" y="-84"/>
      <point x="-517" y="-142" type="curve" smooth="yes"/>
      <point x="-517" y="-172"/>
      <point x="-510" y="-196"/>
      <point x="-501" y="-219" type="curve"/>
      <point x="-450" y="-209" type="line"/>
      <point x="-456" y="-197"/>
      <point x="-460" y="-181"/>
      <point x="-460" y="-168" type="curve" smooth="yes"/>
      <point x="-460" y="-146"/>
      <point x="-442" y="-137"/>
      <point x="-424" y="-137" type="curve" smooth="yes"/>
      <point x="-398" y="-137"/>
      <point x="-374" y="-158"/>
      <point x="-362" y="-196" type="curve"/>
      <point x="-316" y="-196" type="line"/>
      <point x="-305" y="-166"/>
      <point x="-287" y="-137"/>
      <point x="-257" y="-137" type="curve" smooth="yes"/>
      <point x="-235" y="-137"/>
      <point x="-223" y="-150"/>
      <point x="-223" y="-166" type="curve" smooth="yes"/>
      <point x="-223" y="-183"/>
      <point x="-230" y="-199"/>
      <point x="-252" y="-228" type="curve" smooth="yes"/>
      <point x="-296" y="-286"/>
      <point x="-311" y="-316"/>
      <point x="-311" y="-361" type="curve" smooth="yes"/>
      <point x="-311" y="-432"/>
      <point x="-268" y="-474"/>
    </contour>
  </outline>
</glyph>
<glyph name="llvocalicvowelsigntelu" format="2">
  <advance width="242"/>
  <unicode hex="0C63"/>
  <outline>
    <contour>
      <point x="-183" y="-474" type="curve" smooth="yes"/>
      <point x="-62" y="-474"/>
      <point x="0" y="-365"/>
      <point x="0" y="-255" type="curve" smooth="yes"/>
      <point x="0" y="-158"/>
      <point x="-46" y="-111"/>
      <point x="-96" y="-76" type="curve"/>
      <point x="-142" y="-113" type="line"/>
      <point x="-87" y="-140"/>
      <point x="-54" y="-174"/>
      <point x="-54" y="-241" type="curve" smooth="yes"/>
      <point x="-54" y="-312"/>
      <point x="-106" y="-352"/>
      <point x="-167" y="-352" type="curve" smooth="yes"/>
      <point x="-211" y="-352"/>
      <point x="-232" y="-341"/>
      <point x="-232" y="-314" type="curve" smooth="yes"/>
      <point x="-232" y="-295"/>
      <point x="-225" y="-279"/>
      <point x="-194" y="-240" type="curve" smooth="yes"/>
      <point x="-163" y="-200"/>
      <point x="-151" y="-170"/>
      <point x="-151" y="-136" type="curve" smooth="yes"/>
      <point x="-151" y="-89"/>
      <point x="-180" y="-57"/>
      <point x="-231" y="-57" type="curve" smooth="yes"/>
      <point x="-296" y="-57"/>
      <point x="-338" y="-108"/>
      <point x="-355" y="-167" type="curve"/>
      <point x="-323" y="-166" type="line"/>
      <point x="-335" y="-93"/>
      <point x="-377" y="-57"/>
      <point x="-427" y="-57" type="curve" smooth="yes"/>
      <point x="-478" y="-57"/>
      <point x="-517" y="-84"/>
      <point x="-517" y="-142" type="curve" smooth="yes"/>
      <point x="-517" y="-172"/>
      <point x="-510" y="-196"/>
      <point x="-501" y="-219" type="curve"/>
      <point x="-450" y="-209" type="line"/>
      <point x="-456" y="-197"/>
      <point x="-460" y="-181"/>
      <point x="-460" y="-168" type="curve" smooth="yes"/>
      <point x="-460" y="-146"/>
      <point x="-442" y="-137"/>
      <point x="-424" y="-137" type="curve" smooth="yes"/>
      <point x="-398" y="-137"/>
      <point x="-374" y="-158"/>
      <point x="-362" y="-196" type="curve"/>
      <point x="-316" y="-196" type="line"/>
      <point x="-305" y="-166"/>
      <point x="-287" y="-137"/>
      <point x="-257" y="-137" type="curve" smooth="yes"/>
      <point x="-235" y="-137"/>
      <point x="-223" y="-150"/>
      <point x="-223" y="-166" type="curve" smooth="yes"/>
      <point x="-223" y="-183"/>
      <point x="-230" y="-199"/>
      <point x="-252" y="-228" type="curve" smooth="yes"/>
      <point x="-296" y="-286"/>
      <point x="-311" y="-316"/>
      <point x="-311" y="-361" type="curve" smooth="yes"/>
      <point x="-311" y="-432"/>
      <point x="-268" y="-474"/>
    </contour>
    <contour>
      <point x="101" y="-57" type="curve" smooth="yes"/>
      <point x="-106" y="-57" type="line"/>
      <point x="-142" y="-113" type="line"/>
      <point x="-41" y="-140" type="line"/>
      <point x="-21" y="-142"/>
      <point x="-3" y="-143"/>
      <point x="18" y="-143" type="curve" smooth="yes"/>
      <point x="70" y="-143" type="line"/>
      <point x="46" y="-130" type="line"/>
      <point x="40" y="-142"/>
      <point x="38" y="-154"/>
      <point x="38" y="-170" type="curve" smooth="yes"/>
      <point x="38" y="-225"/>
      <point x="74" y="-258"/>
      <point x="135" y="-258" type="curve" smooth="yes"/>
      <point x="201" y="-258"/>
      <point x="242" y="-227"/>
      <point x="242" y="-163" type="curve" smooth="yes"/>
      <point x="242" y="-78"/>
      <point x="175" y="-57"/>
    </contour>
    <contour>
      <point x="179" y="-175" type="curve" smooth="yes"/>
      <point x="179" y="-203"/>
      <point x="161" y="-213"/>
      <point x="136" y="-213" type="curve" smooth="yes"/>
      <point x="114" y="-213"/>
      <point x="96" y="-202"/>
      <point x="96" y="-175" type="curve" smooth="yes"/>
      <point x="96" y="-152"/>
      <point x="110" y="-140"/>
      <point x="137" y="-140" type="curve" smooth="yes"/>
      <point x="165" y="-140"/>
      <point x="179" y="-153"/>
    </contour>
  </outline>
</glyph>
<glyph name="zerotelu" format="2">
  <advance width="600"/>
  <unicode hex="0C66"/>
  <outline>
    <contour>
      <point x="29" y="248" type="curve" smooth="yes"/>
      <point x="29" y="93"/>
      <point x="122" y="-12"/>
      <point x="299" y="-12" type="curve" smooth="yes"/>
      <point x="479" y="-12"/>
      <point x="571" y="92"/>
      <point x="571" y="249" type="curve" smooth="yes"/>
      <point x="571" y="397"/>
      <point x="478" y="514"/>
      <point x="302" y="514" type="curve" smooth="yes"/>
      <point x="125" y="514"/>
      <point x="29" y="395"/>
    </contour>
    <contour>
      <point x="137" y="317" type="curve" smooth="yes"/>
      <point x="137" y="396"/>
      <point x="196" y="454"/>
      <point x="302" y="454" type="curve" smooth="yes"/>
      <point x="412" y="454"/>
      <point x="463" y="393"/>
      <point x="463" y="317" type="curve" smooth="yes"/>
      <point x="463" y="248"/>
      <point x="412" y="205"/>
      <point x="299" y="205" type="curve" smooth="yes"/>
      <point x="187" y="205"/>
      <point x="137" y="250"/>
    </contour>
  </outline>
</glyph>
<glyph name="twotelu" format="2">
  <advance width="636"/>
  <unicode hex="0C68"/>
  <outline>
    <contour>
      <point x="603" y="261" type="curve" smooth="yes"/>
      <point x="603" y="436"/>
      <point x="496" y="514"/>
      <point x="388" y="514" type="curve" smooth="yes"/>
      <point x="284" y="514"/>
      <point x="234" y="461"/>
      <point x="234" y="385" type="curve" smooth="yes"/>
      <point x="234" y="304"/>
      <point x="293" y="261"/>
      <point x="373" y="261" type="curve" smooth="yes"/>
      <point x="453" y="261"/>
      <point x="498" y="304"/>
      <point x="498" y="371" type="curve" smooth="yes"/>
      <point x="498" y="397"/>
      <point x="488" y="419"/>
      <point x="477" y="440" type="curve"/>
      <point x="438" y="436" type="line"/>
      <point x="499" y="411"/>
      <point x="530" y="362"/>
      <point x="530" y="312" type="curve" smooth="yes"/>
      <point x="530" y="283"/>
      <point x="521" y="262"/>
      <point x="505" y="245" type="curve" smooth="yes"/>
      <point x="482" y="221"/>
      <point x="443" y="209"/>
      <point x="363" y="209" type="curve" smooth="yes"/>
      <point x="43" y="209" type="line"/>
      <point x="16" y="0" type="line"/>
      <point x="310" y="0" type="line" smooth="yes"/>
      <point x="439" y="0"/>
      <point x="495" y="26"/>
      <point x="538" y="71" type="curve" smooth="yes"/>
      <point x="581" y="116"/>
      <point x="603" y="182"/>
    </contour>
    <contour>
      <point x="374" y="430" type="curve" smooth="yes"/>
      <point x="406" y="430"/>
      <point x="427" y="409"/>
      <point x="427" y="376" type="curve" smooth="yes"/>
      <point x="427" y="337"/>
      <point x="404" y="319"/>
      <point x="374" y="319" type="curve" smooth="yes"/>
      <point x="347" y="319"/>
      <point x="321" y="329"/>
      <point x="321" y="376" type="curve" smooth="yes"/>
      <point x="321" y="406"/>
      <point x="338" y="430"/>
    </contour>
  </outline>
</glyph>
<glyph name="threetelu" format="2">
  <advance width="491"/>
  <unicode hex="0C69"/>
  <outline>
    <contour>
      <point x="262" y="-12" type="curve" smooth="yes"/>
      <point x="392" y="-12"/>
      <point x="463" y="47"/>
      <point x="463" y="148" type="curve" smooth="yes"/>
      <point x="463" y="234"/>
      <point x="417" y="289"/>
      <point x="314" y="302" type="curve"/>
      <point x="304" y="255" type="line"/>
      <point x="425" y="262"/>
      <point x="456" y="311"/>
      <point x="456" y="377" type="curve" smooth="yes"/>
      <point x="456" y="469"/>
      <point x="376" y="515"/>
      <point x="270" y="515" type="curve" smooth="yes"/>
      <point x="175" y="515"/>
      <point x="95" y="489"/>
      <point x="21" y="450" type="curve"/>
      <point x="80" y="311" type="line"/>
      <point x="145" y="370"/>
      <point x="227" y="406"/>
      <point x="293" y="406" type="curve" smooth="yes"/>
      <point x="341" y="406"/>
      <point x="373" y="392"/>
      <point x="373" y="357" type="curve" smooth="yes"/>
      <point x="373" y="329"/>
      <point x="355" y="306"/>
      <point x="283" y="306" type="curve" smooth="yes"/>
      <point x="166" y="306" type="line"/>
      <point x="159" y="244" type="line"/>
      <point x="293" y="244" type="line" smooth="yes"/>
      <point x="355" y="244"/>
      <point x="377" y="226"/>
      <point x="377" y="197" type="curve" smooth="yes"/>
      <point x="377" y="162"/>
      <point x="344" y="146"/>
      <point x="287" y="146" type="curve" smooth="yes"/>
      <point x="227" y="146"/>
      <point x="165" y="160"/>
      <point x="70" y="217" type="curve"/>
      <point x="14" y="42" type="line"/>
      <point x="94" y="7"/>
      <point x="184" y="-12"/>
    </contour>
  </outline>
</glyph>
<glyph name="fourtelu" format="2">
  <advance width="607"/>
  <unicode hex="0C6A"/>
  <outline>
    <contour>
      <point x="302" y="-12" type="curve" smooth="yes"/>
      <point x="427" y="-12"/>
      <point x="473" y="30"/>
      <point x="473" y="104" type="curve" smooth="yes"/>
      <point x="473" y="186"/>
      <point x="403" y="207"/>
      <point x="317" y="218" type="curve"/>
      <point x="309" y="219" type="line"/>
      <point x="171" y="230"/>
      <point x="106" y="259"/>
      <point x="106" y="308" type="curve" smooth="yes"/>
      <point x="106" y="346"/>
      <point x="142" y="366"/>
      <point x="226" y="372" type="curve"/>
      <point x="206" y="517" type="line"/>
      <point x="100" y="494"/>
      <point x="26" y="437"/>
      <point x="26" y="336" type="curve" smooth="yes"/>
      <point x="26" y="232"/>
      <point x="101" y="182"/>
      <point x="225" y="167" type="curve"/>
      <point x="295" y="163" type="line"/>
      <point x="369" y="160"/>
      <point x="384" y="156"/>
      <point x="384" y="140" type="curve" smooth="yes"/>
      <point x="384" y="119"/>
      <point x="357" y="116"/>
      <point x="304" y="115" type="curve" smooth="yes"/>
      <point x="249" y="114"/>
      <point x="222" y="119"/>
      <point x="222" y="140" type="curve" smooth="yes"/>
      <point x="222" y="154"/>
      <point x="230" y="160"/>
      <point x="309" y="163" type="curve"/>
      <point x="379" y="164" type="line"/>
      <point x="511" y="185"/>
      <point x="581" y="234"/>
      <point x="581" y="335" type="curve" smooth="yes"/>
      <point x="581" y="437"/>
      <point x="507" y="494"/>
      <point x="401" y="517" type="curve"/>
      <point x="382" y="372" type="line"/>
      <point x="454" y="368"/>
      <point x="501" y="348"/>
      <point x="501" y="308" type="curve" smooth="yes"/>
      <point x="501" y="258"/>
      <point x="436" y="230"/>
      <point x="294" y="219" type="curve"/>
      <point x="289" y="219"/>
      <point x="288" y="218"/>
      <point x="284" y="217" type="curve"/>
      <point x="204" y="207"/>
      <point x="134" y="184"/>
      <point x="134" y="105" type="curve" smooth="yes"/>
      <point x="134" y="31"/>
      <point x="188" y="-12"/>
    </contour>
  </outline>
</glyph>
<glyph name="fivetelu" format="2">
  <advance width="685"/>
  <unicode hex="0C6B"/>
  <outline>
    <contour>
      <point x="230" y="-12" type="curve" smooth="yes"/>
      <point x="353" y="-12"/>
      <point x="411" y="95"/>
      <point x="411" y="260" type="curve" smooth="yes"/>
      <point x="411" y="409"/>
      <point x="351" y="514"/>
      <point x="219" y="514" type="curve" smooth="yes"/>
      <point x="139" y="514"/>
      <point x="78" y="475"/>
      <point x="31" y="378" type="curve"/>
      <point x="89" y="356" type="line"/>
      <point x="128" y="394"/>
      <point x="163" y="412"/>
      <point x="217" y="412" type="curve" smooth="yes"/>
      <point x="293" y="412"/>
      <point x="341" y="371"/>
      <point x="341" y="296" type="curve" smooth="yes"/>
      <point x="341" y="241"/>
      <point x="314" y="200"/>
      <point x="212" y="200" type="curve" smooth="yes"/>
      <point x="140" y="200"/>
      <point x="100" y="220"/>
      <point x="74" y="260" type="curve"/>
      <point x="13" y="241" type="line"/>
      <point x="36" y="100"/>
      <point x="84" y="-12"/>
    </contour>
    <contour>
      <point x="556" y="-13" type="curve" smooth="yes"/>
      <point x="621" y="-13"/>
      <point x="658" y="31"/>
      <point x="658" y="100" type="curve" smooth="yes"/>
      <point x="658" y="160"/>
      <point x="621" y="216"/>
      <point x="560" y="285" type="curve"/>
      <point x="520" y="333"/>
      <point x="505" y="362"/>
      <point x="505" y="391" type="curve" smooth="yes"/>
      <point x="505" y="416"/>
      <point x="520" y="433"/>
      <point x="547" y="433" type="curve" smooth="yes"/>
      <point x="574" y="433"/>
      <point x="586" y="416"/>
      <point x="586" y="392" type="curve" smooth="yes"/>
      <point x="586" y="367"/>
      <point x="569" y="335"/>
      <point x="507" y="293" type="curve"/>
      <point x="438" y="246"/>
      <point x="385" y="203"/>
      <point x="351" y="133" type="curve"/>
      <point x="370" y="78" type="line"/>
      <point x="423" y="161"/>
      <point x="463" y="198"/>
      <point x="546" y="250" type="curve"/>
      <point x="620" y="308"/>
      <point x="656" y="349"/>
      <point x="656" y="413" type="curve" smooth="yes"/>
      <point x="656" y="476"/>
      <point x="615" y="512"/>
      <point x="547" y="512" type="curve" smooth="yes"/>
      <point x="471" y="512"/>
      <point x="430" y="463"/>
      <point x="430" y="409" type="curve" smooth="yes"/>
      <point x="430" y="362"/>
      <point x="455" y="322"/>
      <point x="510" y="254" type="curve"/>
      <point x="553" y="205"/>
      <point x="565" y="183"/>
      <point x="565" y="156" type="curve" smooth="yes"/>
      <point x="565" y="132"/>
      <point x="550" y="121"/>
      <point x="529" y="121" type="curve" smooth="yes"/>
      <point x="500" y="121"/>
      <point x="488" y="129"/>
      <point x="476" y="146" type="curve"/>
      <point x="419" y="128" type="line"/>
      <point x="432" y="66"/>
      <point x="459" y="-13"/>
    </contour>
  </outline>
</glyph>
<glyph name="sixtelu" format="2">
  <advance width="556"/>
  <unicode hex="0C6C"/>
  <outline>
    <contour>
      <point x="41" y="412" type="curve" smooth="yes"/>
      <point x="41" y="363"/>
      <point x="79" y="324"/>
      <point x="160" y="318" type="curve"/>
      <point x="149" y="355" type="line"/>
      <point x="76" y="334"/>
      <point x="28" y="286"/>
      <point x="28" y="193" type="curve" smooth="yes"/>
      <point x="28" y="135"/>
      <point x="48" y="92"/>
      <point x="83" y="61" type="curve" smooth="yes"/>
      <point x="131" y="19"/>
      <point x="196" y="0"/>
      <point x="338" y="0" type="curve" smooth="yes"/>
      <point x="514" y="0" type="line"/>
      <point x="540" y="209" type="line"/>
      <point x="221" y="209" type="line" smooth="yes"/>
      <point x="181" y="209"/>
      <point x="154" y="212"/>
      <point x="139" y="221" type="curve" smooth="yes"/>
      <point x="128" y="227"/>
      <point x="119" y="239"/>
      <point x="119" y="256" type="curve" smooth="yes"/>
      <point x="119" y="288"/>
      <point x="144" y="301"/>
      <point x="197" y="301" type="curve" smooth="yes"/>
      <point x="366" y="301" type="line"/>
      <point x="376" y="363" type="line"/>
      <point x="197" y="363" type="line" smooth="yes"/>
      <point x="155" y="363"/>
      <point x="132" y="374"/>
      <point x="132" y="401" type="curve" smooth="yes"/>
      <point x="132" y="428"/>
      <point x="153" y="438"/>
      <point x="196" y="438" type="curve" smooth="yes"/>
      <point x="268" y="438" type="line"/>
      <point x="278" y="506" type="line"/>
      <point x="192" y="506" type="line" smooth="yes"/>
      <point x="103" y="506"/>
      <point x="41" y="481"/>
    </contour>
  </outline>
</glyph>
<glyph name="seventelu" format="2">
  <advance width="536"/>
  <unicode hex="0C6D"/>
  <outline>
    <contour>
      <point x="462" y="260" type="line"/>
      <point x="422" y="221"/>
      <point x="377" y="200"/>
      <point x="263" y="200" type="curve" smooth="yes"/>
      <point x="174" y="200"/>
      <point x="132" y="213"/>
      <point x="132" y="243" type="curve" smooth="yes"/>
      <point x="132" y="263"/>
      <point x="138" y="279"/>
      <point x="220" y="285" type="curve" smooth="yes"/>
      <point x="308" y="291" type="line" smooth="yes"/>
      <point x="426" y="299"/>
      <point x="484" y="335"/>
      <point x="484" y="403" type="curve" smooth="yes"/>
      <point x="484" y="465"/>
      <point x="427" y="514"/>
      <point x="287" y="514" type="curve" smooth="yes"/>
      <point x="174" y="514"/>
      <point x="95" y="484"/>
      <point x="27" y="446" type="curve"/>
      <point x="81" y="388" type="line"/>
      <point x="161" y="435"/>
      <point x="219" y="454"/>
      <point x="297" y="454" type="curve" smooth="yes"/>
      <point x="355" y="454"/>
      <point x="398" y="443"/>
      <point x="398" y="406" type="curve" smooth="yes"/>
      <point x="398" y="379"/>
      <point x="382" y="357"/>
      <point x="299" y="351" type="curve" smooth="yes"/>
      <point x="211" y="345" type="line" smooth="yes"/>
      <point x="55" y="334"/>
      <point x="22" y="259"/>
      <point x="22" y="183" type="curve" smooth="yes"/>
      <point x="22" y="90"/>
      <point x="76" y="-12"/>
      <point x="249" y="-12" type="curve" smooth="yes"/>
      <point x="441" y="-12"/>
      <point x="499" y="106"/>
      <point x="522" y="241" type="curve"/>
    </contour>
  </outline>
</glyph>
<glyph name="eighttelu" format="2">
  <advance width="670"/>
  <unicode hex="0C6E"/>
  <outline>
    <contour>
      <point x="277" y="-12" type="curve" smooth="yes"/>
      <point x="440" y="-12"/>
      <point x="526" y="69"/>
      <point x="526" y="226" type="curve" smooth="yes"/>
      <point x="526" y="342"/>
      <point x="468" y="408"/>
      <point x="384" y="450" type="curve"/>
      <point x="408" y="391" type="line"/>
      <point x="636" y="391" type="line"/>
      <point x="654" y="506" type="line"/>
      <point x="351" y="506" type="line"/>
      <point x="319" y="418" type="line"/>
      <point x="381" y="401"/>
      <point x="418" y="365"/>
      <point x="418" y="314" type="curve" smooth="yes"/>
      <point x="418" y="244"/>
      <point x="368" y="205"/>
      <point x="265" y="205" type="curve" smooth="yes"/>
      <point x="169" y="205"/>
      <point x="128" y="235"/>
      <point x="128" y="304" type="curve" smooth="yes"/>
      <point x="128" y="342"/>
      <point x="147" y="375"/>
      <point x="176" y="412" type="curve"/>
      <point x="115" y="454" type="line"/>
      <point x="48" y="380"/>
      <point x="29" y="309"/>
      <point x="29" y="232" type="curve" smooth="yes"/>
      <point x="29" y="59"/>
      <point x="136" y="-12"/>
    </contour>
  </outline>
</glyph>
<glyph name="ninetelu" format="2">
  <advance width="556"/>
  <unicode hex="0C6F"/>
  <outline>
    <contour>
      <point x="41" y="101" type="curve" smooth="yes"/>
      <point x="41" y="27"/>
      <point x="106" y="0"/>
      <point x="197" y="0" type="curve" smooth="yes"/>
      <point x="261" y="0" type="line"/>
      <point x="271" y="68" type="line"/>
      <point x="205" y="68" type="line" smooth="yes"/>
      <point x="157" y="68"/>
      <point x="132" y="79"/>
      <point x="132" y="112" type="curve" smooth="yes"/>
      <point x="132" y="144"/>
      <point x="157" y="158"/>
      <point x="207" y="158" type="curve" smooth="yes"/>
      <point x="362" y="158" type="line"/>
      <point x="372" y="220" type="line"/>
      <point x="207" y="220" type="line" smooth="yes"/>
      <point x="148" y="220"/>
      <point x="119" y="235"/>
      <point x="119" y="271" type="curve" smooth="yes"/>
      <point x="119" y="290"/>
      <point x="128" y="303"/>
      <point x="140" y="310" type="curve" smooth="yes"/>
      <point x="155" y="319"/>
      <point x="182" y="323"/>
      <point x="225" y="323" type="curve" smooth="yes"/>
      <point x="518" y="323" type="line"/>
      <point x="540" y="506" type="line"/>
      <point x="319" y="506" type="line" smooth="yes"/>
      <point x="196" y="506"/>
      <point x="134" y="491"/>
      <point x="87" y="454" type="curve" smooth="yes"/>
      <point x="50" y="425"/>
      <point x="28" y="384"/>
      <point x="28" y="324" type="curve" smooth="yes"/>
      <point x="28" y="235"/>
      <point x="79" y="186"/>
      <point x="149" y="170" type="curve"/>
      <point x="163" y="202" type="line"/>
      <point x="82" y="196"/>
      <point x="41" y="156"/>
    </contour>
  </outline>
</glyph>
<glyph name="uni0C77" format="2">
  <advance width="1059"/>
  <unicode hex="0C77"/>
  <outline>
    <contour>
      <point x="145" y="497" type="curve"/>
      <point x="60" y="503" type="line"/>
      <point x="48" y="439"/>
      <point x="42" y="381"/>
      <point x="42" y="324" type="curve" smooth="yes"/>
      <point x="42" y="-31"/>
      <point x="227" y="-229"/>
      <point x="540" y="-229" type="curve" smooth="yes"/>
      <point x="850" y="-229"/>
      <point x="1017" y="-53"/>
      <point x="1017" y="263" type="curve" smooth="yes"/>
      <point x="1017" y="528"/>
      <point x="864" y="694"/>
      <point x="618" y="694" type="curve" smooth="yes"/>
      <point x="395" y="694"/>
      <point x="249" y="553"/>
      <point x="249" y="343" type="curve" smooth="yes"/>
      <point x="249" y="145"/>
      <point x="364" y="31"/>
      <point x="542" y="31" type="curve" smooth="yes"/>
      <point x="715" y="31"/>
      <point x="804" y="126"/>
      <point x="804" y="280" type="curve" smooth="yes"/>
      <point x="804" y="412"/>
      <point x="728" y="489"/>
      <point x="611" y="489" type="curve" smooth="yes"/>
      <point x="508" y="489"/>
      <point x="433" y="424"/>
      <point x="433" y="324" type="curve" smooth="yes"/>
      <point x="433" y="252"/>
      <point x="481" y="219"/>
      <point x="537" y="219" type="curve" smooth="yes"/>
      <point x="593" y="219"/>
      <point x="631" y="238"/>
      <point x="631" y="297" type="curve" smooth="yes"/>
      <point x="631" y="340"/>
      <point x="606" y="368"/>
      <point x="549" y="368" type="curve" smooth="yes"/>
      <point x="501" y="368"/>
      <point x="472" y="352"/>
      <point x="448" y="325" type="curve"/>
      <point x="506" y="297" type="line"/>
      <point x="506" y="371"/>
      <point x="547" y="419"/>
      <point x="608" y="419" type="curve" smooth="yes"/>
      <point x="677" y="419"/>
      <point x="718" y="369"/>
      <point x="718" y="283" type="curve" smooth="yes"/>
      <point x="718" y="182"/>
      <point x="653" y="125"/>
      <point x="540" y="125" type="curve" smooth="yes"/>
      <point x="412" y="125"/>
      <point x="335" y="199"/>
      <point x="335" y="342" type="curve" smooth="yes"/>
      <point x="335" y="509"/>
      <point x="438" y="623"/>
      <point x="615" y="623" type="curve" smooth="yes"/>
      <point x="803" y="623"/>
      <point x="917" y="489"/>
      <point x="917" y="264" type="curve" smooth="yes"/>
      <point x="917" y="16"/>
      <point x="784" y="-124"/>
      <point x="539" y="-124" type="curve" smooth="yes"/>
      <point x="276" y="-124"/>
      <point x="128" y="39"/>
      <point x="128" y="329" type="curve" smooth="yes"/>
      <point x="128" y="381"/>
      <point x="133" y="444"/>
    </contour>
  </outline>
</glyph>
<glyph name="uni0C78" format="2">
  <advance width="535"/>
  <unicode hex="0C78"/>
  <outline>
    <contour>
      <point x="29" y="286" type="curve" smooth="yes"/>
      <point x="29" y="143"/>
      <point x="125" y="58"/>
      <point x="266" y="58" type="curve" smooth="yes"/>
      <point x="410" y="58"/>
      <point x="506" y="144"/>
      <point x="506" y="285" type="curve" smooth="yes"/>
      <point x="506" y="433"/>
      <point x="403" y="514"/>
      <point x="266" y="514" type="curve" smooth="yes"/>
      <point x="129" y="514"/>
      <point x="29" y="430"/>
    </contour>
    <contour>
      <point x="112" y="303" type="curve" smooth="yes"/>
      <point x="112" y="400"/>
      <point x="175" y="455"/>
      <point x="266" y="455" type="curve" smooth="yes"/>
      <point x="358" y="455"/>
      <point x="423" y="403"/>
      <point x="423" y="302" type="curve" smooth="yes"/>
      <point x="423" y="215"/>
      <point x="357" y="173"/>
      <point x="266" y="173" type="curve" smooth="yes"/>
      <point x="176" y="173"/>
      <point x="112" y="210"/>
    </contour>
    <contour>
      <point x="481" y="-85" type="curve" smooth="yes"/>
      <point x="481" y="-4"/>
      <point x="418" y="44"/>
      <point x="254" y="104" type="curve"/>
      <point x="192" y="70" type="line"/>
      <point x="340" y="6"/>
      <point x="376" y="-27"/>
      <point x="376" y="-74" type="curve" smooth="yes"/>
      <point x="376" y="-107"/>
      <point x="350" y="-126"/>
      <point x="318" y="-147" type="curve"/>
      <point x="390" y="-225" type="line"/>
      <point x="454" y="-180"/>
      <point x="481" y="-142"/>
    </contour>
  </outline>
</glyph>
<glyph name="uni0C79" format="2">
  <advance width="252"/>
  <unicode hex="0C79"/>
  <outline>
    <contour>
      <point x="163" y="0" type="line"/>
      <point x="163" y="507" type="line"/>
      <point x="89" y="507" type="line"/>
      <point x="89" y="0" type="line"/>
    </contour>
  </outline>
</glyph>
<glyph name="uni0C7A" format="2">
  <advance width="445"/>
  <unicode hex="0C7A"/>
  <outline>
    <contour>
      <point x="192" y="144" type="curve" smooth="yes"/>
      <point x="255" y="144"/>
      <point x="307" y="191"/>
      <point x="318" y="282" type="curve"/>
      <point x="300" y="337" type="line"/>
      <point x="300" y="506" type="line"/>
      <point x="282" y="506" type="line"/>
      <point x="282" y="364" type="line" smooth="yes"/>
      <point x="282" y="291"/>
      <point x="261" y="252"/>
      <point x="206" y="252" type="curve" smooth="yes"/>
      <point x="150" y="252"/>
      <point x="132" y="282"/>
      <point x="132" y="361" type="curve" smooth="yes"/>
      <point x="132" y="506" type="line"/>
      <point x="58" y="506" type="line"/>
      <point x="58" y="330" type="line" smooth="yes"/>
      <point x="58" y="190"/>
      <point x="107" y="144"/>
    </contour>
    <contour>
      <point x="356" y="0" type="line"/>
      <point x="356" y="506" type="line"/>
      <point x="282" y="506" type="line"/>
      <point x="282" y="0" type="line"/>
    </contour>
  </outline>
</glyph>
<glyph name="uni0C7B" format="2">
  <advance width="653"/>
  <unicode hex="0C7B"/>
  <outline>
    <contour>
      <point x="188" y="144" type="curve" smooth="yes"/>
      <point x="253" y="144"/>
      <point x="309" y="191"/>
      <point x="316" y="282" type="curve"/>
      <point x="292" y="337" type="line"/>
      <point x="292" y="507" type="line"/>
      <point x="274" y="507" type="line"/>
      <point x="274" y="364" type="line" smooth="yes"/>
      <point x="274" y="291"/>
      <point x="253" y="252"/>
      <point x="202" y="252" type="curve" smooth="yes"/>
      <point x="150" y="252"/>
      <point x="132" y="282"/>
      <point x="132" y="361" type="curve" smooth="yes"/>
      <point x="132" y="507" type="line"/>
      <point x="58" y="507" type="line"/>
      <point x="58" y="330" type="line" smooth="yes"/>
      <point x="58" y="190"/>
      <point x="107" y="144"/>
    </contour>
    <contour>
      <point x="404" y="144" type="curve" smooth="yes"/>
      <point x="463" y="144"/>
      <point x="515" y="191"/>
      <point x="526" y="282" type="curve"/>
      <point x="508" y="337" type="line"/>
      <point x="508" y="507" type="line"/>
      <point x="490" y="507" type="line"/>
      <point x="490" y="364" type="line" smooth="yes"/>
      <point x="490" y="291"/>
      <point x="469" y="252"/>
      <point x="418" y="252" type="curve" smooth="yes"/>
      <point x="366" y="252"/>
      <point x="348" y="282"/>
      <point x="348" y="361" type="curve" smooth="yes"/>
      <point x="348" y="507" type="line"/>
      <point x="274" y="507" type="line"/>
      <point x="274" y="330" type="line" smooth="yes"/>
      <point x="274" y="190"/>
      <point x="323" y="144"/>
    </contour>
    <contour>
      <point x="564" y="0" type="line"/>
      <point x="564" y="507" type="line"/>
      <point x="490" y="507" type="line"/>
      <point x="490" y="0" type="line"/>
    </contour>
  </outline>
</glyph>
<glyph name="uni0C7C" format="2">
  <advance width="564"/>
  <unicode hex="0C7C"/>
  <outline>
    <contour>
      <point x="37" y="208" type="line"/>
      <point x="527" y="208" type="line"/>
      <point x="527" y="309" type="line"/>
      <point x="37" y="309" type="line"/>
    </contour>
  </outline>
</glyph>
<glyph name="uni0C7D" format="2">
  <advance width="591"/>
  <unicode hex="0C7D"/>
  <outline>
    <contour>
      <point x="47" y="133" type="curve" smooth="yes"/>
      <point x="47" y="91"/>
      <point x="62" y="58"/>
      <point x="92" y="35" type="curve" smooth="yes"/>
      <point x="120" y="14"/>
      <point x="161" y="0"/>
      <point x="251" y="0" type="curve" smooth="yes"/>
      <point x="575" y="0" type="line"/>
      <point x="575" y="105" type="line"/>
      <point x="194" y="105" type="line" smooth="yes"/>
      <point x="149" y="105"/>
      <point x="127" y="116"/>
      <point x="127" y="145" type="curve" smooth="yes"/>
      <point x="127" y="183"/>
      <point x="171" y="197"/>
      <point x="288" y="225" type="curve" smooth="yes"/>
      <point x="422" y="257"/>
      <point x="504" y="278"/>
      <point x="504" y="378" type="curve" smooth="yes"/>
      <point x="504" y="419"/>
      <point x="491" y="452"/>
      <point x="463" y="473" type="curve" smooth="yes"/>
      <point x="437" y="492"/>
      <point x="407" y="506"/>
      <point x="310" y="506" type="curve" smooth="yes"/>
      <point x="48" y="506" type="line"/>
      <point x="48" y="404" type="line"/>
      <point x="346" y="404" type="line" smooth="yes"/>
      <point x="394" y="404"/>
      <point x="423" y="400"/>
      <point x="423" y="366" type="curve" smooth="yes"/>
      <point x="423" y="328"/>
      <point x="382" y="316"/>
      <point x="270" y="290" type="curve" smooth="yes"/>
      <point x="123" y="256"/>
      <point x="47" y="226"/>
    </contour>
  </outline>
</glyph>
<glyph name="uni0C7E" format="2">
  <advance width="587"/>
  <unicode hex="0C7E"/>
  <outline>
    <contour>
      <point x="47" y="91" type="curve"/>
      <point x="47" y="60"/>
      <point x="59" y="37"/>
      <point x="80" y="23" type="curve" smooth="yes"/>
      <point x="103" y="8"/>
      <point x="137" y="0"/>
      <point x="198" y="0" type="curve" smooth="yes"/>
      <point x="571" y="0" type="line"/>
      <point x="571" y="79" type="line"/>
      <point x="164" y="79" type="line" smooth="yes"/>
      <point x="140" y="79"/>
      <point x="129" y="83"/>
      <point x="129" y="99" type="curve" smooth="yes"/>
      <point x="129" y="117"/>
      <point x="142" y="127"/>
      <point x="297" y="154" type="curve" smooth="yes"/>
      <point x="465" y="183"/>
      <point x="501" y="211"/>
      <point x="501" y="271" type="curve" smooth="yes"/>
      <point x="501" y="300"/>
      <point x="490" y="320"/>
      <point x="474" y="333" type="curve" smooth="yes"/>
      <point x="449" y="353"/>
      <point x="413" y="360"/>
      <point x="348" y="360" type="curve" smooth="yes"/>
      <point x="166" y="360" type="line" smooth="yes"/>
      <point x="138" y="360"/>
      <point x="129" y="366"/>
      <point x="129" y="380" type="curve" smooth="yes"/>
      <point x="129" y="397"/>
      <point x="141" y="409"/>
      <point x="295" y="434" type="curve" smooth="yes"/>
      <point x="465" y="462"/>
      <point x="501" y="493"/>
      <point x="501" y="554" type="curve" smooth="yes"/>
      <point x="501" y="581"/>
      <point x="491" y="602"/>
      <point x="475" y="614" type="curve" smooth="yes"/>
      <point x="448" y="634"/>
      <point x="413" y="641"/>
      <point x="346" y="641" type="curve" smooth="yes"/>
      <point x="48" y="641" type="line"/>
      <point x="48" y="565" type="line"/>
      <point x="377" y="565" type="line" smooth="yes"/>
      <point x="402" y="565"/>
      <point x="419" y="562"/>
      <point x="419" y="547" type="curve" smooth="yes"/>
      <point x="419" y="528"/>
      <point x="410" y="518"/>
      <point x="265" y="493" type="curve" smooth="yes"/>
      <point x="91" y="463"/>
      <point x="47" y="438"/>
      <point x="47" y="373" type="curve" smooth="yes"/>
      <point x="47" y="344"/>
      <point x="61" y="319"/>
      <point x="80" y="306" type="curve" smooth="yes"/>
      <point x="104" y="289"/>
      <point x="136" y="284"/>
      <point x="198" y="284" type="curve" smooth="yes"/>
      <point x="378" y="284" type="line" smooth="yes"/>
      <point x="402" y="284"/>
      <point x="419" y="282"/>
      <point x="419" y="264" type="curve" smooth="yes"/>
      <point x="419" y="249"/>
      <point x="411" y="238"/>
      <point x="267" y="214" type="curve" smooth="yes"/>
      <point x="91" y="185"/>
      <point x="47" y="157"/>
    </contour>
  </outline>
</glyph>
<glyph name="uni0C7F" format="2">
  <advance width="700"/>
  <unicode hex="0C7F"/>
  <outline>
    <contour>
      <point x="312" y="-12" type="curve" smooth="yes"/>
      <point x="564" y="-12"/>
      <point x="643" y="185"/>
      <point x="679" y="342" type="curve"/>
      <point x="614" y="365" type="line"/>
      <point x="574" y="277"/>
      <point x="512" y="200"/>
      <point x="328" y="200" type="curve" smooth="yes"/>
      <point x="195" y="200"/>
      <point x="113" y="241"/>
      <point x="113" y="331" type="curve" smooth="yes"/>
      <point x="113" y="389"/>
      <point x="149" y="420"/>
      <point x="181" y="438" type="curve"/>
      <point x="154" y="440" type="line"/>
      <point x="142" y="419"/>
      <point x="134" y="397"/>
      <point x="134" y="371" type="curve" smooth="yes"/>
      <point x="134" y="304"/>
      <point x="177" y="261"/>
      <point x="262" y="261" type="curve" smooth="yes"/>
      <point x="338" y="261"/>
      <point x="393" y="305"/>
      <point x="393" y="386" type="curve" smooth="yes"/>
      <point x="393" y="459"/>
      <point x="345" y="511"/>
      <point x="253" y="511" type="curve" smooth="yes"/>
      <point x="136" y="511"/>
      <point x="41" y="414"/>
      <point x="41" y="264" type="curve" smooth="yes"/>
      <point x="41" y="78"/>
      <point x="138" y="-12"/>
    </contour>
    <contour>
      <point x="306" y="376" type="curve" smooth="yes"/>
      <point x="306" y="329"/>
      <point x="281" y="319"/>
      <point x="254" y="319" type="curve" smooth="yes"/>
      <point x="223" y="319"/>
      <point x="201" y="337"/>
      <point x="201" y="376" type="curve" smooth="yes"/>
      <point x="201" y="409"/>
      <point x="222" y="430"/>
      <point x="256" y="430" type="curve" smooth="yes"/>
      <point x="291" y="430"/>
      <point x="306" y="406"/>
    </contour>
  </outline>
</glyph>
<glyph name="uni1CDA" format="2">
  <unicode hex="1CDA"/>
  <outline>
    <contour>
      <point x="-392" y="598" type="line"/>
      <point x="-315" y="598" type="line"/>
      <point x="-315" y="809" type="line"/>
      <point x="-392" y="809" type="line"/>
    </contour>
    <contour>
      <point x="-257" y="598" type="line"/>
      <point x="-180" y="598" type="line"/>
      <point x="-180" y="809" type="line"/>
      <point x="-257" y="809" type="line"/>
    </contour>
  </outline>
</glyph>
<glyph name="uni1CF2" format="2">
  <advance width="512"/>
  <unicode hex="1CF2"/>
  <outline>
    <contour>
      <point x="344" y="489" type="line"/>
      <point x="327" y="418"/>
      <point x="287" y="368"/>
      <point x="220" y="368" type="curve" smooth="yes"/>
      <point x="151" y="368"/>
      <point x="115" y="417"/>
      <point x="96" y="489" type="curve"/>
      <point x="20" y="473" type="line"/>
      <point x="44" y="334"/>
      <point x="120" y="256"/>
      <point x="256" y="256" type="curve" smooth="yes"/>
      <point x="374" y="256"/>
      <point x="459" y="322"/>
      <point x="492" y="458" type="curve"/>
    </contour>
    <contour>
      <point x="168" y="-4" type="line"/>
      <point x="185" y="67"/>
      <point x="225" y="117"/>
      <point x="292" y="117" type="curve" smooth="yes"/>
      <point x="361" y="117"/>
      <point x="397" y="68"/>
      <point x="416" y="-4" type="curve"/>
      <point x="492" y="12" type="line"/>
      <point x="468" y="151"/>
      <point x="392" y="229"/>
      <point x="256" y="229" type="curve" smooth="yes"/>
      <point x="138" y="229"/>
      <point x="53" y="163"/>
      <point x="20" y="27" type="curve"/>
    </contour>
  </outline>
</glyph>
<glyph name="endash.telu" format="2">
  <advance width="500"/>
  <unicode hex="2013"/>
  <outline>
    <contour>
      <point x="36" y="226" type="line"/>
      <point x="464" y="226" type="line"/>
      <point x="464" y="305" type="line"/>
      <point x="36" y="305" type="line"/>
    </contour>
  </outline>
</glyph>
<glyph name="emdash.telu" format="2">
  <advance width="1000"/>
  <unicode hex="2014"/>
  <outline>
    <contour>
      <point x="36" y="226" type="line"/>
      <point x="964" y="226" type="line"/>
      <point x="964" y="305" type="line"/>
      <point x="36" y="305" type="line"/>
    </contour>
  </outline>
</glyph>
<glyph name="quoteleft.telu" format="2">
  <advance width="295"/>
  <unicode hex="2018"/>
  <outline>
    <contour>
      <point x="148" y="458" type="curve" smooth="yes"/>
      <point x="195" y="458"/>
      <point x="230" y="490"/>
      <point x="230" y="541" type="curve" smooth="yes"/>
      <point x="230" y="629"/>
      <point x="152" y="616"/>
      <point x="152" y="656" type="curve" smooth="yes"/>
      <point x="152" y="688"/>
      <point x="187" y="701"/>
      <point x="250" y="722" type="curve"/>
      <point x="250" y="781" type="line"/>
      <point x="102" y="746"/>
      <point x="50" y="670"/>
      <point x="50" y="580" type="curve" smooth="yes"/>
      <point x="50" y="508"/>
      <point x="84" y="458"/>
    </contour>
  </outline>
</glyph>
